<svg width="26" height="26" viewBox="0 0 26 26" fill="none" xmlns="http://www.w3.org/2000/svg">
<path d="M6.89102 0.101561L6.75391 0.208202V1.14766C6.75391 1.66055 6.73359 2.08203 6.71328 2.08203C6.69297 2.08203 6.41367 1.9957 6.09375 1.88398C5.77383 1.77734 5.28633 1.63515 5.01719 1.56914L4.51953 1.45234L4.38242 1.55898L4.24023 1.66055L4.225 4.37226L4.21484 7.08906L3.55977 7.27187C3.19922 7.37344 2.66602 7.55117 2.36641 7.66797C1.83828 7.87617 1.67578 7.99804 1.67578 8.18594C1.67578 8.26719 1.625 8.27734 1.28477 8.27734C0.609375 8.27734 0.269141 8.42969 0.0964844 8.80547C0.00507812 9.00352 0 9.27266 0 14.9855C0 20.602 0.00507812 20.9676 0.0914062 21.0641C0.228516 21.2266 0.502734 21.2316 0.660156 21.0742C0.761719 20.9727 0.761719 20.9066 0.761719 15.0617C0.761719 10.0445 0.771875 9.1457 0.832812 9.09492C0.878516 9.05937 1.04609 9.03906 1.27969 9.04922L1.65039 9.06445L1.66562 16.641L1.67578 24.2176L1.80781 24.3191L1.94492 24.4258H13H24.0551L24.1922 24.3191L24.3242 24.2176L24.3344 16.641L24.3496 9.06445L24.7355 9.04922C25.0199 9.03906 25.1367 9.0543 25.1773 9.10508C25.223 9.16094 25.2332 11.177 25.2281 17.1945L25.2129 25.2129L19.6828 25.2281C14.2949 25.2383 14.1477 25.2383 14.0461 25.1418C13.8023 24.9184 13.4926 24.8066 13.066 24.7914C12.7004 24.7711 12.6141 24.7863 12.3551 24.9082C12.1926 24.9793 12.0148 25.0859 11.9539 25.1418C11.8523 25.2383 11.7406 25.2383 6.31719 25.2281L0.787109 25.2129L0.761719 24.0805C0.736328 23.0293 0.73125 22.9379 0.639844 22.8719C0.492578 22.7652 0.223437 22.7805 0.101562 22.9023C0.00507812 22.9988 0 23.0699 0 24.1465C0 25.1723 0.0101562 25.3145 0.0964844 25.482C0.213281 25.7156 0.330078 25.8223 0.573828 25.9238C0.736328 25.9898 1.44219 26 6.44414 26H12.1316L12.2992 25.8578C12.6191 25.5836 12.7105 25.543 13 25.543C13.2895 25.543 13.3809 25.5836 13.7008 25.8578L13.8684 26H19.5559C24.5578 26 25.2637 25.9898 25.4262 25.9238C25.6699 25.8223 25.7867 25.7156 25.9035 25.482C25.9949 25.2992 26 25.0402 26 17.1539C26 9.32344 25.9949 9.00352 25.9035 8.80547C25.7359 8.42969 25.3906 8.27734 24.7254 8.27734H24.3395L24.309 8.125C24.2684 7.93203 24.1262 7.84062 23.4152 7.58672L22.8262 7.37344L22.8109 6.04805L22.8008 4.72773L22.6637 4.62617C22.5621 4.53984 22.4605 4.51953 22.1965 4.51953C21.7547 4.51953 20.7695 4.60586 20.1449 4.69726C17.875 5.03242 15.468 6.01758 13.7516 7.31758C13.3148 7.64766 13.3352 7.65781 13.2793 7.13476C13.2336 6.68789 13.0203 5.76367 12.8375 5.22031C12.0047 2.69648 10.4 1.0207 8.0793 0.253904C7.27695 -0.0101585 7.06875 -0.0406265 6.89102 0.101561ZM8.48047 1.21367C9.29297 1.56406 10.1258 2.17851 10.6844 2.84375C11.6441 3.98125 12.2078 5.31172 12.5227 7.18554C12.6039 7.6375 12.6141 8.34844 12.6293 13.8379C12.6395 17.2148 12.6395 19.9672 12.6242 19.952C12.609 19.9418 12.4668 19.6625 12.2992 19.3426C11.898 18.5504 11.502 17.9969 10.8926 17.3875C10.1004 16.5852 9.13047 16.0012 8.00312 15.6355L7.51562 15.4781V8.1707V0.868359L7.77969 0.949608C7.92695 0.990232 8.2418 1.11211 8.48047 1.21367ZM5.69766 2.55937C6.06836 2.68125 6.45937 2.81836 6.56602 2.86406L6.75391 2.94531V9.43516C6.75391 15.1379 6.76406 15.9352 6.83008 16.0316C6.88086 16.1027 7.00273 16.1637 7.19062 16.1992C7.34297 16.2297 7.66797 16.3262 7.91172 16.4074C9.88711 17.0727 11.2988 18.5352 12.0605 20.7187C12.2434 21.2469 12.4668 22.0848 12.4312 22.1203C12.4211 22.1305 12.2637 21.9375 12.0758 21.6937C10.4203 19.4949 8.10469 17.8699 5.58594 17.1387L5.00195 16.9711L4.98672 9.65351C4.98164 5.62656 4.98672 2.33594 5.00195 2.33594C5.01719 2.33594 5.33203 2.4375 5.69766 2.55937ZM22.0492 7.30742C22.0645 9.2168 22.0695 9.33867 22.1609 9.44023C22.2879 9.57734 22.5621 9.58242 22.6992 9.44531C22.7906 9.3539 22.8008 9.27773 22.8008 8.75469C22.8008 8.21133 22.8059 8.16562 22.8922 8.20117C22.9379 8.22148 23.1105 8.28242 23.273 8.33828L23.5625 8.43984V15.3715V22.3031L23.4508 22.2777C23.3848 22.2676 23.1156 22.1965 22.8516 22.1203C22.1762 21.9324 21.1656 21.7496 20.3937 21.6785C19.6016 21.6074 18.0477 21.643 17.3926 21.7547C17.1437 21.7953 16.9305 21.8258 16.9203 21.8156C16.8898 21.7852 17.6617 21.5008 18.2863 21.3078C19.4441 20.9574 20.5105 20.7797 21.7953 20.7238C22.4707 20.6984 22.6027 20.6781 22.6941 20.5969C22.8008 20.5004 22.8008 20.4953 22.8008 15.9453C22.8008 11.6695 22.7957 11.3801 22.7094 11.2785C22.5875 11.1262 22.3234 11.1211 22.1762 11.2684L22.0645 11.3801L22.0492 15.6609L22.0391 19.9418L21.4551 19.9773C18.723 20.1297 15.9402 21.1148 13.8633 22.6484C13.6398 22.816 13.4469 22.9531 13.4316 22.9531C13.4164 22.9531 13.4062 19.7234 13.4062 15.7727V8.59219L13.6754 8.35351C14.3051 7.8 15.3613 7.11953 16.3262 6.65234C17.9512 5.86523 20.018 5.35742 21.8461 5.28633L22.034 5.28125L22.0492 7.30742ZM4.21484 12.6852C4.21484 17.1641 4.21992 17.4586 4.30625 17.5348C4.35195 17.5754 4.62109 17.6719 4.90547 17.743C6.96719 18.266 8.79023 19.3121 10.3492 20.8711C10.8113 21.3332 11.5629 22.227 11.7914 22.5875L11.8879 22.7398L11.3496 22.5164C10.4254 22.1355 9.69922 21.9324 8.60742 21.7496C8.16562 21.6785 7.77969 21.6582 6.7793 21.6633C5.33203 21.6633 4.62617 21.7496 3.37695 22.0695C2.98594 22.166 2.61523 22.2625 2.5543 22.2777L2.4375 22.3031V15.3715V8.43984L2.78281 8.32305C3.44805 8.09453 3.98633 7.93203 4.10312 7.92695L4.21484 7.92187V12.6852ZM7.97773 22.4453C9.18633 22.5672 10.4508 22.9176 11.4156 23.3898L11.959 23.6539L7.20078 23.659L2.4375 23.6641V23.3898V23.1207L2.98594 22.9582C3.86445 22.7043 4.61602 22.557 5.76367 22.425C6.12422 22.3844 7.49531 22.3996 7.97773 22.4453ZM21.0437 22.5215C21.7395 22.6332 22.3742 22.7703 23.0191 22.9582L23.5625 23.1207V23.3898V23.6641L18.8043 23.659L14.041 23.6539L14.5844 23.3898C15.5086 22.9379 16.7832 22.5773 17.9258 22.4504C18.5453 22.3793 20.4395 22.425 21.0437 22.5215Z" fill="#6776FE"/>
</svg>
