<svg width="30" height="30" viewBox="0 0 30 30" fill="none" xmlns="http://www.w3.org/2000/svg">
<path d="M18.4219 0.052732C18.3516 0.0820289 18.2402 0.181638 18.1699 0.269529C18.0469 0.427732 18.041 0.457029 18.0586 2.21484L18.0762 3.99609L18.2402 4.13672C18.4805 4.34179 18.8203 4.33008 19.0488 4.10742L19.2188 3.9375V2.17383V0.410154L19.0606 0.234373C18.8848 0.0468726 18.6211 -0.0292993 18.4219 0.052732Z" fill="#6776FE"/>
<path d="M13.2949 1.16601C13.1602 1.30078 13.125 1.38867 13.125 1.58789C13.125 1.82812 13.1426 1.85156 14.3086 3.0293C15.498 4.22461 15.6621 4.34765 15.9785 4.28906C16.2246 4.24219 16.4062 3.99609 16.4062 3.70312C16.4062 3.43945 16.4062 3.43945 15.3691 2.38476C14.7949 1.80469 14.2207 1.25976 14.0977 1.16601C13.793 0.937498 13.5234 0.937498 13.2949 1.16601Z" fill="#6776FE"/>
<path d="M23.168 1.16601C23.0449 1.2539 22.4707 1.81054 21.9023 2.39062C20.8652 3.43945 20.8594 3.45117 20.8594 3.70898C20.8594 3.99609 21.041 4.24219 21.2871 4.28906C21.6035 4.34765 21.7676 4.22461 22.957 3.0293C24.123 1.85156 24.1406 1.82812 24.1406 1.58789C24.1406 1.38867 24.1055 1.30078 23.9707 1.16601C23.7422 0.937498 23.4785 0.937498 23.168 1.16601Z" fill="#6776FE"/>
<path d="M14.2383 5.96484C14.1621 6.02344 13.6348 6.86133 13.0664 7.82812L12.0293 9.58008L10.3535 9.59766L8.67188 9.60938V9.11719C8.67188 8.23828 8.37305 7.61133 7.7461 7.16602C7.03711 6.66211 6.00586 6.67969 5.32032 7.20703C4.72266 7.66406 4.45313 8.26172 4.45313 9.11719V9.60938H3.52735C2.90039 9.60938 2.4961 9.63867 2.26758 9.69727C1.16602 9.98438 0.345703 10.8164 0.0878907 11.9062C-0.0410156 12.4688 -0.0410156 27.1523 0.0878907 27.709C0.322266 28.7051 1.08398 29.5137 2.10938 29.8594C2.41992 29.9648 2.87695 29.9707 15 29.9707H27.5684L27.9551 29.8359C28.4531 29.666 28.7813 29.4551 29.168 29.0566C29.5137 28.7051 29.836 28.1016 29.9356 27.6094C29.9824 27.3926 30 25.0137 30 19.7871C30 11.5137 30.0117 11.8887 29.6309 11.168C29.4141 10.7461 28.9102 10.2246 28.5293 10.0078C27.9375 9.68555 27.7676 9.65039 26.461 9.61523L25.2363 9.58008L24.1992 7.82812C23.6309 6.86133 23.1035 6.02344 23.0274 5.96484C22.9043 5.86523 22.6758 5.85938 18.6328 5.85938C14.5899 5.85938 14.3613 5.86523 14.2383 5.96484ZM23.1094 8.28516C23.5137 8.97656 23.8477 9.55664 23.8477 9.57422C23.8477 9.5918 21.5039 9.60938 18.6328 9.60938C15.7617 9.60938 13.418 9.5918 13.418 9.57422C13.418 9.55664 13.752 8.97656 14.1563 8.28516L14.8945 7.03125H18.6328H22.3711L23.1094 8.28516ZM7.03125 8.09766C7.39454 8.34375 7.47071 8.50781 7.48829 9.08789L7.51172 9.60938H6.5625H5.61328L5.63672 9.08789C5.64844 8.66602 5.67774 8.53125 5.77735 8.39648C5.98243 8.11523 6.25782 7.96875 6.5625 7.96875C6.75 7.96875 6.89649 8.00977 7.03125 8.09766ZM27.7969 10.9512C28.1543 11.127 28.4824 11.4609 28.6641 11.8242L28.7988 12.0996V19.8047V27.5098L28.6406 27.8027C28.4414 28.1836 28.0488 28.5469 27.6797 28.6875C27.3985 28.793 27.0469 28.7988 15 28.7988C2.95313 28.7988 2.60156 28.793 2.32031 28.6875C1.95117 28.5469 1.55859 28.1836 1.35938 27.8027L1.20117 27.5098L1.18359 19.9512C1.17188 14.5898 1.18945 12.3164 1.23047 12.1289C1.36524 11.584 1.83399 11.0742 2.38477 10.8691C2.57227 10.8047 4.55274 10.793 15.0586 10.7988L27.5098 10.8105L27.7969 10.9512Z" fill="#6776FE"/>
<path d="M17.4434 12.5039C16.9336 12.5976 16.2773 12.7851 15.8672 12.9609C15.6035 13.0723 15.4102 13.3184 15.4102 13.5469C15.4102 13.6992 15.6328 13.9863 15.8086 14.0566C15.9727 14.1269 16.0488 14.1152 16.5527 13.9453C18.2813 13.3711 19.9922 13.4941 21.5391 14.3203C24.2402 15.7559 25.4942 18.9551 24.4863 21.832C23.8242 23.7363 22.2891 25.1895 20.3496 25.752C17.1914 26.6719 13.8633 24.9434 12.7793 21.832C12.3047 20.4785 12.3223 18.8672 12.832 17.5781C13.0488 17.0273 12.8438 16.6113 12.3516 16.6113C12.0176 16.6113 11.8301 16.8457 11.6133 17.5312C11.3438 18.3867 11.2793 18.8144 11.2793 19.8047C11.2793 21.3809 11.6543 22.6113 12.5273 23.9355C12.873 24.457 13.6699 25.2891 14.2383 25.7168C15.0527 26.332 16.2129 26.8418 17.2676 27.0527C17.9648 27.1875 19.3008 27.1875 19.9922 27.0527C22.2774 26.6016 24.1934 25.1367 25.2422 23.0566C26.3496 20.8594 26.2442 18.1406 24.9727 16.0371C23.8828 14.2324 22.2129 13.0312 20.127 12.5625C19.5586 12.4336 18.0293 12.4043 17.4434 12.5039Z" fill="#6776FE"/>
<path d="M4.71095 14.5195C4.41212 14.7598 4.37696 15.0879 4.62305 15.3633L4.79298 15.5566H6.56251H8.33204L8.50196 15.3633C8.6836 15.1582 8.7129 14.9766 8.60157 14.7363C8.46095 14.4316 8.35548 14.4141 6.52149 14.4141C5.00977 14.4141 4.82227 14.4258 4.71095 14.5195Z" fill="#6776FE"/>
<path d="M13.5176 14.4785C13.3887 14.5547 13.2422 14.8359 13.2422 15.0234C13.2422 15.1055 13.3184 15.2578 13.4121 15.3633C13.5527 15.5215 13.623 15.5566 13.8281 15.5566C14.4141 15.5566 14.625 14.7656 14.1152 14.4961C13.9277 14.4023 13.6699 14.3906 13.5176 14.4785Z" fill="#6776FE"/>
<path d="M17.6953 15.0879C16.2773 15.375 15.0586 16.2891 14.3906 17.5781C14.0508 18.2285 13.8926 18.8145 13.8457 19.541C13.6582 22.8106 16.8047 25.3125 19.9629 24.3984C22.8515 23.5606 24.2637 20.3262 22.9101 17.6426C21.9492 15.7266 19.7871 14.666 17.6953 15.0879ZM19.541 16.2891C20.8242 16.6172 21.9082 17.7363 22.1777 19.0195C22.5762 20.8887 21.457 22.7402 19.5996 23.2969C19.1015 23.4492 18.0879 23.4375 17.5957 23.2793C15.7676 22.6816 14.6953 20.8652 15.0879 19.0195C15.2871 18.0762 16.0195 17.0977 16.8808 16.6172C17.666 16.1836 18.6504 16.0606 19.541 16.2891Z" fill="#6776FE"/>
<path d="M18.4219 17.5195C18.3516 17.543 18.2402 17.6426 18.1641 17.7363C18.0645 17.8652 18.041 17.9473 18.0645 18.1348C18.1055 18.4453 18.2988 18.6035 18.6914 18.6562C18.8613 18.6797 19.0723 18.7324 19.1602 18.7793C19.4121 18.9082 19.6758 19.2539 19.7168 19.4941C19.8047 20.0039 19.8867 20.1797 20.1035 20.2969C20.3496 20.4316 20.5664 20.3965 20.7832 20.1797C20.918 20.0449 20.9297 19.998 20.9063 19.6113C20.8477 18.5801 20.0684 17.7187 19.0195 17.5254C18.6152 17.4492 18.5859 17.4492 18.4219 17.5195Z" fill="#6776FE"/>
</svg>
