<svg width="24" height="24" viewBox="0 0 24 24" fill="none" xmlns="http://www.w3.org/2000/svg">
<path d="M2.7501 3.24988L4.8301 3.60988L5.7931 15.0829C5.8701 16.0199 6.6531 16.7389 7.5931 16.7359H18.5021C19.3991 16.7379 20.1601 16.0779 20.2871 15.1899L21.2361 8.63188C21.3421 7.89888 20.8331 7.21888 20.1011 7.11288C20.0371 7.10388 5.1641 7.09888 5.1641 7.09888" stroke="#AAACAE" stroke-width="1.5" stroke-linecap="round" stroke-linejoin="round"/>
<path d="M14.1251 10.7948H16.8981" stroke="#AAACAE" stroke-width="1.5" stroke-linecap="round" stroke-linejoin="round"/>
<path d="M18.9797 20.7465C18.9797 20.4465 18.7357 20.2025 18.4347 20.2025C18.1337 20.2025 17.8907 20.4465 17.8907 20.7465C17.8907 21.0475 18.1337 21.2915 18.4347 21.2915C18.7357 21.2915 18.9797 21.0475 18.9797 20.7465Z" stroke="#A19FA8" stroke-width="1.5" stroke-linecap="round" stroke-linejoin="round"/>
<path d="M7.699 20.744C7.699 20.444 7.455 20.2 7.154 20.2C6.853 20.2 6.61 20.444 6.61 20.744C6.61 21.045 6.853 21.289 7.154 21.289C7.455 21.289 7.699 21.045 7.699 20.744Z" stroke="#AAACAE" stroke-width="1.5" stroke-linecap="round" stroke-linejoin="round"/>
</svg>
