<svg width="24" height="24" viewBox="0 0 24 24" fill="none" xmlns="http://www.w3.org/2000/svg">
<path d="M2.74214 0.806244C1.8187 0.979682 0.970264 1.84687 0.801514 2.78437C0.731201 3.16406 0.731201 8.46093 0.801514 8.84062C0.974951 9.81093 1.83745 10.6641 2.81245 10.8281C3.02339 10.8609 4.26557 10.875 6.75932 10.8656C10.3499 10.8516 10.4015 10.8516 10.5281 10.7531C10.5984 10.7016 10.7015 10.5984 10.7531 10.5281C10.8515 10.4016 10.8515 10.35 10.8656 6.75937C10.8749 4.26562 10.8609 3.02343 10.8281 2.81249C10.664 1.83749 9.81088 0.974994 8.84057 0.801557C8.48901 0.735931 3.07964 0.740619 2.74214 0.806244ZM8.69057 2.30624C8.93901 2.38124 9.2437 2.68593 9.3187 2.93437C9.36088 3.07968 9.37495 3.91406 9.37495 6.25312V9.37499H6.25307C3.91401 9.37499 3.07964 9.36093 2.93432 9.31874C2.68589 9.24374 2.3812 8.93906 2.3062 8.69062C2.22651 8.41406 2.22651 3.21093 2.3062 2.93437C2.37651 2.69999 2.6812 2.38124 2.9062 2.31093C3.14995 2.23593 8.43276 2.23124 8.69057 2.30624Z" fill="#6776FE"/>
<path d="M15.1171 0.806252C14.1843 0.97969 13.3359 1.85625 13.1718 2.8125C13.139 3.02344 13.1249 4.26094 13.1343 6.75469L13.1484 10.3922L13.2843 10.5656C13.5281 10.8891 13.3453 10.875 17.3343 10.875C19.7015 10.875 21.0328 10.8563 21.2156 10.8234C22.1718 10.65 23.0249 9.79688 23.1984 8.84063C23.2312 8.6625 23.2499 7.57031 23.2499 5.8125C23.2499 4.05469 23.2312 2.9625 23.1984 2.78438C23.0249 1.82813 22.1718 0.975001 21.2156 0.801564C20.864 0.735939 15.4546 0.740626 15.1171 0.806252ZM21.0656 2.30625C21.314 2.38125 21.6187 2.68594 21.6937 2.93438C21.7359 3.07969 21.7499 3.82969 21.7499 5.84063C21.7499 8.47031 21.7453 8.55938 21.6515 8.76563C21.5249 9.04688 21.4406 9.13594 21.164 9.2625L20.9296 9.375H17.7796H14.6249V6.25313C14.6249 3.91406 14.639 3.07969 14.6812 2.93438C14.7515 2.7 15.0562 2.38125 15.2812 2.31094C15.5249 2.23594 20.8078 2.23125 21.0656 2.30625Z" fill="#6776FE"/>
<path d="M2.74214 13.1812C1.8187 13.3547 0.970264 14.2219 0.801514 15.1594C0.731201 15.5391 0.731201 20.8359 0.801514 21.2156C0.974951 22.1719 1.82808 23.025 2.78433 23.1984C3.16401 23.2687 8.46088 23.2687 8.84057 23.1984C9.79682 23.025 10.6499 22.1719 10.8234 21.2156C10.8562 21.0328 10.8749 19.7016 10.8749 17.3344C10.8749 13.3453 10.889 13.5281 10.5656 13.2844L10.3921 13.1484L6.68432 13.1437C4.49057 13.1391 2.88276 13.1531 2.74214 13.1812ZM9.37495 17.775C9.37495 20.8453 9.37026 20.9344 9.27651 21.1406C9.14995 21.4219 9.06557 21.5109 8.78901 21.6375L8.55463 21.75H5.84057C3.82964 21.75 3.07964 21.7359 2.93432 21.6937C2.68589 21.6187 2.3812 21.3141 2.3062 21.0656C2.22651 20.7891 2.22651 15.5859 2.3062 15.3094C2.37651 15.075 2.6812 14.7562 2.9062 14.6859C3.0187 14.6531 4.05464 14.6344 6.22495 14.6297L9.37495 14.625V17.775Z" fill="#6776FE"/>
<path d="M13.5703 13.1906C13.3968 13.2656 13.2421 13.4344 13.1765 13.6078C13.1062 13.7906 13.1062 20.8312 13.1765 21.2156C13.35 22.1719 14.2031 23.025 15.1593 23.1984C15.539 23.2687 20.8359 23.2687 21.2156 23.1984C22.1718 23.025 23.025 22.1719 23.1984 21.2156C23.2687 20.8359 23.2687 15.5391 23.1984 15.1594C23.025 14.2031 22.1718 13.35 21.2156 13.1766C20.7703 13.0969 13.7531 13.1109 13.5703 13.1906ZM21.0656 14.6813C21.314 14.7563 21.6187 15.0609 21.6937 15.3094C21.7359 15.4547 21.75 16.2047 21.75 18.2156C21.75 20.8453 21.7453 20.9344 21.6515 21.1406C21.525 21.4219 21.4406 21.5109 21.164 21.6375L20.9296 21.75H18.2156C16.2046 21.75 15.4546 21.7359 15.3093 21.6937C15.0609 21.6187 14.7562 21.3141 14.6812 21.0656C14.639 20.9203 14.625 20.0859 14.625 17.7469V14.625H17.7468C20.0859 14.625 20.9203 14.6391 21.0656 14.6813Z" fill="#6776FE"/>
</svg>
