<svg width="24" height="23" viewBox="0 0 24 23" fill="none" xmlns="http://www.w3.org/2000/svg">
<path d="M14.4091 0.068861C12.9507 0.387224 11.8235 1.45848 11.4363 2.89111C11.3546 3.18366 11.3374 3.38586 11.3202 4.2334L11.3029 5.23582H9.58636C7.94722 5.23582 7.85687 5.24012 7.69769 5.32186C7.58583 5.37779 7.49549 5.46814 7.43956 5.57999C7.35782 5.73918 7.35352 5.82952 7.35352 7.42994V9.10781H11.7203C14.7619 9.10781 16.1515 9.12071 16.3107 9.15513C17.0464 9.31001 17.6444 9.90802 17.8036 10.648C17.838 10.8115 17.8509 12.2398 17.8509 15.6041C17.8509 20.6463 17.8509 20.6377 17.6401 21.2013C17.5885 21.3347 17.4723 21.567 17.382 21.7176L17.2142 21.9929L19.2018 22.0058C21.4002 22.0187 21.5336 22.0101 21.9896 21.7692C22.4758 21.5154 22.8501 21.0206 22.9662 20.4742C23.0007 20.3108 23.0136 18.2027 23.0136 12.997C23.0136 5.81661 23.0136 5.74778 22.9275 5.57999C22.8716 5.46814 22.7812 5.37779 22.6694 5.32186C22.5102 5.24012 22.4199 5.23582 20.7807 5.23582H19.0641L19.0469 4.2334C19.0297 3.38586 19.0125 3.18366 18.9308 2.89111C18.5651 1.52731 17.5024 0.464664 16.1515 0.111881C15.6525 -0.0171833 14.8867 -0.0386944 14.4091 0.068861ZM15.8031 1.36382C16.2892 1.48859 16.6205 1.67789 16.9905 2.05218C17.3648 2.42217 17.5541 2.75344 17.6788 3.23959C17.752 3.51493 17.7649 3.71714 17.7649 4.40549V5.23582H15.1835H12.6022V4.40549C12.6022 3.4633 12.6624 3.11483 12.912 2.64158C13.0927 2.29741 13.6132 1.77684 13.966 1.58754C14.5339 1.28639 15.1964 1.20895 15.8031 1.36382Z" fill="#6776FE"/>
<path d="M1.3219 10.4889C1.22295 10.5405 1.124 10.6395 1.07237 10.7427C0.986328 10.9105 0.986328 10.9879 0.986328 15.5784C0.986328 18.8954 0.999235 20.3108 1.03365 20.4743C1.19283 21.2143 1.78654 21.808 2.52652 21.9672C2.84488 22.036 14.6932 22.036 15.0201 21.9672C15.7515 21.8123 16.3581 21.2014 16.513 20.4743C16.5474 20.3151 16.5603 18.8309 16.5603 15.5784C16.5603 10.9879 16.5603 10.9105 16.4743 10.7427C16.4184 10.6308 16.328 10.5405 16.2162 10.4846C16.0484 10.3985 15.9795 10.3985 8.76472 10.3985C1.59724 10.4028 1.47678 10.4028 1.3219 10.4889ZM5.8048 13.0659C6.08445 13.2079 6.14898 13.3886 6.14898 14.0253C6.14898 14.9632 6.35549 15.5139 6.92338 16.0774C7.29337 16.4517 7.62464 16.641 8.11079 16.7658C8.5324 16.8734 8.92821 16.8734 9.34982 16.7658C9.83597 16.641 10.1672 16.4517 10.5372 16.0774C11.1051 15.5139 11.3116 14.9632 11.3116 14.0253C11.3116 13.5865 11.3245 13.466 11.3934 13.3326C11.488 13.1476 11.7548 12.9799 11.9527 12.9799C12.1764 12.9799 12.4173 13.1304 12.5206 13.3326C12.6066 13.5004 12.6109 13.5607 12.5894 14.206C12.5722 14.7136 12.5464 14.9847 12.4775 15.2385C12.1161 16.5937 11.0621 17.6521 9.6983 18.0177C9.24657 18.1425 8.30009 18.1554 7.85696 18.0436C6.44153 17.6908 5.34877 16.6238 4.98308 15.2385C4.91855 14.989 4.88843 14.7093 4.87122 14.2146C4.84111 13.4101 4.88413 13.2638 5.17668 13.0874C5.39179 12.9583 5.58109 12.9497 5.8048 13.0659Z" fill="#6776FE"/>
</svg>
