<svg width="22" height="23" viewBox="0 0 22 23" fill="none" xmlns="http://www.w3.org/2000/svg">
<path d="M13.4062 0.0824718C11.9496 0.400442 10.8238 1.47036 10.4371 2.90122C10.3555 3.19341 10.3383 3.39536 10.3211 4.24185L10.3039 5.24302H8.61094C6.99531 5.24302 6.90508 5.24732 6.74609 5.32896C6.63437 5.38482 6.54414 5.47505 6.48828 5.58677C6.40664 5.75005 6.40234 5.83599 6.40234 8.07896V10.3993H3.45898C0.588672 10.3993 0.507031 10.4036 0.34375 10.4852C0.232031 10.5411 0.141797 10.6313 0.0859375 10.743C0 10.9106 0 10.9879 0 15.5727C0 18.8856 0.0128906 20.2993 0.0472656 20.4625C0.20625 21.2016 0.799219 21.7946 1.53828 21.9536C1.86055 22.0223 20.1352 22.0223 20.4617 21.9536C21.1922 21.7989 21.798 21.1887 21.9527 20.4625C21.9871 20.2993 22 18.1336 22 12.9946C22 5.8231 22 5.75435 21.9141 5.58677C21.8582 5.47505 21.768 5.38482 21.6562 5.32896C21.4973 5.24732 21.407 5.24302 19.7699 5.24302H18.0555L18.0383 4.24185C18.0211 3.39536 18.0039 3.19341 17.9223 2.90122C17.557 1.53911 16.4957 0.477785 15.1465 0.125441C14.648 -0.00346565 13.8832 -0.02495 13.4062 0.0824718ZM14.7984 1.37583C15.284 1.50044 15.6148 1.6895 15.9844 2.06333C16.3582 2.43286 16.5473 2.76372 16.6719 3.24927C16.7449 3.52427 16.7578 3.72622 16.7578 4.41372V5.24302H14.1797H11.6016V4.41372C11.6016 3.72622 11.6145 3.52427 11.6875 3.24927C11.8121 2.75943 12.0012 2.43286 12.375 2.05903C13.0367 1.39732 13.9176 1.1481 14.7984 1.37583ZM10.3555 6.9188C10.3555 7.39146 10.4328 7.58052 10.6906 7.72661C10.9012 7.84263 11.0816 7.84692 11.3008 7.73521C11.5586 7.602 11.6445 7.40005 11.6445 6.9188V6.53208H14.2227H16.8008V6.9188C16.8008 7.39146 16.8781 7.58052 17.1359 7.72661C17.3465 7.84263 17.527 7.84692 17.7461 7.73521C18.0039 7.602 18.0898 7.40005 18.0898 6.9188V6.53208H19.4004H20.7109V13.3641C20.7109 20.1317 20.7109 20.2004 20.625 20.368C20.5691 20.4797 20.4789 20.57 20.3672 20.6258C20.2039 20.7075 20.118 20.7118 17.8277 20.7118H15.4602L15.4945 20.5915C15.5117 20.527 15.5332 18.3227 15.5418 15.6973C15.5547 10.9579 15.5547 10.9149 15.4687 10.743C15.4129 10.6313 15.3227 10.5411 15.2109 10.4852C15.0477 10.3993 14.966 10.3993 11.3652 10.3993H7.69141V8.46568V6.53208H9.02344H10.3555V6.9188ZM14.2656 15.9422C14.2656 20.1231 14.2656 20.2004 14.1797 20.368C14.1238 20.4797 14.0336 20.57 13.9219 20.6258C13.7543 20.7118 13.6812 20.7118 7.77734 20.7118C1.87344 20.7118 1.80039 20.7118 1.63281 20.6258C1.52109 20.57 1.43086 20.4797 1.375 20.368C1.28906 20.2004 1.28906 20.1231 1.28906 15.9422V11.6883H7.77734H14.2656V15.9422Z" fill="#AAACAE"/>
<path d="M4.24531 13.0677C4.14219 13.1192 4.04766 13.2181 3.9918 13.3298C3.90586 13.4974 3.90156 13.5575 3.92305 14.2021C3.94023 14.7091 3.96602 14.9798 4.03477 15.2333C4.4043 16.6169 5.4914 17.6825 6.90507 18.0349C7.34765 18.1466 8.29296 18.1337 8.74413 18.0091C10.1062 17.6439 11.159 16.5868 11.5199 15.2333C11.5887 14.9798 11.6144 14.7091 11.6316 14.2021C11.6531 13.5575 11.6488 13.4974 11.5629 13.3298C11.4598 13.1278 11.2191 12.9774 11 12.9774C10.7851 12.9774 10.5402 13.1278 10.4414 13.3212C10.3683 13.463 10.3555 13.5747 10.3555 14.0216C10.3555 14.954 10.1492 15.504 9.58202 16.0712C9.21249 16.445 8.88593 16.6341 8.39609 16.7587C7.97499 16.8661 7.57968 16.8661 7.15859 16.7587C6.68164 16.6384 6.34648 16.445 5.97265 16.0712C5.40547 15.5126 5.19922 14.9583 5.19922 14.0216C5.19922 13.5747 5.18633 13.463 5.11328 13.3212C4.9543 13.0075 4.56758 12.8958 4.24531 13.0677Z" fill="#AAACAE"/>
</svg>
