<svg width="18" height="16" viewBox="0 0 18 16" fill="none" xmlns="http://www.w3.org/2000/svg">
<path fill-rule="evenodd" clip-rule="evenodd" d="M6.50062 4.18757C3.32347 4.18757 0.748047 6.28516 0.748047 8.87311C0.748047 10.2027 1.43075 11.3997 2.52118 12.2513L1.82624 14.5999L5.05141 13.4029C5.51471 13.5008 5.99872 13.5586 6.50062 13.5586C9.67682 13.5586 12.2532 11.4611 12.2532 8.87311C12.2532 6.28516 9.67682 4.18757 6.50062 4.18757ZM6.50062 12.8645C6.07876 12.8645 5.64277 12.8173 5.2049 12.7248C5.15405 12.7141 5.10226 12.7088 5.05141 12.7088C4.9629 12.7088 4.87532 12.7239 4.79246 12.755L2.91385 13.4527L3.21236 12.4427C3.2924 12.1748 3.19823 11.8873 2.97412 11.7129C2.00233 10.9529 1.46653 9.9446 1.46653 8.87311C1.46653 6.67228 3.72462 4.88172 6.50062 4.88172C9.27568 4.88172 11.5338 6.67228 11.5338 8.87311C11.5338 11.0739 9.27568 12.8645 6.50062 12.8645ZM16.5679 5.40234C16.5679 2.81439 13.9924 0.716797 10.8153 0.716797C8.44231 0.716797 6.40551 1.88796 5.52601 3.55838C5.81039 3.52367 6.09853 3.50053 6.39327 3.49697C7.24735 2.25551 8.90937 1.41095 10.8153 1.41095C13.5903 1.41095 15.8484 3.20151 15.8484 5.40234C15.8484 6.47383 15.3136 7.48213 14.3418 8.24125C14.1177 8.41657 14.0235 8.70402 14.1026 8.97189L14.4011 9.98198L12.9152 9.42932C12.886 9.66516 12.8323 9.89387 12.7673 10.119L15.4887 11.1291L14.7938 8.78056C15.8852 7.92888 16.5679 6.73191 16.5679 5.40234Z" fill="white" stroke="white"/>
</svg>
