<svg width="25" height="23" viewBox="0 0 25 23" fill="none" xmlns="http://www.w3.org/2000/svg">
<path d="M0.990827 0.308594C0.502546 0.479492 0.155866 0.870117 0.0484441 1.36328C0.00938164 1.53906 -0.000383985 3.79004 0.00938164 9.10742L0.0240301 16.6025L0.160749 16.8809C0.316999 17.1934 0.551374 17.4229 0.873639 17.5742C1.09337 17.6768 1.15196 17.6768 4.86778 17.6914L8.64219 17.7012V19.5078V21.3145H6.59141C4.62852 21.3145 4.52598 21.3193 4.34532 21.4121C4.12559 21.5244 3.95469 21.8027 3.95469 22.0469C3.95469 22.291 4.12559 22.5693 4.34532 22.6816C4.53575 22.7793 4.61387 22.7793 12.4996 22.7793C20.3854 22.7793 20.4635 22.7793 20.6539 22.6816C20.8736 22.5693 21.0445 22.291 21.0445 22.0469C21.0445 21.8027 20.8736 21.5244 20.6539 21.4121C20.4732 21.3193 20.3707 21.3145 18.4078 21.3145H16.357V19.5078V17.7012L20.1314 17.6914C23.8473 17.6768 23.9059 17.6768 24.1256 17.5742C24.4479 17.4229 24.6822 17.1934 24.8385 16.8809L24.9752 16.6025V8.96094V1.31934L24.8385 1.04102C24.6822 0.728516 24.4479 0.499023 24.1256 0.347656L23.901 0.245117L12.5729 0.235352C1.79649 0.225586 1.23008 0.225586 0.990827 0.308594ZM23.5348 8.96094V16.2363H12.4996H1.46446V8.96094V1.68555H12.4996H23.5348V8.96094ZM14.8922 19.5078V21.3145H12.4996H10.107V19.5078V17.7012H12.4996H14.8922V19.5078Z" fill="#6776FE"/>
</svg>
