<svg width="26" height="26" viewBox="0 0 26 26" fill="none" xmlns="http://www.w3.org/2000/svg">
<path d="M11.6693 0.106602C11.5525 0.16754 11.4357 0.284336 11.3748 0.40621C11.2783 0.594101 11.2732 0.700743 11.2732 2.28512C11.2732 3.86949 11.2783 3.97613 11.3748 4.16402C11.5474 4.50426 11.7505 4.57027 12.5935 4.57027H13.3044V5.58082V6.58629L12.8423 6.74879C12.2939 6.94176 11.6591 7.23121 11.2224 7.48512L10.9025 7.67301L10.3845 7.16519C9.98843 6.77418 9.79038 6.61676 9.51616 6.4898C9.18101 6.3273 9.14038 6.32223 8.5564 6.32223C7.97749 6.32223 7.93179 6.3273 7.60171 6.48472C7.1396 6.70308 6.70289 7.1398 6.48453 7.60191C6.3271 7.93199 6.32203 7.97769 6.32203 8.5566C6.32203 9.13551 6.33218 9.18121 6.48453 9.51129C6.6064 9.77027 6.77398 9.98355 7.15992 10.3796L7.67281 10.9078L7.51539 11.1617C7.26148 11.573 6.91109 12.3703 6.70289 13C5.80406 15.6812 6.12906 18.6773 7.57632 21.125C8.42945 22.5671 9.76499 23.8824 11.2072 24.7C14.0712 26.3199 17.499 26.4265 20.4392 24.9843C23.288 23.5929 25.2837 20.9371 25.8576 17.7734C26.0099 16.9304 26.015 15.2546 25.8576 14.4218C25.6544 13.3199 25.2939 12.2839 24.8013 11.3902L24.5271 10.8976L25.04 10.3746C25.4208 9.98355 25.5884 9.77027 25.7103 9.51129C25.8626 9.18121 25.8728 9.13551 25.8728 8.5566C25.8728 7.97769 25.8677 7.93199 25.7103 7.60191C25.4919 7.1398 25.0552 6.70308 24.5931 6.48472C24.263 6.3273 24.2173 6.32223 23.6384 6.32223C23.0595 6.32223 23.0138 6.33238 22.6837 6.48472C22.4247 6.6066 22.2115 6.77418 21.8154 7.16012L21.2872 7.67301L21.0333 7.51558C20.6677 7.29215 19.8958 6.94176 19.3576 6.75387L18.8904 6.58629V5.58082V4.57027H19.6013C20.4443 4.57027 20.6474 4.50426 20.8201 4.16402C20.9165 3.97613 20.9216 3.86949 20.9216 2.28512C20.9216 0.700743 20.9165 0.594101 20.8201 0.40621C20.754 0.274179 20.6474 0.16754 20.5154 0.101522C20.3224 -4.00543e-05 20.2259 -4.00543e-05 16.0873 -4.00543e-05C11.974 0.00503922 11.8521 0.00503922 11.6693 0.106602ZM19.3982 2.28512V3.04683H16.0974H12.7966V2.28512V1.5234H16.0974H19.3982V2.28512ZM17.3669 5.4234V6.27652L17.0267 6.24097C16.8337 6.21558 16.4173 6.20035 16.0974 6.20035C15.7775 6.20035 15.3611 6.21558 15.1732 6.24097L14.8279 6.27652V5.4234V4.57027H16.0974H17.3669V5.4234ZM17.5142 7.84058C19.256 8.16051 20.7642 8.94254 21.988 10.1562C23.2423 11.4054 24.0244 12.9086 24.3595 14.691C24.4763 15.341 24.4763 16.8543 24.3595 17.5043C24.0294 19.2714 23.2322 20.8 21.988 22.039C20.7845 23.2425 19.256 24.0296 17.504 24.3597C16.8541 24.4765 15.3408 24.4765 14.6908 24.3597C12.9083 24.0246 11.4001 23.2375 10.156 21.9832C7.64234 19.4492 7.01265 15.6304 8.57671 12.416C9.82085 9.86676 12.2787 8.13511 15.1681 7.76949C15.6556 7.70855 17.0064 7.74918 17.5142 7.84058ZM9.01851 7.96754C9.12515 8.04879 9.31304 8.21637 9.43491 8.33824L9.65327 8.56676L9.10484 9.10504L8.56148 9.6484L8.33804 9.43004C7.93687 9.0441 7.82007 8.85113 7.82007 8.56168C7.82007 8.10972 8.10953 7.82027 8.56148 7.82027C8.76968 7.82027 8.86109 7.85074 9.01851 7.96754ZM24.0396 7.91676C24.2681 8.0691 24.3747 8.27222 24.3747 8.56168C24.3747 8.85113 24.258 9.0441 23.8568 9.43512L23.6333 9.6484L23.09 9.10504L22.5466 8.56168L22.7599 8.33824C23.1509 7.93707 23.3439 7.82027 23.6333 7.82027C23.8009 7.82027 23.9431 7.85582 24.0396 7.91676Z" fill="white"/>
<path d="M13.1523 10.4508C13.0559 10.5066 12.9238 10.6387 12.8629 10.7453C12.609 11.2023 10.0039 17.5246 10.0039 17.6871C10.0039 17.9258 10.1613 18.1898 10.3898 18.3168C10.5879 18.4285 10.6082 18.4336 12.6598 18.4336C14.6098 18.4336 14.7316 18.4387 14.7063 18.5199C14.6047 18.8449 13.9141 21.7648 13.9141 21.8664C13.9141 22.0898 14.107 22.3844 14.3203 22.4961C14.5793 22.6281 14.8078 22.623 15.0414 22.4808C15.2699 22.3437 22.1813 15.2344 22.3031 15.0109C22.491 14.6656 22.3438 14.1984 21.9883 14.0156C21.8004 13.9191 21.6938 13.914 19.9316 13.914C18.9109 13.914 18.0781 13.9039 18.0781 13.8887C18.0781 13.8734 18.4844 13.3504 18.9871 12.7258C19.4848 12.1062 19.9316 11.5222 19.9773 11.4359C20.1551 11.0957 20.0027 10.6387 19.6523 10.4609C19.4594 10.3644 19.3578 10.3594 16.3922 10.3594C13.5078 10.3594 13.3199 10.3644 13.1523 10.4508ZM17.6719 11.9082C17.6719 11.9234 17.2656 12.4465 16.7629 13.0711C16.2652 13.6906 15.8184 14.2746 15.7727 14.3609C15.666 14.5742 15.6711 14.7926 15.793 15.0312C15.9859 15.407 16.0012 15.407 18.0121 15.4375L19.7996 15.4629L17.9664 17.357C16.9609 18.398 16.123 19.241 16.1129 19.2258C16.1027 19.2156 16.1738 18.8855 16.2754 18.4945C16.4836 17.6566 16.4887 17.5601 16.3363 17.2961C16.118 16.9101 16.123 16.9101 13.9039 16.9101C12.8172 16.9101 11.9336 16.9 11.9336 16.8847C11.9336 16.8644 13.4621 13.193 13.9445 12.0453L14.0156 11.8828H15.8438C16.8492 11.8828 17.6719 11.893 17.6719 11.9082Z" fill="white"/>
<path d="M1.91953 12.3957C1.70117 12.5074 1.52344 12.807 1.52344 13.0508C1.52344 13.3047 1.70117 13.5941 1.92969 13.7109C2.1125 13.8023 2.22422 13.8125 3.30078 13.8125C4.37734 13.8125 4.48906 13.8023 4.67188 13.7109C4.90039 13.5941 5.07812 13.3047 5.07812 13.0508C5.07812 12.7969 4.90039 12.5074 4.67188 12.3906C4.48906 12.2992 4.37734 12.2891 3.29062 12.2891C2.21406 12.2941 2.09219 12.3043 1.91953 12.3957Z" fill="white"/>
<path d="M0.396094 15.4426C0.177734 15.5543 0 15.8539 0 16.0977C0 16.3516 0.177734 16.641 0.40625 16.7578C0.594141 16.8543 0.700781 16.8594 2.53906 16.8594C4.37734 16.8594 4.48398 16.8543 4.67188 16.7578C4.90039 16.641 5.07812 16.3516 5.07812 16.0977C5.07812 15.8438 4.90039 15.5543 4.67188 15.4375C4.48398 15.341 4.37734 15.3359 2.52891 15.3359C0.690625 15.341 0.573828 15.3461 0.396094 15.4426Z" fill="white"/>
<path d="M1.91953 18.4895C1.70117 18.6012 1.52344 18.9008 1.52344 19.1445C1.52344 19.3984 1.70117 19.6879 1.92969 19.8047C2.1125 19.8961 2.22422 19.9062 3.30078 19.9062C4.37734 19.9062 4.48906 19.8961 4.67188 19.8047C4.90039 19.6879 5.07812 19.3984 5.07812 19.1445C5.07812 18.8906 4.90039 18.6012 4.67188 18.4844C4.48906 18.393 4.37734 18.3828 3.29062 18.3828C2.21406 18.3879 2.09219 18.398 1.91953 18.4895Z" fill="white"/>
</svg>
