<svg width="34" height="34" viewBox="0 0 34 34" fill="none" xmlns="http://www.w3.org/2000/svg">
<path d="M16.7541 0.0398521C16.6678 0.0796967 0.544322 12.657 0.252135 12.916C0.0396345 13.1086 -0.0334124 13.3344 0.0329939 13.5934C0.0794782 13.7992 2.4369 16.2164 2.73573 16.3758C2.96815 16.4953 3.14745 16.4953 3.38651 16.3691L3.58573 16.2629V24.4707V32.6719H2.05838C0.863072 32.6719 0.484556 32.6918 0.338463 32.7648C-0.0998186 32.9973 -0.0998186 33.6746 0.338463 33.907C0.617369 34.0465 33.3822 34.0465 33.6611 33.907C34.0994 33.6746 34.0994 32.9973 33.6611 32.7648C33.515 32.6918 33.1365 32.6719 31.9412 32.6719H30.4139V29.5176C30.4139 26.1375 30.4072 26.1043 30.0752 25.925C29.8428 25.8055 29.6568 25.8055 29.4244 25.925C29.0924 26.1043 29.0857 26.1375 29.0857 29.5176V32.6719H18.5935H8.10135V29.4844C8.10135 26.0711 8.10135 26.0379 7.76268 25.8586C7.53026 25.7391 7.34432 25.7391 7.1119 25.8586C6.77323 26.0379 6.77323 26.0711 6.77323 29.4844V32.6719H5.84354H4.91385L4.92713 23.9262L4.94706 15.1871L10.9767 10.4789L16.9998 5.77071L23.0295 10.4789L29.0525 15.1805L29.0857 18.4609C29.1057 20.2672 29.1455 21.8012 29.1787 21.8676C29.2451 22.007 29.5572 22.1797 29.7498 22.1797C29.9689 22.1797 30.2478 22.007 30.3342 21.8145C30.3939 21.6883 30.4139 20.8981 30.4139 18.9524V16.2629L30.6131 16.3691C30.8389 16.4887 31.0314 16.4953 31.2307 16.3957C31.4365 16.2895 33.7873 13.9453 33.9068 13.7328C34.0463 13.4606 34.0197 13.2414 33.8072 13.0023C33.701 12.8828 32.7447 12.1125 31.6889 11.2891L29.7564 9.79493V6.39493C29.7498 3.9047 29.7299 2.94844 29.6701 2.82227C29.5107 2.47032 29.3978 2.45704 27.16 2.45704C24.9818 2.45704 24.8025 2.47696 24.6631 2.76915C24.6299 2.83555 24.59 3.52618 24.5701 4.29649L24.5369 5.71095L23.7068 5.06016C20.4529 2.50352 17.4115 0.139462 17.2853 0.0796967C17.1392 7.62939e-06 16.9002 -0.0132713 16.7541 0.0398521ZM24.4107 7.29141C28.4682 10.459 31.9014 13.1418 32.0475 13.2613L32.3064 13.4738L31.6092 14.1711C31.2307 14.5563 30.892 14.875 30.8654 14.875C30.8455 14.875 27.7775 12.4977 24.0654 9.59571C20.3201 6.67384 17.2189 4.30313 17.1193 4.28321C17.0131 4.25665 16.8537 4.27657 16.7541 4.32969C16.6478 4.38282 13.5533 6.77345 9.8744 9.64884C6.19549 12.5242 3.16073 14.875 3.13417 14.875C3.1076 14.875 2.77557 14.5629 2.39042 14.1777C1.94549 13.7328 1.71971 13.4606 1.75956 13.4207C1.88573 13.3012 16.9666 1.52735 16.9998 1.52735C17.0197 1.52735 20.3533 4.12384 24.4107 7.29141ZM28.4217 6.24883C28.4217 8.19454 28.4017 8.69923 28.342 8.65938C28.2955 8.62618 27.7244 8.19454 27.0803 7.68321L25.8982 6.7668V5.27266V3.78516H27.16H28.4217V6.24883Z" fill="white"/>
<path d="M10.2992 14.5695C9.95387 14.7621 9.96715 14.4965 9.96051 21.5023C9.96051 28.5945 9.94723 28.3023 10.3257 28.475C10.4519 28.5348 12.0988 28.5547 17.0062 28.5547C24.0785 28.5547 23.7863 28.568 23.9589 28.1895C24.0718 27.9371 24.0718 15.0941 23.9589 14.8418C23.7863 14.4633 24.0785 14.4766 16.9863 14.4766C11.6937 14.4832 10.4253 14.4965 10.2992 14.5695ZM16.3355 18.3281V20.8516H13.8121H11.2886V18.3281V15.8047H13.8121H16.3355V18.3281ZM22.7105 18.3281V20.8516H20.1871H17.6636V18.3281V15.8047H20.1871H22.7105V18.3281ZM16.3355 24.7031V27.2266H13.8121H11.2886V24.7031V22.1797H13.8121H16.3355V24.7031ZM22.7105 24.7031V27.2266H20.1871H17.6636V24.7031V22.1797H20.1871H22.7105V24.7031Z" fill="#6776FE"/>
<path d="M7.00565 23.3285C6.89276 23.4215 6.81971 23.5676 6.79315 23.7469C6.75995 23.9859 6.78651 24.0523 6.95916 24.2449C7.12518 24.4309 7.20487 24.4707 7.43729 24.4707C7.66971 24.4707 7.7494 24.4309 7.91542 24.2449C8.08807 24.0523 8.11464 23.9859 8.08143 23.7469C8.03495 23.3883 7.78924 23.1758 7.43729 23.1758C7.26463 23.1758 7.11854 23.2289 7.00565 23.3285Z" fill="#6776FE"/>
<path d="M29.4243 23.6008C28.8465 23.9195 29.0922 24.8359 29.7496 24.8359C30.0883 24.8359 30.4137 24.5106 30.4137 24.1785C30.4137 23.6805 29.8625 23.3551 29.4243 23.6008Z" fill="#6776FE"/>
</svg>
