<svg width="30" height="34" viewBox="0 0 30 34" fill="none" xmlns="http://www.w3.org/2000/svg">
<path d="M10.6504 0.0663948C9.33555 0.33202 8.27305 1.38788 7.9875 2.716C7.92773 3.02147 7.89453 3.62577 7.89453 4.68163C7.89453 6.80663 8.01406 7.27811 8.70469 8.01522C9.0832 8.40702 9.42852 8.62616 9.92656 8.79218C10.232 8.89178 10.7234 8.89843 14.907 8.88514L19.5555 8.86522L20.0602 8.61288C20.6645 8.31405 21.1027 7.86913 21.4016 7.23827L21.6074 6.80663L21.6274 4.86093C21.6473 3.20741 21.634 2.8621 21.541 2.53671C21.1824 1.30819 20.2395 0.385145 19.0441 0.0995979C18.6922 0.0199108 17.9883 -1.14441e-05 14.7676 0.00662899C12.6492 0.0132694 10.7965 0.0398321 10.6504 0.0663948ZM19.1902 1.33475C19.6484 1.55389 20.0469 1.93905 20.2926 2.40389C20.4586 2.72264 20.4785 2.82889 20.4984 3.63241L20.525 4.51561H14.7676H9.01016L9.03672 3.69882C9.05664 3.00819 9.08984 2.83554 9.2293 2.52343C9.4418 2.05858 9.75391 1.70663 10.1324 1.48085C10.7301 1.12889 10.6836 1.13554 14.9004 1.14882L18.8184 1.1621L19.1902 1.33475ZM20.5117 5.98983C20.5117 6.72694 20.1996 7.26483 19.5887 7.58358L19.2367 7.76952H14.8539C11.6797 7.76952 10.3914 7.7496 10.2055 7.68983C9.8668 7.59022 9.40195 7.1785 9.2293 6.81991C9.08984 6.52108 8.98359 5.91678 9.04336 5.74413C9.0832 5.6578 9.71406 5.64452 14.8008 5.64452H20.5117V5.98983Z" fill="white"/>
<path d="M8.08047 9.90117L7.87461 10.1004L7.91445 11.475C7.94102 12.657 7.96758 12.9426 8.11367 13.4871C8.43242 14.7223 9.03008 15.7648 9.9332 16.6613C10.2387 16.9668 10.4777 17.2258 10.4711 17.2324C10.4578 17.2391 9.00352 17.7902 7.23047 18.4609C5.45742 19.125 3.87695 19.7492 3.71094 19.8422C3.19297 20.1344 2.64844 20.5992 2.33633 21.0109C1.77852 21.748 1.63242 22.1664 0.975 24.8359L0.357422 27.3262V28.2227C0.364063 29.0195 0.377344 29.1723 0.536719 29.6238C0.789062 30.3477 1.14766 30.9121 1.65898 31.4234C2.16367 31.9215 2.96719 32.4062 3.29258 32.4062C3.69102 32.4062 3.95664 31.9547 3.7707 31.616C3.71758 31.523 3.47852 31.3371 3.24609 31.2109C2.43594 30.766 1.81836 29.9891 1.55273 29.0594C1.34688 28.3621 1.42656 27.7512 2.07734 25.1016C2.75469 22.3191 2.86758 22.027 3.56484 21.3762C3.81055 21.1437 4.14922 20.8848 4.31523 20.8051C4.47461 20.7254 6.20781 20.0547 8.16016 19.3242L11.7063 17.9895L12.2043 18.182C12.9016 18.4609 13.4328 18.5871 14.15 18.6535C17.2645 18.9457 20.266 16.9867 21.282 13.9984C21.5609 13.175 21.6406 12.5641 21.6406 11.2625C21.6406 10.1402 21.634 10.0406 21.5078 9.90781C21.3219 9.70859 21.0563 9.65547 20.8504 9.76836C20.5516 9.93437 20.5117 10.1137 20.5117 11.2691C20.5117 12.7633 20.3391 13.5668 19.8078 14.5363C19.157 15.725 18.1078 16.6547 16.8328 17.1594C16.1688 17.425 15.591 17.5312 14.7609 17.5312C12.5895 17.5312 10.6238 16.316 9.6543 14.377C9.17617 13.4207 9.0832 12.9426 9.04336 11.3621C9.01016 10.0539 9.00352 10.0008 8.85078 9.84805C8.63164 9.6289 8.33281 9.64219 8.08047 9.90117Z" fill="white"/>
<path d="M12.4035 9.88786C12.2176 10.0738 12.2109 10.107 12.2109 10.7113C12.2109 11.2957 12.2242 11.3621 12.3836 11.548C12.6027 11.8136 12.9348 11.8336 13.1738 11.5879C13.3266 11.4351 13.3398 11.382 13.3398 10.7246C13.3398 10.0672 13.3266 10.014 13.1738 9.8613C12.948 9.62888 12.6559 9.64216 12.4035 9.88786Z" fill="white"/>
<path d="M16.3879 9.88789C16.202 10.0738 16.1953 10.107 16.1953 10.6914C16.1953 11.4949 16.3348 11.7473 16.7797 11.7539C16.9258 11.7539 17.052 11.7008 17.1582 11.5879C17.3109 11.4352 17.3242 11.382 17.3242 10.7246C17.3242 10.0672 17.3109 10.0141 17.1582 9.86133C16.9324 9.62891 16.6402 9.64219 16.3879 9.88789Z" fill="white"/>
<path d="M21.3417 18.2949C21.1292 18.5008 21.1292 18.7996 21.3285 19.0187C21.4347 19.1383 22.039 19.3973 23.5331 19.9617C24.6687 20.3867 25.7445 20.8316 25.9238 20.9512C26.4019 21.2566 26.9265 21.8477 27.1523 22.3258C27.2785 22.5914 27.564 23.6539 27.9492 25.2344C28.6 27.9371 28.6531 28.3688 28.4406 29.0926C28.175 29.9957 27.5507 30.7727 26.7539 31.2109C26.5214 31.3371 26.2824 31.523 26.2292 31.616C26.0433 31.948 26.3089 32.4062 26.6941 32.4062C27.0328 32.4062 27.7898 31.9613 28.3144 31.45C28.8523 30.9187 29.2042 30.3609 29.4632 29.6238C29.6226 29.1723 29.6359 29.0195 29.6425 28.2227V27.3262L29.025 24.8359C28.3675 22.1664 28.2148 21.7414 27.6636 21.0176C27.3316 20.5793 26.9531 20.2406 26.4351 19.9219C26.0035 19.6629 21.966 18.1289 21.6937 18.1289C21.5808 18.1289 21.4347 18.1953 21.3417 18.2949Z" fill="white"/>
<path d="M9.35547 20.4465C8.87734 20.5926 8.50547 20.918 8.33281 21.3297C8.23984 21.5488 8.22656 22.266 8.22656 27.2066C8.22656 32.5125 8.2332 32.8512 8.35273 33.1035C8.50547 33.4422 8.94375 33.8406 9.26914 33.9269C9.62109 34.0266 20.3789 34.0266 20.7309 33.9269C21.0562 33.8406 21.4945 33.4422 21.6473 33.1035C21.7668 32.8512 21.7734 32.5125 21.7734 27.2066C21.7734 21.0508 21.7867 21.3164 21.3883 20.898C21.2887 20.7918 21.0894 20.639 20.9433 20.566C20.6844 20.4265 20.598 20.4199 18.068 20.4L15.4582 20.3801L15.2656 20.5793C15.0133 20.8316 15 21.1238 15.2324 21.3496L15.3918 21.5156H17.8687C20.007 21.5156 20.3723 21.5289 20.4984 21.6219L20.6445 21.7215V27.1867C20.6445 32.3996 20.6379 32.6586 20.525 32.7582C20.4121 32.8644 19.934 32.8711 14.9867 32.8711C9.82695 32.8711 9.56797 32.8644 9.46836 32.7516C9.36211 32.6387 9.35547 32.1539 9.35547 27.1734V21.7148L9.51484 21.6152C9.64101 21.5289 9.88672 21.5156 10.9891 21.5289L12.3105 21.5488L12.3437 23.1426C12.3637 24.2117 12.4035 24.7828 12.4566 24.8758C12.5961 25.1215 12.9945 25.4269 13.2801 25.5C13.6586 25.5996 13.9375 25.5398 14.5086 25.2277L14.9801 24.9687L15.4383 25.2277C15.6906 25.3738 16.0027 25.5066 16.1355 25.5332C16.4676 25.593 16.8859 25.4668 17.1648 25.2211C17.5633 24.8691 17.6164 24.7031 17.623 23.7933C17.623 23.0297 17.6164 22.9765 17.4637 22.8172C17.2445 22.5781 16.8793 22.5781 16.6601 22.8105C16.5207 22.9633 16.4941 23.0562 16.4742 23.6273C16.4609 23.9793 16.441 24.3113 16.4211 24.3578C16.4012 24.4242 16.2551 24.3711 15.8766 24.1652C15.4316 23.9195 15.3121 23.8797 14.9668 23.8797C14.6148 23.8797 14.5086 23.9129 14.0836 24.1586C13.818 24.318 13.5723 24.4242 13.5391 24.4043C13.4992 24.3777 13.4727 23.7004 13.4727 22.6379C13.4727 20.7586 13.4394 20.5793 13.1008 20.4531C12.9016 20.3734 9.60117 20.3734 9.35547 20.4465Z" fill="#6776FE"/>
</svg>
