<svg width="34" height="35" viewBox="0 0 34 35" fill="none" xmlns="http://www.w3.org/2000/svg">
<path d="M19.1252 0.0334225C19.0721 0.0467863 18.7998 0.0935602 18.5275 0.133652C16.8143 0.414296 15.1143 1.47673 14.0053 2.96014C13.4939 3.6417 12.9959 4.67073 12.7701 5.51267C12.6107 6.11405 12.5908 6.29446 12.5908 7.35022C12.5908 8.40597 12.6107 8.58639 12.7701 9.18777C13.3146 11.2391 14.7291 12.9898 16.6018 13.9454C17.1596 14.2327 18.0893 14.5334 18.74 14.6336C19.4838 14.7539 20.9381 14.6871 21.6486 14.5C22.9236 14.1592 23.9463 13.5845 24.9158 12.6424C25.892 11.7002 26.5893 10.5041 26.9412 9.18777C27.1006 8.58639 27.1205 8.40597 27.1205 7.35022C27.1205 6.30114 27.1006 6.11405 26.9412 5.53271C26.2174 2.80645 24.0791 0.748397 21.3564 0.16038C20.9248 0.0668325 19.3576 -0.0267162 19.1252 0.0334225ZM21.3498 1.53687C23.8932 2.19839 25.6861 4.43018 25.8123 7.08294C26.0182 11.4396 21.7217 14.5334 17.651 12.9564C15.8381 12.2481 14.4037 10.5375 14.0053 8.58639C13.3279 5.29216 15.4795 2.06475 18.7732 1.43664C19.4705 1.303 20.6459 1.34978 21.3498 1.53687Z" fill="white"/>
<path d="M19.3771 2.78637C19.1314 2.94006 19.0584 3.14052 19.0584 3.6684C19.0584 4.11609 19.0517 4.12946 18.8525 4.20964C18.7396 4.25642 18.5072 4.43683 18.3346 4.61056C17.3584 5.55941 17.6174 7.1965 18.8392 7.81124C18.992 7.88474 19.324 7.97829 19.5697 8.01838C19.9482 8.06516 20.0545 8.11193 20.2072 8.28566C20.4064 8.51285 20.433 8.73336 20.2869 9.02069C20.0478 9.48843 19.4369 9.46838 18.992 8.98728C18.6135 8.57967 18.1685 8.52622 17.8564 8.86032C17.6307 9.10087 17.6439 9.45502 17.8896 9.77575C18.0822 10.0297 18.806 10.5575 18.9588 10.5575C19.0185 10.5575 19.0517 10.7179 19.065 11.1322C19.0916 11.6601 19.1049 11.7135 19.2775 11.8672C19.4037 11.9741 19.5432 12.0276 19.7225 12.0276C19.9017 12.0276 20.0412 11.9741 20.1674 11.8672C20.34 11.7202 20.3533 11.6601 20.3732 11.1389C20.3998 10.611 20.4131 10.5642 20.5459 10.5308C20.6322 10.5108 20.8381 10.3705 21.0107 10.2168C22.299 9.07414 21.7014 6.99604 20.008 6.73544C19.4435 6.64857 19.2709 6.56839 19.1514 6.33452C18.9986 6.04051 19.0385 5.82 19.2842 5.57277C19.6096 5.24535 19.9549 5.28544 20.4728 5.71977C20.9443 6.11401 21.6814 5.67968 21.5486 5.0783C21.4955 4.84443 21.0904 4.45688 20.6853 4.2631L20.3865 4.11609V3.65504C20.3865 3.1472 20.2736 2.86656 20.008 2.74628C19.7889 2.64605 19.5896 2.65942 19.3771 2.78637Z" fill="#6776FE"/>
<path d="M30.6066 14.3529C30.0887 14.5267 29.75 14.7806 28.9863 15.5824C28.6211 15.9566 27.6848 16.9255 26.9078 17.7273L25.4934 19.1907L25.1945 18.9101C24.8094 18.5492 24.2781 18.3087 23.7203 18.2352C23.4746 18.2085 21.6352 18.1817 19.6297 18.175H15.984L15.3664 17.9746C14.4301 17.6739 13.7063 17.567 12.6172 17.567C10.7445 17.567 9.23711 18.0013 7.78281 18.9502C7.03906 19.4379 6.03633 20.4469 5.5582 21.1886L5.18633 21.7633L4.72148 21.7967C3.93125 21.8568 3.80508 21.9504 1.84609 23.9216L0.0664062 25.7057V26.0197V26.3405L3.89141 30.2294C5.99648 32.3609 7.78281 34.145 7.8625 34.1918C8.04844 34.2987 8.26758 34.2987 8.48672 34.1851C8.58633 34.1317 9.46289 33.2831 10.4324 32.2941C12.4512 30.2494 12.4512 30.2427 12.4113 29.2805L12.3848 28.766L12.8895 28.2983C13.693 27.5432 13.2746 27.5967 18.7266 27.5967C21.602 27.5967 23.6273 27.5699 23.966 27.5299C25.0816 27.3828 26.2172 26.8951 27.0738 26.1801C27.5652 25.7725 33.648 18.429 33.8406 18.008C33.9801 17.7207 34 17.567 34 16.9055C34 16.1972 33.9867 16.1036 33.8141 15.7361C33.5551 15.1949 33.1035 14.7405 32.5523 14.4799C31.9813 14.2126 31.191 14.1592 30.6066 14.3529ZM32.0344 15.7227C32.466 15.97 32.6918 16.3108 32.725 16.7585C32.7449 17.0124 32.7184 17.2262 32.652 17.3866C32.5258 17.6873 26.9277 24.4561 26.3301 25.0308C25.8453 25.4985 25.2277 25.846 24.5039 26.0665C24.0125 26.2202 23.966 26.2202 18.8262 26.2603C15.2402 26.287 13.5801 26.3204 13.434 26.3739C12.9758 26.5342 12.418 26.8884 11.973 27.296L11.5082 27.7236L8.91172 25.1043L6.30859 22.4849L6.62734 21.9838C7.90234 19.9925 10.0141 18.9034 12.6039 18.9034C13.6199 18.9034 14.2574 19.0036 15.0477 19.2909L15.5723 19.478L19.6562 19.5114C23.727 19.5449 23.7402 19.5449 24.0191 19.6919C24.9754 20.2064 24.9754 21.5561 24.0191 22.0707C23.7469 22.2177 23.6938 22.2177 20.6988 22.2511L17.6508 22.2845L17.4914 22.4716C17.2656 22.7389 17.2789 23.0596 17.5246 23.3336L17.7172 23.5541L20.4863 23.5741C23.448 23.5942 23.966 23.5607 24.5305 23.3001C25.4535 22.8725 26.1707 21.7031 26.091 20.7543C26.0711 20.5338 26.1773 20.4068 28.309 18.1951C29.6305 16.832 30.6664 15.8096 30.8258 15.7161C31.191 15.5156 31.6824 15.5156 32.0344 15.7227ZM8.11484 26.1734L11.0898 29.1669V29.4676V29.7683L9.66875 31.1849C8.88516 31.9667 8.22109 32.6082 8.18789 32.6082C8.16133 32.6082 6.66719 31.1315 4.88086 29.334L1.62695 26.0598L3.10117 24.5764L4.57539 23.0997L4.8543 23.1398C5.12656 23.1732 5.2793 23.3202 8.11484 26.1734Z" fill="white"/>
<path d="M14.8684 22.2177C14.5165 22.4114 14.4633 22.9193 14.7555 23.2333C15.0411 23.5407 15.5856 23.4806 15.7715 23.1131C16.0969 22.4783 15.486 21.8769 14.8684 22.2177Z" fill="#6776FE"/>
</svg>
