<svg width="28" height="34" viewBox="0 0 28 34" fill="none" xmlns="http://www.w3.org/2000/svg">
<path d="M12.9773 0.106274C11.9613 0.351978 10.9852 1.11565 10.5469 2.00549L10.3277 2.45706H8.99297C7.14688 2.45706 7.09375 2.49026 7.09375 3.75862V4.44924H5.42031C4.17188 4.44924 3.63398 4.47581 3.32188 4.54885C2.04688 4.85432 0.984375 5.91682 0.725391 7.15862C0.672266 7.41096 0.652344 10.9836 0.652344 19.4172C0.652344 31.0914 0.652344 31.3371 0.785156 31.7555C1.11719 32.8246 2.04023 33.6281 3.26211 33.9004C3.68711 33.9934 4.84258 34 14.2324 33.9867L24.7246 33.9668L25.1695 33.7942C25.9863 33.4754 26.7035 32.891 27.0156 32.2801C27.3676 31.5828 27.3477 32.2934 27.3477 19.3906C27.3477 6.3551 27.3676 7.14534 26.9691 6.30862C26.7367 5.82385 25.973 5.06682 25.475 4.82776C24.791 4.50237 24.4125 4.44924 22.5863 4.44924H20.9062V3.75862C20.9062 2.94846 20.8531 2.76917 20.5609 2.58987C20.3617 2.47034 20.2223 2.45706 18.9672 2.45706H17.5926L17.3801 2.00549C17.0879 1.4012 16.384 0.697292 15.7797 0.405102C14.9762 0.0265884 13.8207 -0.0995827 12.9773 0.106274ZM14.8633 1.72659C15.5273 2.06526 15.9059 2.51682 16.1051 3.18752C16.3375 3.99768 16.457 4.05081 18.0441 4.05081H19.2461V5.67776V7.30471H14H8.75391V5.6844V4.05745L9.97578 4.03753C11.4434 4.01096 11.4766 3.99768 11.7488 3.28049C12.0012 2.60315 12.1008 2.43713 12.4727 2.1051C12.9574 1.66682 13.3691 1.52073 14.0332 1.54729C14.425 1.56721 14.6441 1.6137 14.8633 1.72659ZM7.10703 7.18518C7.12695 8.24768 7.14023 8.34729 7.27305 8.53987C7.35273 8.65276 7.50547 8.78557 7.60508 8.82541C7.74453 8.87854 9.45781 8.89846 14.0797 8.88518L20.3617 8.86526L20.541 8.69924C20.8598 8.40705 20.9062 8.19456 20.9062 7.06565V6.02971L22.6195 6.05627L24.3262 6.0762L24.7047 6.26213C25.1098 6.46135 25.3355 6.68713 25.5746 7.13206L25.7207 7.40432L25.7406 19.1914C25.7539 28.3422 25.7406 31.0449 25.6742 31.2774C25.5746 31.6559 25.1562 32.0809 24.718 32.2469C24.4059 32.3664 24.0406 32.3731 14.1727 32.393C3.05625 32.4129 3.51445 32.4262 2.9168 32.0477C2.60469 31.8485 2.41875 31.6028 2.31914 31.2442C2.25938 31.0449 2.24609 27.9903 2.25938 19.1914C2.2793 7.82932 2.28594 7.39768 2.40547 7.1719C2.72422 6.5676 3.14922 6.22229 3.71367 6.11604C3.87305 6.08284 4.69648 6.05627 5.54648 6.04963L7.08047 6.04299L7.10703 7.18518Z" fill="white"/>
<path d="M9.98258 11.4485C9.87633 11.5016 9.19899 12.0993 8.48844 12.7766C7.77789 13.4539 7.1736 14.0118 7.15367 14.0118C7.12711 14.0118 6.87477 13.766 6.58922 13.4606C5.93844 12.7766 5.80563 12.6836 5.44703 12.6836C4.95563 12.6836 4.63688 13.1219 4.73649 13.6598C4.76969 13.859 4.95563 14.0848 5.74586 14.8817C6.27711 15.4196 6.79508 15.8977 6.90797 15.9442C7.29977 16.1035 7.47906 15.984 9.25211 14.3039C10.8658 12.7766 11.1447 12.4645 11.1447 12.1856C11.1447 11.9532 10.9123 11.6012 10.6732 11.475C10.4076 11.3356 10.2548 11.3289 9.98258 11.4485Z" fill="#6776FE"/>
<path d="M12.8313 13.4539C12.5656 13.5801 12.4062 13.8656 12.4062 14.2109C12.4062 14.5895 12.7184 14.9082 13.1434 14.9746C13.3027 14.9945 15.5273 15.0078 18.084 14.9945C23.1441 14.9746 22.925 14.9879 23.1641 14.5895C23.4098 14.1977 23.3035 13.766 22.9051 13.5004L22.6793 13.3477H17.8582C13.7012 13.3477 13.0105 13.3676 12.8313 13.4539Z" fill="#6776FE"/>
<path d="M9.91608 17.943C9.84303 17.9828 9.19889 18.5805 8.4817 19.2711L7.18014 20.5196L6.56256 19.8887C5.91842 19.2313 5.65279 19.0786 5.30748 19.1582C4.9024 19.2446 4.6235 19.7293 4.72975 20.161C4.77623 20.3403 6.52272 22.2129 6.77506 22.359C6.96764 22.4653 7.35279 22.4653 7.53209 22.359C7.82428 22.193 10.9985 19.1118 11.0782 18.9192C11.1911 18.6469 11.0715 18.2618 10.8059 18.036C10.5868 17.85 10.1618 17.8036 9.91608 17.943Z" fill="#6776FE"/>
<path d="M12.8315 19.9219C12.287 20.141 12.267 21.0707 12.8049 21.3496C13.0971 21.5024 22.5401 21.5024 22.8588 21.3496C23.2573 21.157 23.41 20.6656 23.1975 20.2539C22.985 19.8422 23.1842 19.8555 17.8385 19.8621C15.1623 19.8621 12.9045 19.8887 12.8315 19.9219Z" fill="#6776FE"/>
<path d="M9.98258 24.4043C9.87633 24.4508 9.19899 25.0484 8.48844 25.7258C7.77789 26.4031 7.1736 26.9609 7.15367 26.9609C7.13375 26.9609 6.88141 26.7152 6.58922 26.4098C5.92516 25.7191 5.79899 25.6328 5.44703 25.6328C4.95563 25.6328 4.63688 26.0711 4.73649 26.609C4.76969 26.8082 4.95563 27.034 5.74586 27.8309C6.27711 28.3687 6.79508 28.8469 6.90797 28.8934C7.30641 29.0594 7.47906 28.9332 9.25211 27.2531C10.8658 25.7258 11.1447 25.4137 11.1447 25.1348C11.1447 24.9023 10.9123 24.5504 10.6732 24.4242C10.4076 24.2848 10.2548 24.2781 9.98258 24.4043Z" fill="#6776FE"/>
<path d="M12.8977 26.3633C12.8247 26.3898 12.6786 26.5094 12.5856 26.6289C12.2138 27.0672 12.4329 27.7313 12.9907 27.8906C13.3626 27.9902 22.4602 27.977 22.7657 27.8707C22.8919 27.8242 23.0579 27.6914 23.1442 27.5652C23.4099 27.1668 23.3169 26.7285 22.9052 26.4496L22.6794 26.2969L17.8583 26.3035C15.2087 26.3035 12.9774 26.3301 12.8977 26.3633Z" fill="#6776FE"/>
</svg>
