<svg width="19" height="19" viewBox="0 0 19 19" fill="none" xmlns="http://www.w3.org/2000/svg">
<path fill-rule="evenodd" clip-rule="evenodd" d="M3.26147 13.871C3.10191 13.7063 3.02213 13.4773 3.04188 13.2451L3.32985 9.97451C3.36176 9.61608 3.51524 9.27804 3.76294 9.02235L10.5981 1.96666C11.1315 1.41372 12.0987 1.44117 12.6618 2.02078L14.7421 4.16823L14.7429 4.16902C15.3241 4.7698 15.3477 5.7251 14.7945 6.29764L7.95857 13.3541C7.71164 13.609 7.38416 13.7674 7.03617 13.8004L3.86779 14.0976C3.845 14.0992 3.8222 14.1 3.79865 14.1C3.59882 14.1 3.40507 14.0184 3.26147 13.871ZM12.1709 6.78941L10.1232 4.67568L11.6033 3.14706L13.6502 5.26L12.1709 6.78941ZM6.89862 12.2373L4.63669 12.4498L4.83727 10.1314L9.10509 5.72588L11.1535 7.84117L6.89862 12.2373ZM14.4359 17.2373C14.8538 17.2373 15.1957 16.8843 15.1957 16.4529C15.1957 16.0223 14.8538 15.6686 14.4359 15.6686H3.79862C3.38149 15.6686 3.03882 16.0223 3.03882 16.4529C3.03882 16.8843 3.38149 17.2373 3.79862 17.2373H14.4359Z" fill="white"/>
</svg>
