<svg width="19" height="25" viewBox="0 0 19 25" fill="none" xmlns="http://www.w3.org/2000/svg">
<path d="M1.74148 0.0537109C1.17996 0.161133 0.584254 0.595703 0.301051 1.1084C0.0129656 1.61621 0.0276141 1.04004 0.0276141 12.0654C0.0276141 23.1396 0.00808284 22.4072 0.301051 22.7881C0.369411 22.8809 0.530543 23.0127 0.662379 23.0859L0.896754 23.2178L0.916285 23.6816C0.930934 23.9795 0.965114 24.1992 1.01394 24.292C1.12625 24.502 1.38015 24.7461 1.60964 24.8682L1.80984 24.9756H9.50027H17.1907L17.3909 24.8682C17.6204 24.7461 17.8743 24.502 17.9866 24.292C18.0354 24.1992 18.0696 23.9795 18.0842 23.6816L18.1038 23.2178L18.3382 23.0859C18.47 23.0127 18.6311 22.8809 18.6995 22.7881C18.9924 22.4072 18.9729 23.1396 18.9729 12.0654C18.9729 1.04004 18.9876 1.61621 18.6995 1.1084C18.4065 0.581055 17.8255 0.166016 17.22 0.0488281C16.8928 -0.00976562 2.05886 -0.00976562 1.74148 0.0537109ZM17.386 0.947266C17.679 1.08887 17.9085 1.31836 18.0403 1.61133C18.1331 1.81641 18.1428 1.92871 18.1428 3.50098V5.17578H9.50027H0.857692V3.50098C0.857692 1.8457 0.857692 1.83105 0.974879 1.58691C1.11648 1.29395 1.34597 1.06445 1.63894 0.932617C1.85867 0.834961 1.92214 0.830078 9.50027 0.830078H17.1419L17.386 0.947266ZM18.1428 14.1064V22.207L17.9915 22.334L17.8401 22.4609H9.50027H1.16043L1.00906 22.334L0.857692 22.207V14.1064V6.00586H9.50027H18.1428V14.1064ZM17.3128 23.5107C17.3128 23.7793 17.2102 24.0479 17.0784 24.1162C16.9368 24.1895 2.06375 24.1895 1.92214 24.1162C1.79031 24.0479 1.68777 23.7793 1.68777 23.5107V23.291H9.50027H17.3128V23.5107Z" fill="#6776FE"/>
<path d="M2.83008 1.75781C2.59082 1.81152 2.37109 1.99707 2.26855 2.2168C2.19531 2.37793 2.17578 2.53906 2.17578 2.99805C2.17578 3.71094 2.25879 3.93066 2.59082 4.12598L2.80078 4.24805L5.87695 4.23828C8.91406 4.22363 8.95801 4.22363 9.09473 4.12109C9.16797 4.06738 9.28027 3.94531 9.34375 3.85742C9.44141 3.71094 9.45117 3.64258 9.45117 3.00293C9.45117 2.36328 9.44141 2.29492 9.34375 2.14844C9.19727 1.93359 9.02148 1.81152 8.78711 1.75781C8.5625 1.7041 3.0498 1.7041 2.83008 1.75781ZM8.66992 3.00293V3.4668H5.83789H3.00586V3.00293V2.53906H5.83789H8.66992V3.00293Z" fill="#6776FE"/>
<path d="M11.8583 1.76269C11.4775 1.83105 11.1796 2.05078 10.999 2.38769C10.7109 2.91504 10.7939 3.46191 11.2285 3.88672C11.5263 4.17969 11.7997 4.27246 12.2294 4.2334C12.5566 4.2041 12.747 4.12109 12.9667 3.89648C13.5869 3.27637 13.4306 2.25098 12.6591 1.88965C12.3564 1.74316 12.1367 1.70898 11.8583 1.76269ZM12.3759 2.66601C12.498 2.76367 12.5273 2.83203 12.5273 2.97851C12.5273 3.33008 12.2343 3.53027 11.9072 3.39355C11.458 3.20312 11.6191 2.55859 12.122 2.54394C12.1806 2.53906 12.2929 2.59765 12.3759 2.66601Z" fill="#6776FE"/>
<path d="M15.316 1.76269C14.3248 1.94824 13.9488 3.17382 14.6617 3.88671C14.8961 4.12109 15.0963 4.20898 15.4576 4.23828C15.8678 4.26757 16.1998 4.13085 16.4781 3.833C17.2838 2.95898 16.4928 1.54785 15.316 1.76269ZM15.8873 2.70996C16.0973 2.9541 15.9947 3.31054 15.6822 3.41796C15.3746 3.51562 15.1158 3.31542 15.1158 2.97363C15.1158 2.71972 15.3502 2.51953 15.5992 2.55859C15.7018 2.57324 15.819 2.63671 15.8873 2.70996Z" fill="#6776FE"/>
<path d="M8.96285 7.37793C6.03804 7.59766 3.56734 9.6875 2.83492 12.5488C2.43453 14.126 2.62007 15.8399 3.34761 17.2803C4.8564 20.2783 8.21578 21.7529 11.4287 20.8252C13.8603 20.1221 15.7255 18.0908 16.2334 15.5957C16.8047 12.7881 15.5937 9.97559 13.1328 8.38867C11.9707 7.6416 10.4277 7.26563 8.96285 7.37793ZM10.3545 8.22754C11.8877 8.45215 13.25 9.21875 14.1875 10.3857C14.5683 10.8545 14.6904 11.0498 14.9492 11.5723C15.6377 12.9688 15.75 14.6533 15.2568 16.1328C14.5732 18.1836 12.8398 19.7266 10.7207 20.1709C10.0029 20.3174 8.99703 20.3174 8.27926 20.1709C6.80953 19.8633 5.52047 19.0332 4.61714 17.8174C3.28902 16.0254 3.06441 13.5742 4.05074 11.5723C4.30953 11.0498 4.4316 10.8545 4.81246 10.3857C6.12105 8.75489 8.26461 7.91992 10.3545 8.22754Z" fill="#6776FE"/>
<path d="M8.49902 9.17969C7.40039 9.41895 6.5459 9.8877 5.80371 10.6592C5.22265 11.2695 4.85156 11.8897 4.59277 12.6758C4.42187 13.1934 4.36328 13.6035 4.36328 14.2578C4.36816 16.7871 6.19433 18.9063 8.71874 19.3164C10.335 19.5801 12.0879 18.9844 13.2109 17.793C14.1435 16.8067 14.6318 15.5908 14.6367 14.2578C14.6367 13.6035 14.5781 13.1934 14.4072 12.6758C14.1484 11.8897 13.7773 11.2695 13.1963 10.6592C12.5371 9.97071 11.7168 9.48731 10.7793 9.24316C10.1201 9.07227 9.1289 9.04297 8.49902 9.17969ZM9.91503 9.91211C10.5351 9.98535 10.8721 10.083 11.3896 10.3272C12.498 10.8643 13.3037 11.8262 13.6846 13.0713C13.7969 13.4522 13.8115 13.584 13.8115 14.209C13.8164 14.79 13.7969 14.9854 13.709 15.3076C13.1719 17.2559 11.4873 18.5547 9.49999 18.5547C7.51269 18.5547 5.82812 17.2559 5.29101 15.3076C5.20312 14.9854 5.18359 14.79 5.18848 14.209C5.18848 13.584 5.20312 13.4522 5.31543 13.0713C5.85254 11.3184 7.2539 10.1221 9.02148 9.91699C9.21679 9.89258 9.40234 9.87305 9.42675 9.86817C9.45605 9.86817 9.67577 9.8877 9.91503 9.91211Z" fill="#6776FE"/>
<path d="M9.3291 10.8447C9.17773 10.9375 9.11426 11.0449 9.11426 11.2061C9.11426 11.4697 9.31934 11.6211 9.68067 11.6211C10.208 11.6211 10.8818 11.9336 11.3408 12.3926C11.79 12.8418 12.0391 13.3838 12.1123 14.0869C12.1465 14.4141 12.21 14.5264 12.3955 14.5947C12.5469 14.6533 12.6543 14.624 12.8106 14.4873C12.8984 14.4043 12.918 14.3359 12.918 14.1162C12.9131 12.7441 11.8828 11.3965 10.501 10.957C10.0664 10.8203 9.46582 10.7617 9.3291 10.8447Z" fill="#6776FE"/>
</svg>
