<svg width="24" height="26" viewBox="0 0 24 26" fill="none" xmlns="http://www.w3.org/2000/svg">
<path d="M2.92032 0.101555C2.63594 0.274212 2.62071 0.380852 2.58008 2.05663C2.54454 3.57499 2.54454 3.58007 2.65626 3.71718C2.79844 3.89999 3.0625 3.91015 3.21485 3.74765C3.30118 3.65117 3.31641 3.56991 3.31641 3.12304C3.31641 2.83867 3.33165 2.18867 3.35196 1.68593L3.38243 0.761711H3.69727H4.01719L4.04258 1.55898C4.07305 2.44765 4.13399 2.75741 4.41329 3.32616C4.9211 4.3621 5.83516 5.12382 6.95235 5.44374C7.27227 5.53007 7.48555 5.55546 7.98828 5.55546C8.74492 5.56054 9.08008 5.48437 9.74024 5.15937C10.5477 4.7582 11.1621 4.14374 11.5684 3.32109C11.8324 2.78788 11.9492 2.26991 11.9848 1.45741L12.0152 0.761711H12.3098H12.5992L12.6348 1.2289C12.6551 1.48788 12.6602 2.53398 12.65 3.55468C12.6297 5.18984 12.6145 5.47929 12.5129 6.01757C12.3809 6.72851 11.6496 10.1105 11.6141 10.1664C11.5988 10.1918 9.96875 10.207 7.98828 10.207C4.60625 10.207 4.38789 10.2019 4.3625 10.1156C4.30664 9.92773 3.6211 6.74882 3.52461 6.2207C3.46875 5.91093 3.40782 5.51484 3.39258 5.33202C3.37227 5.14921 3.33672 4.94101 3.30625 4.86484C3.20469 4.59062 2.79336 4.5703 2.65118 4.82929C2.52422 5.07304 2.67657 6.00741 3.32149 8.95781L3.67696 10.5726L3.49922 10.9383C2.42774 13.1422 1.08204 18.4894 0.594537 22.4859L0.508209 23.207L0.619928 23.3289C0.726568 23.4457 0.767193 23.4508 1.65586 23.4762C3.09805 23.5168 3.84454 23.7047 6.51563 24.7051C8.1711 25.3246 8.98867 25.5887 9.77578 25.7664C11.1164 26.066 12.1828 26.0762 13.3203 25.7918C14.1074 25.5937 15.1637 25.0656 15.5242 24.6848L15.6766 24.5273L15.575 23.5676L15.4785 22.6078L15.707 22.5723C16.1691 22.5012 16.291 22.3844 16.55 21.7598C17.0375 20.6019 17.7941 19.5203 18.7488 18.6266C19.2617 18.1441 19.9676 17.682 20.0336 17.7836C20.0336 17.7937 20.0539 18.7687 20.0691 19.957C20.0996 21.9629 20.1047 22.1254 20.1961 22.2574C20.3637 22.5012 20.5516 22.5723 21.0898 22.5723C21.6789 22.5723 21.8617 22.491 22.009 22.1762C22.0953 21.9832 22.1055 21.8258 22.1055 20.4648C22.1055 19.368 22.1258 18.8957 22.1766 18.7078C22.2121 18.5656 22.4 18.1137 22.5828 17.6973C23.0195 16.7426 23.1211 16.3465 23.1211 15.6457C23.1211 14.041 22.5625 12.7207 21.7094 12.3043C21.4656 12.1875 21.3996 12.1773 20.9984 12.1976C20.0285 12.2586 19.3074 12.7156 18.6371 13.7109C18.4949 13.9191 18.0887 14.6758 17.7332 15.3867C17.002 16.8543 16.4484 17.7277 15.9152 18.266C15.3059 18.8754 14.8133 19.0328 14.3613 18.7687C14.148 18.6418 13.9957 18.4488 13.7723 18.0273C13.7062 17.9055 13.5691 17.748 13.4727 17.682C13.2543 17.5297 12.9953 17.55 12.3555 17.748C10.5578 18.3168 9.42539 19.434 9.04961 20.998C8.85156 21.8359 8.92266 22.293 9.27305 22.4809C9.42031 22.5621 9.66406 22.5723 12.0609 22.5875L14.6914 22.6027L14.7168 22.7144C14.732 22.7754 14.7727 23.1359 14.8133 23.5117C14.8742 24.116 14.8742 24.2074 14.8031 24.2836C14.6762 24.4359 13.7672 24.8726 13.3152 25.0047C12.3859 25.2687 11.2992 25.2992 10.2379 25.0859C9.37969 24.9133 8.56211 24.6543 6.79492 23.9941C4.21016 23.0293 3.26055 22.7754 2.01133 22.7144C1.64063 22.6992 1.33594 22.6789 1.33594 22.6687C1.33594 22.5976 1.56954 21.0437 1.6711 20.4394C2.24493 17.0269 3.28594 13.1879 4.12891 11.3851L4.32696 10.9687H5.19024C5.67774 10.9687 6.0586 10.9891 6.0586 11.0144C6.0586 11.0398 6.00274 11.4207 5.93672 11.8676C5.86563 12.3094 5.77422 12.9848 5.72344 13.3656C5.64727 14.0156 5.64727 14.0766 5.72344 14.1934C5.87071 14.4168 6.19571 14.4219 6.33282 14.2035C6.37344 14.1426 6.46485 13.6246 6.54102 13.0508C6.61211 12.4769 6.71368 11.7812 6.75938 11.5019L6.84571 10.9941H8.06446H9.28321L9.36953 11.4766C9.41524 11.7406 9.5168 12.4516 9.59297 13.0508C9.71992 14.0004 9.75039 14.1578 9.85195 14.2543C9.99922 14.4066 10.1973 14.4016 10.3598 14.2391C10.4816 14.1172 10.4867 14.0867 10.4563 13.7719C10.4258 13.457 10.1668 11.6035 10.0906 11.1566L10.0551 10.9687H10.893H11.7309L11.9238 11.3851C12.4266 12.4871 12.9547 14.1223 13.5031 16.2754C13.7875 17.4027 13.8484 17.5195 14.1176 17.5195C14.2648 17.5195 14.4883 17.3062 14.4883 17.1641C14.4883 17.1031 14.407 16.7324 14.3055 16.3363C13.7418 14.0867 13.0766 12.0351 12.5332 10.8976L12.3402 10.4914L12.4723 9.88202C12.5434 9.54179 12.7312 8.68359 12.8836 7.96757C13.3965 5.62148 13.3762 5.75351 13.4066 3.55468C13.4168 2.47812 13.4066 1.3203 13.3812 0.974993C13.3406 0.365618 13.3305 0.345304 13.173 0.187883L13.0156 0.025383L12.3859 0.010149C11.3246 -0.020319 11.2535 0.0558529 11.218 1.29491C11.1977 1.98554 11.1773 2.16835 11.0656 2.51366C10.7457 3.52929 9.99922 4.30116 8.99375 4.66171C8.66875 4.77851 8.54688 4.79374 7.98828 4.79374C7.42969 4.79374 7.30782 4.77851 6.98282 4.66171C5.99766 4.30624 5.2461 3.54452 4.93125 2.58984C4.84493 2.32577 4.81954 2.07695 4.79414 1.3457C4.7586 0.355461 4.73321 0.264055 4.46914 0.101555C4.33204 0.0152264 4.21016 -7.62939e-06 3.69727 -7.62939e-06C3.17422 -7.62939e-06 3.0625 0.0152264 2.92032 0.101555ZM21.5012 13.066C22.0191 13.4113 22.3949 14.6047 22.3492 15.7676C22.3238 16.4023 22.2832 16.5344 21.8516 17.4738C21.3641 18.525 21.3793 18.4488 21.3488 20.2363L21.3184 21.8105H21.0898H20.8613L20.8309 19.8047C20.8004 17.7176 20.775 17.4687 20.5617 17.1387C20.3383 16.7984 19.8152 16.8949 19.0332 17.4129C18.5863 17.7074 17.4996 18.7789 17.073 19.3476C16.5094 20.0992 15.9762 21.0641 15.7426 21.7445C15.7121 21.8309 15.5242 21.8359 12.7109 21.8359H9.71485V21.643C9.71485 21.3383 9.85195 20.8812 10.0805 20.4141C10.248 20.0637 10.3699 19.9012 10.7305 19.5406C11.1215 19.1547 11.2434 19.0684 11.7512 18.8195C12.0711 18.6672 12.4926 18.4945 12.6957 18.4387L13.0613 18.3422L13.2238 18.6266C13.7672 19.5863 14.6812 19.8961 15.6156 19.4391C16.5398 18.9769 17.3625 17.8902 18.434 15.6914C19.1906 14.1375 19.607 13.5434 20.1656 13.2184C20.6531 12.9289 21.2066 12.868 21.5012 13.066Z" fill="#6776FE"/>
<path d="M15.2094 3.14842C15.0926 3.21952 14.991 3.35663 14.8894 3.57499C14.7219 3.93553 14.7269 4.11327 14.9098 4.24022C15.1484 4.4078 15.4227 4.28085 15.5496 3.94569L15.6055 3.80858H16.3418H17.0781L17.0477 3.94569C17.0223 4.09296 16.7734 5.83475 16.7734 5.8703C16.7734 5.88046 16.3164 5.89061 15.7578 5.89061C15.1992 5.89061 14.7422 5.88046 14.7422 5.8703C14.7422 5.86014 14.7777 5.76874 14.8184 5.67225C14.9758 5.29647 14.8488 5.02733 14.5238 5.02733C14.3004 5.02733 14.2344 5.10858 13.9855 5.68241C13.7367 6.26131 13.6961 6.43397 13.7875 6.64217C13.8687 6.8453 18.0633 11.5629 18.2715 11.6898C18.5 11.8269 18.8047 11.8117 19.023 11.639C19.216 11.4918 23.3293 6.88592 23.4207 6.71327C23.5477 6.46952 23.4816 6.23592 22.923 4.92069C22.207 3.23983 22.2172 3.25506 22.0344 3.14335C21.8871 3.05194 21.7195 3.04686 18.6269 3.04686C15.4531 3.04686 15.3719 3.05194 15.2094 3.14842ZM19.5309 4.75819C19.607 5.28631 19.668 5.7535 19.668 5.79921C19.668 5.88553 19.5816 5.89061 18.5965 5.89061H17.525L17.5555 5.74842C17.5707 5.67225 17.6316 5.266 17.6875 4.8496C17.7434 4.42811 17.8043 4.02694 17.8195 3.94569L17.85 3.80858H18.6219H19.3988L19.5309 4.75819ZM21.8465 4.32655C21.9684 4.616 22.1664 5.08319 22.2883 5.37264L22.5066 5.89061L21.4809 5.88046L20.4551 5.86522L20.318 4.92577C20.2469 4.4078 20.1809 3.94569 20.1809 3.89491C20.1758 3.81874 20.2418 3.80858 20.9019 3.80858H21.6281L21.8465 4.32655ZM17.2355 8.32811C17.5098 9.23202 17.7281 9.9785 17.723 9.98358C17.718 9.98866 17.0426 9.2371 16.225 8.32303L14.7371 6.65233L15.7375 6.66249L16.7379 6.67772L17.2355 8.32811ZM19.668 6.78436C19.5359 7.11952 19.6781 7.42928 19.9625 7.42928C20.1859 7.42928 20.3129 7.29725 20.4094 6.95194L20.4957 6.65233H21.4809H22.466L22.3746 6.76913C22.1562 7.04842 19.5512 9.95311 19.5309 9.93788C19.5258 9.92772 19.607 9.61288 19.7187 9.2371C19.9422 8.49061 19.9371 8.34842 19.6883 8.23163C19.3328 8.07421 19.2262 8.22147 18.9012 9.30819C18.7488 9.81092 18.6168 10.1816 18.5965 10.1461C18.5711 10.0953 17.9516 8.07421 17.5555 6.73866C17.5301 6.65741 17.6062 6.65233 18.6219 6.65233H19.7187L19.668 6.78436Z" fill="#6776FE"/>
</svg>
