<svg width="20" height="20" viewBox="0 0 20 20" fill="none" xmlns="http://www.w3.org/2000/svg">
<path d="M5.41699 1.66663V6.66663" stroke="white" stroke-width="1.5" stroke-miterlimit="10" stroke-linecap="round" stroke-linejoin="round"/>
<path d="M5.41699 15V18.3334" stroke="white" stroke-width="1.5" stroke-miterlimit="10" stroke-linecap="round" stroke-linejoin="round"/>
<path d="M8.33333 11.6667C8.33333 10.0559 7.0275 8.75004 5.41667 8.75004C3.80584 8.75004 2.5 10.0559 2.5 11.6667C2.5 13.2775 3.80584 14.5834 5.41667 14.5834C7.0275 14.5834 8.33333 13.2775 8.33333 11.6667Z" stroke="white" stroke-width="1.5" stroke-miterlimit="10" stroke-linecap="round" stroke-linejoin="round"/>
<path d="M14.583 1.66667V5" stroke="white" stroke-width="1.5" stroke-miterlimit="10" stroke-linecap="round" stroke-linejoin="round"/>
<path d="M14.583 13.3334V18.3334" stroke="white" stroke-width="1.5" stroke-miterlimit="10" stroke-linecap="round" stroke-linejoin="round"/>
<path d="M17.5003 8.33333C17.5003 6.7225 16.1945 5.41667 14.5837 5.41667C12.9728 5.41667 11.667 6.7225 11.667 8.33333C11.667 9.94416 12.9728 11.25 14.5837 11.25C16.1945 11.25 17.5003 9.94416 17.5003 8.33333Z" stroke="white" stroke-width="1.5" stroke-miterlimit="10" stroke-linecap="round" stroke-linejoin="round"/>
</svg>
