<svg width="30" height="30" viewBox="0 0 30 30" fill="none" xmlns="http://www.w3.org/2000/svg">
<path d="M13.5996 0.0644531C10.7519 0.316406 7.80467 1.52344 5.53709 3.36914C4.86912 3.9082 3.81444 4.97461 3.28709 5.63672C1.9453 7.31836 0.843735 9.5918 0.386703 11.6309C0.0995941 12.9082 0.035141 13.5352 0.035141 15C0.035141 16.4648 0.0995941 17.0918 0.386703 18.3691C0.849594 20.4492 1.98045 22.7578 3.36912 24.4629C3.90819 25.1309 4.97459 26.1855 5.6367 26.7129C7.31834 28.0547 9.59178 29.1562 11.6308 29.6133C12.9082 29.9004 13.5351 29.9648 15 29.9648C16.4648 29.9648 17.0918 29.9004 18.3691 29.6133C19.8984 29.2734 21.9023 28.418 23.2207 27.5449C25.5 26.0273 27.2519 24.0352 28.4531 21.5918C29.4199 19.6172 29.8945 17.7363 29.9824 15.5391C30.1172 12.0352 28.998 8.60742 26.789 5.74219C26.2969 5.10352 24.8965 3.70312 24.2578 3.21094C21.164 0.826172 17.4375 -0.275391 13.5996 0.0644531ZM16.9922 1.14258C17.7715 1.25977 18.8847 1.5293 19.6523 1.79297C20.9062 2.22656 22.5879 3.15234 23.6953 4.03125C24.2285 4.44727 25.5527 5.77148 25.9687 6.30469C26.8476 7.41211 27.7734 9.09375 28.207 10.3477C28.7519 11.9473 28.9687 13.2598 28.9687 15C28.9687 16.4238 28.8808 17.1621 28.5644 18.4277C27.3164 23.373 23.373 27.3164 18.4277 28.5645C17.1621 28.8809 16.4238 28.9688 15 28.9688C13.2597 28.9688 11.9472 28.752 10.3476 28.207C9.09373 27.7734 7.41209 26.8477 6.30467 25.9688C5.77147 25.5527 4.44725 24.2285 4.03123 23.6953C3.15233 22.5879 2.22655 20.9062 1.79295 19.6523C1.52928 18.873 1.25975 17.7715 1.13084 16.9336C0.990219 16.002 0.990219 13.998 1.13084 13.0664C1.35936 11.5488 1.76952 10.2246 2.42577 8.87695C3.16405 7.37109 3.89647 6.3457 5.12108 5.12109C5.98241 4.26562 6.43358 3.89062 7.33592 3.29297C9.19334 2.06836 11.3906 1.29492 13.6816 1.06055C14.4023 0.984375 16.2422 1.03125 16.9922 1.14258Z" fill="#6776FE"/>
<path d="M14.2383 5.04493C13.2187 5.11525 11.6074 5.50196 11.3437 5.73634C11.1679 5.89454 11.1269 6.07618 11.2207 6.3047C11.3554 6.63282 11.5195 6.65626 12.2109 6.45118C13.0664 6.19337 13.5879 6.09376 14.3847 6.04689C15.1992 5.99415 16.1308 6.04689 16.7578 6.18165C16.998 6.23439 17.2617 6.25782 17.3496 6.24025C17.5781 6.18751 17.7187 6.00587 17.7187 5.75978C17.7187 5.45509 17.5254 5.31446 16.9277 5.19728C16.4824 5.10939 15.164 4.96876 14.9414 4.9922C14.8945 4.9922 14.5781 5.01564 14.2383 5.04493Z" fill="#6776FE"/>
<path d="M8.666 7.66992L8.49608 7.83984V10.2598V12.6738L9.24022 13.4297L9.99022 14.1855L9.77342 18.5625C9.63866 21.1875 9.5742 23.0215 9.6035 23.1445C9.77928 23.9062 10.5 24.4922 11.25 24.4922C12.0176 24.4922 12.7207 23.918 12.8965 23.1445C12.9258 23.0215 12.8613 21.1816 12.7265 18.5625L12.5098 14.1855L13.2598 13.4297L14.0039 12.6738V10.2598V7.83984L13.834 7.66992C13.6523 7.48828 13.4883 7.45898 13.2832 7.57031C13.0137 7.71094 13.0137 7.70508 13.0078 10.0488V12.2754L12.3281 12.9492C11.9531 13.3184 11.6133 13.6992 11.5723 13.7988C11.5078 13.9453 11.5312 14.6836 11.7187 18.3926C11.8652 21.3574 11.9238 22.8691 11.8887 23.0039C11.7305 23.5723 10.916 23.6309 10.6523 23.0859C10.5586 22.8926 10.5644 22.6758 10.7754 18.4277C10.9687 14.6836 10.9922 13.9453 10.9277 13.7988C10.8867 13.6992 10.5469 13.3184 10.1719 12.9492L9.49217 12.2754V10.0488C9.48631 7.70508 9.48631 7.71094 9.21678 7.57031C9.0117 7.45898 8.84764 7.48828 8.666 7.66992Z" fill="#6776FE"/>
<path d="M10.2832 7.5703C10.0195 7.71093 10.0195 7.70507 10.0195 10.0019V12.1934L10.166 12.334C10.3594 12.5332 10.6523 12.5332 10.8457 12.3281L10.9863 12.1758V9.97851V7.78124L10.8223 7.64062C10.6465 7.48827 10.4707 7.46484 10.2832 7.5703Z" fill="#6776FE"/>
<path d="M11.6777 7.64061L11.5137 7.78124V9.9785V12.1758L11.6543 12.3281C11.8476 12.5332 12.1406 12.5332 12.334 12.334L12.4805 12.1934V10.0254C12.4805 8.83592 12.4629 7.81639 12.4453 7.76366C12.3984 7.65233 12.123 7.49998 11.959 7.49998C11.8945 7.49998 11.7656 7.56444 11.6777 7.64061Z" fill="#6776FE"/>
<path d="M18.1641 7.58202C17.5312 7.76366 17.0098 8.17968 16.7402 8.71288C16.582 9.02343 16.2949 9.91991 16.1308 10.6055C15.9902 11.209 15.9902 12.4805 16.1308 13.0078C16.3008 13.6348 16.664 14.1445 17.25 14.5664L17.4199 14.6894L17.2324 18.873C17.1035 21.7734 17.0683 23.1152 17.1035 23.25C17.2031 23.584 17.4609 23.9648 17.7129 24.1465C18.6562 24.8262 19.998 24.4277 20.3613 23.3496C20.4551 23.0742 20.4492 22.8516 20.2676 18.873L20.0801 14.6894L20.25 14.5664C21.1582 13.9101 21.4687 13.2187 21.4687 11.8359C21.4687 10.9746 21.4101 10.6348 21.0644 9.52148C20.748 8.49609 20.3496 7.99804 19.5996 7.67577C19.2363 7.52343 18.5273 7.47069 18.1641 7.58202ZM19.3183 8.63085C19.5234 8.74218 19.793 8.99999 19.8926 9.20507C20.0449 9.49218 20.3965 10.8164 20.4609 11.3203C20.5371 11.9121 20.4668 12.6797 20.3086 13.0137C20.1445 13.3594 19.8867 13.623 19.5234 13.8164C19.2773 13.9453 19.1543 14.0566 19.1133 14.168C19.0781 14.2734 19.125 15.7383 19.2539 18.6035C19.3945 21.6855 19.4355 22.9336 19.3887 23.0684C19.3066 23.3144 19.0723 23.4609 18.75 23.4609C18.4277 23.4609 18.1875 23.3144 18.1113 23.0684C18.0703 22.9336 18.1055 21.6621 18.2461 18.6035C18.3984 15.3398 18.4277 14.2851 18.375 14.1621C18.334 14.0566 18.1875 13.9336 17.959 13.8047C17.5488 13.582 17.2148 13.1836 17.0976 12.7793C16.9863 12.3867 17.0039 11.2031 17.1328 10.7226C17.4492 9.53319 17.584 9.18749 17.8301 8.92382C17.9648 8.78319 18.1816 8.63085 18.3105 8.57812C18.5859 8.47851 19.0664 8.50194 19.3183 8.63085Z" fill="#6776FE"/>
<path d="M21.9492 8.51367C21.6973 8.76562 21.7383 8.99414 22.1367 9.5332C22.8164 10.459 23.1973 11.1738 23.5137 12.1348C23.8828 13.2363 23.9355 13.5996 23.9355 15C23.9355 16.4004 23.8828 16.7637 23.5137 17.8652C23.1094 19.0781 22.5527 20.0098 21.5039 21.2285C21.164 21.6211 21.123 21.832 21.3574 22.0605C21.457 22.166 21.5625 22.207 21.7148 22.207C21.9082 22.207 21.9785 22.166 22.2246 21.8965C23.4141 20.6309 24.2461 19.1367 24.6562 17.5488C25.166 15.5801 25.1016 13.6699 24.457 11.7773C24.0937 10.7285 23.3437 9.36914 22.7226 8.6543C22.459 8.35547 22.166 8.30273 21.9492 8.51367Z" fill="#6776FE"/>
<path d="M7.1074 8.96484C6.88475 9.05859 6.15818 10.248 5.77147 11.1621C4.86912 13.2949 4.76951 15.8437 5.50779 18.1055C5.73631 18.8145 6.34568 20.0566 6.74998 20.6367C7.20701 21.2988 7.8867 22.0664 8.08592 22.1484C8.31443 22.2422 8.53123 22.1836 8.65428 21.9961C8.8242 21.7324 8.77732 21.5391 8.46092 21.1816C6.93162 19.4414 6.18162 17.7246 6.041 15.6445C5.90037 13.6406 6.41014 11.6895 7.50584 10.0254C7.83982 9.52148 7.87498 9.27539 7.64646 9.05273C7.49998 8.90039 7.33006 8.87695 7.1074 8.96484Z" fill="#6776FE"/>
<path d="M13.541 24.1055C13.3008 24.3633 13.3769 24.7207 13.6933 24.873C13.875 24.9609 14.0801 24.9785 14.9707 24.9785C16.207 24.9785 16.4355 24.9316 16.5586 24.6387C16.6523 24.416 16.582 24.1172 16.4121 24.0293C16.3594 24 15.7207 23.9765 14.9883 23.9707C13.6816 23.9707 13.664 23.9765 13.541 24.1055Z" fill="#6776FE"/>
</svg>
