<svg width="26" height="18" viewBox="0 0 26 18" fill="none" xmlns="http://www.w3.org/2000/svg">
<path d="M6.07338 0.480452C5.51398 0.585339 5.18933 0.70521 4.75479 0.954941C2.83186 2.05876 1.37343 4.95564 0.619237 9.15113C0.369506 10.5546 0.294586 11.3588 0.294586 12.6474C0.294586 13.916 0.344532 14.4405 0.549312 15.1447C0.998829 16.713 2.09265 17.4322 3.54609 17.1176C4.71484 16.8678 6.09835 15.9938 8.06124 14.2706C8.81543 13.6063 9.20501 13.3616 9.91924 13.0919C12.0769 12.2728 15.2935 12.4526 17.0366 13.4865C17.2264 13.6014 17.6809 13.956 18.0405 14.2706C20.5478 16.4733 22.1861 17.3373 23.5246 17.1575C24.6984 17.0027 25.4226 16.1037 25.7173 14.4205C25.8421 13.7162 25.8421 11.7533 25.7223 10.7494C25.3527 7.6927 24.4936 4.79082 23.4747 3.15757C22.5656 1.70913 21.6117 0.890011 20.418 0.550377C20.0783 0.455479 19.9035 0.435499 19.2442 0.435499C18.3502 0.435499 18.0905 0.480452 16.0377 0.984909C14.4294 1.37449 13.6103 1.52433 13.0509 1.52433C12.5065 1.52433 11.7423 1.38947 10.0741 0.989904C9.33487 0.815092 8.4708 0.620302 8.15614 0.565361C7.40195 0.42551 6.54287 0.390549 6.07338 0.480452ZM8.43084 1.78405C8.76049 1.85398 9.38981 2.00381 9.82434 2.1137C11.7922 2.60816 12.7362 2.74801 13.5154 2.65811C14.2546 2.5782 14.7291 2.4833 16.0976 2.15865C18.1204 1.67916 18.3352 1.63921 19.0944 1.6442C19.6887 1.6442 19.8186 1.65918 20.1682 1.77406C21.2621 2.13867 22.0662 2.96278 22.8404 4.50613C23.5995 6.0195 24.124 7.90747 24.4986 10.4597C24.6434 11.4636 24.6634 13.7862 24.5285 14.3955C24.2339 15.759 23.6944 16.2135 22.6705 15.9738C21.7216 15.749 20.5129 14.9649 18.8446 13.4765C17.8807 12.6224 17.3413 12.2728 16.4822 11.9631C15.4683 11.5985 14.6591 11.4537 13.4005 11.4137C12.022 11.3737 11.0031 11.5036 9.82934 11.8832C8.79045 12.2178 8.03627 12.6773 6.93245 13.6713C6.08336 14.4305 4.99453 15.2246 4.36022 15.5443C3.13154 16.1636 2.35737 16.1186 1.92783 15.3994C1.72805 15.0648 1.63315 14.7651 1.53325 14.1208C1.42337 13.4415 1.46333 11.4287 1.60817 10.4148C2.07268 7.10334 3.05662 4.33131 4.27531 2.91284C4.80973 2.28851 5.54394 1.82401 6.2332 1.68416C6.75265 1.57927 7.68664 1.61923 8.43084 1.78405Z" fill="#6776FE"/>
<path d="M6.87752 3.61208C6.50791 3.65703 6.10335 3.86181 5.83364 4.13152C5.5889 4.37626 5.3092 4.8957 5.3092 5.11047C5.3092 5.24533 5.22929 5.30526 5.04948 5.30526C4.99454 5.30526 4.80974 5.37019 4.63493 5.4551C3.83579 5.83969 3.41624 6.70376 3.63101 7.53786C3.81081 8.2471 4.26532 8.70661 4.97956 8.9014C5.27424 8.98631 5.28423 8.9913 5.31919 9.18609C5.4041 9.68556 5.85362 10.24 6.36307 10.4697C7.32703 10.9142 8.4758 10.4298 8.8504 9.42584C8.91033 9.271 8.95528 9.10618 8.95528 9.05623C8.95528 8.98631 9.00523 8.95634 9.16006 8.93137C9.69449 8.84646 10.2389 8.40693 10.4936 7.86252C10.6784 7.47293 10.6884 6.80865 10.5136 6.42906C10.2239 5.79474 9.7744 5.43512 9.10013 5.28528C8.99524 5.26031 8.96028 5.22035 8.93531 5.07052C8.88536 4.76085 8.68557 4.39624 8.42585 4.13652C8.01629 3.72696 7.46189 3.53716 6.87752 3.61208ZM7.49186 4.83577C7.70163 4.96563 7.76656 5.13545 7.80652 5.62991C7.85646 6.2992 8.01629 6.45403 8.65561 6.45403C9.07016 6.45403 9.26495 6.53394 9.4048 6.76869C9.59959 7.08335 9.47972 7.55285 9.17005 7.70269C9.09014 7.73765 8.84041 7.77761 8.60566 7.79259C7.96635 7.82755 7.80652 7.98239 7.80652 8.57675C7.80652 9.16611 7.57677 9.45081 7.10228 9.45081C6.67773 9.45081 6.45797 9.16611 6.45797 8.62669C6.45797 7.98239 6.2382 7.75263 5.61887 7.75263C5.04449 7.75263 4.75979 7.53287 4.75979 7.08835C4.75979 6.68378 5.04948 6.45403 5.56892 6.44903C6.24819 6.44404 6.41801 6.27922 6.45797 5.57997C6.48294 5.14543 6.49792 5.09549 6.63278 4.95564C6.86753 4.7109 7.21715 4.66096 7.49186 4.83577Z" fill="#6776FE"/>
<path d="M18.1204 3.84684C17.3413 4.21144 17.2763 5.31026 18.0055 5.78975C18.1853 5.90962 18.2603 5.9296 18.5899 5.9296C18.9196 5.9296 18.9995 5.90962 19.1793 5.78975C19.2992 5.71483 19.454 5.55999 19.5289 5.44512C19.6488 5.26531 19.6688 5.19039 19.6688 4.85575C19.6688 4.52111 19.6488 4.44619 19.5289 4.26639C19.3141 3.94174 19.0444 3.7869 18.6498 3.76692C18.4051 3.75693 18.2653 3.77691 18.1204 3.84684Z" fill="#6776FE"/>
<path d="M15.9727 6.05946C15.743 6.12439 15.4233 6.42407 15.3234 6.66381C15.0188 7.41301 15.5282 8.20715 16.3124 8.20715C16.7869 8.20715 17.1365 7.99238 17.3263 7.58282C17.5261 7.15329 17.4661 6.73873 17.1565 6.3941C16.8468 6.04947 16.4173 5.9296 15.9727 6.05946Z" fill="#6776FE"/>
<path d="M20.418 6.09942C19.8336 6.36913 19.5939 7.00345 19.8636 7.57783C20.0634 8.00737 20.388 8.20715 20.8675 8.20715C21.4618 8.20715 21.9463 7.72267 21.9463 7.13331C21.9463 6.64883 21.7465 6.32418 21.317 6.12439C21.0173 5.97955 20.6927 5.96956 20.418 6.09942Z" fill="#6776FE"/>
<path d="M18.2453 8.32702C17.2364 8.64168 17.2663 10.1351 18.2902 10.4348C18.9895 10.6345 19.6887 10.1101 19.6937 9.38588C19.6937 8.9064 19.3691 8.45688 18.9245 8.32702C18.6249 8.23712 18.54 8.23712 18.2453 8.32702Z" fill="#6776FE"/>
</svg>
