<?xml version="1.0" standalone="no"?>
<!DOCTYPE svg PUBLIC "-//W3C//DTD SVG 20010904//EN"
 "http://www.w3.org/TR/2001/REC-SVG-20010904/DTD/svg10.dtd">
<svg version="1.0" xmlns="http://www.w3.org/2000/svg"
 width="1024.000000pt" height="1024.000000pt" viewBox="0 0 1024.000000 1024.000000"
 preserveAspectRatio="xMidYMid meet">

<g transform="translate(0.000000,1024.000000) scale(0.100000,-0.100000)"
fill="#000000" stroke="none">
<path d="M4790 9799 c-623 -45 -1199 -201 -1755 -475 -880 -433 -1599 -1131
-2064 -2005 l-62 -117 38 -29 c181 -142 1535 -1174 1537 -1171 1 2 17 44 35
93 52 143 192 419 279 550 388 582 958 990 1621 1161 617 159 1257 105 1826
-154 187 -85 392 -207 535 -320 l65 -51 678 677 c372 372 677 680 677 683 0
23 -311 260 -526 402 -628 415 -1311 659 -2074 742 -173 19 -634 27 -810 14z"/>
<path d="M5120 5065 l0 -905 1260 0 c693 0 1260 -2 1260 -4 0 -15 -34 -145
-58 -226 -141 -460 -433 -861 -820 -1124 -40 -28 -69 -53 -65 -57 5 -4 339
-263 745 -577 l736 -570 139 142 c308 313 533 624 738 1020 353 681 535 1464
536 2305 1 299 -24 540 -80 801 -12 52 -21 95 -21 97 0 2 -983 3 -2185 3
l-2185 0 0 -905z"/>
</g>
</svg>
