<svg width="30" height="30" viewBox="0 0 30 30" fill="none" xmlns="http://www.w3.org/2000/svg">
<path d="M8.14451 0.0820312C7.50584 0.263672 6.9785 0.708984 6.69725 1.31836L6.53318 1.66992V15V28.3301L6.69725 28.6816C6.98436 29.3027 7.5117 29.7422 8.17381 29.918C8.6074 30.0352 21.3926 30.0352 21.8262 29.918C22.4883 29.7422 23.0156 29.3027 23.3027 28.6816L23.4668 28.3301V15V1.66992L23.3027 1.31836C23.0156 0.697266 22.4883 0.257812 21.8262 0.0820312C21.4101 -0.0292969 8.54295 -0.0292969 8.14451 0.0820312ZM21.6387 1.06055C21.7617 1.08984 21.9551 1.20117 22.0722 1.30664C22.3945 1.58789 22.5 1.875 22.5 2.47266V2.98828H15H7.49998V2.47266C7.49998 1.89844 7.60545 1.60547 7.89842 1.33008C8.2617 0.990234 7.96873 1.00195 14.9707 0.996094C19.2949 0.996094 21.4863 1.01953 21.6387 1.06055ZM22.5 13.5059V23.0273H15H7.49998V13.5059V3.98438H15H22.5V13.5059ZM22.5 26.0273C22.5 27.8438 22.4883 28.0605 22.3887 28.2715C22.2539 28.5703 21.9258 28.8633 21.6387 28.9395C21.3281 29.0273 8.67186 29.0273 8.36131 28.9395C8.0742 28.8633 7.74607 28.5703 7.61131 28.2715C7.5117 28.0605 7.49998 27.8438 7.49998 26.0273V24.0234H15H22.5V26.0273Z" fill="#6776FE"/>
<path d="M12.6738 1.65234C12.498 1.85156 12.4746 1.97461 12.5625 2.19141C12.6797 2.47852 12.873 2.51953 14.0097 2.51953C15 2.51953 15.2519 2.47852 15.3867 2.29688C15.5156 2.13281 15.4863 1.79297 15.334 1.65234C15.2051 1.5293 15.1465 1.52344 13.998 1.52344C12.8262 1.52344 12.791 1.5293 12.6738 1.65234Z" fill="#6776FE"/>
<path d="M16.1719 1.64062C15.9082 1.90429 15.9785 2.29687 16.3184 2.43164C16.7695 2.625 17.3379 2.49023 17.4492 2.17383C17.5254 1.96289 17.4961 1.8457 17.3262 1.65234C17.2207 1.54101 17.1504 1.52344 16.7461 1.52344C16.3711 1.52344 16.2715 1.54101 16.1719 1.64062Z" fill="#6776FE"/>
<path d="M14.4902 24.5801C14.1035 24.6856 13.8047 24.8731 13.5117 25.1953C13.1543 25.5938 13.0371 25.9043 13.0371 26.4844C13.0371 26.9297 13.0547 27.0234 13.2304 27.375C13.4414 27.8027 13.7402 28.1016 14.1738 28.3125C14.5605 28.5059 15.4394 28.5059 15.8262 28.3125C16.2597 28.1016 16.5586 27.8027 16.7695 27.375C16.9453 27.0234 16.9629 26.9297 16.9629 26.4844C16.9629 25.9043 16.8457 25.5938 16.4883 25.1953C16.1894 24.8672 15.8965 24.6856 15.4863 24.5801C15.082 24.4746 14.8887 24.4746 14.4902 24.5801ZM15.3808 25.5996C16.3652 26.0449 16.0722 27.4805 15 27.4805C14.1797 27.4805 13.7051 26.5078 14.2207 25.8926C14.3965 25.6875 14.7715 25.4883 15 25.4883C15.082 25.4883 15.2519 25.541 15.3808 25.5996Z" fill="#6776FE"/>
<path d="M1.55272 2.45508C0.351545 3.70899 -0.216815 5.60157 0.0878729 7.33008C0.251935 8.26172 0.644514 9.18164 1.19529 9.89649C1.74022 10.5996 2.0742 10.7637 2.37303 10.459C2.61912 10.2188 2.57225 9.97266 2.22069 9.56836C1.62303 8.88868 1.20701 7.99219 1.05467 7.07813C0.837873 5.74219 1.27147 4.30079 2.21483 3.20508C2.46092 2.91797 2.51951 2.8125 2.51951 2.63672C2.51951 2.35547 2.32615 2.16797 2.03904 2.16797C1.86326 2.16797 1.78123 2.21485 1.55272 2.45508Z" fill="#6776FE"/>
<path d="M27.6094 2.30274C27.3809 2.54297 27.4336 2.79493 27.791 3.20508C28.7285 4.30079 29.1621 5.74219 28.9453 7.07813C28.793 7.99219 28.377 8.88868 27.7793 9.56836C27.4277 9.97266 27.3809 10.2188 27.627 10.459C27.9258 10.7637 28.2598 10.5996 28.8047 9.89649C29.3555 9.18164 29.748 8.26172 29.9121 7.33008C30.2168 5.60157 29.6484 3.70899 28.4473 2.45508C28.2129 2.20899 28.1367 2.16797 27.9551 2.16797C27.8027 2.16797 27.6973 2.20899 27.6094 2.30274Z" fill="#6776FE"/>
<path d="M3.72069 3.38085C3.45115 3.65624 3.05272 4.26562 2.8828 4.66991C2.57225 5.40819 2.48436 6.42187 2.66014 7.26562C2.8242 8.05077 3.49803 9.18163 3.93162 9.41015C4.14842 9.51562 4.34178 9.48632 4.5117 9.30468C4.71092 9.08788 4.66405 8.85351 4.34178 8.44921C3.80272 7.78124 3.5742 7.14843 3.5742 6.32812C3.5742 5.49023 3.8203 4.81054 4.35936 4.16015C4.67576 3.77929 4.72264 3.5039 4.49412 3.29296C4.27147 3.08202 3.98436 3.11718 3.72069 3.38085Z" fill="#6776FE"/>
<path d="M25.5176 3.42773C25.2773 3.66211 25.3184 3.90234 25.6641 4.33593C26.209 5.00976 26.4258 5.61328 26.4258 6.45703C26.4258 7.2832 26.1855 7.94531 25.6348 8.61328C25.3184 8.99414 25.2891 9.24023 25.5176 9.46289C25.7695 9.71484 25.9863 9.66797 26.373 9.26367C27.5273 8.05078 27.7676 6.00586 26.9414 4.43554C26.8008 4.17773 26.543 3.80859 26.3672 3.62109C25.9863 3.22265 25.7637 3.17578 25.5176 3.42773Z" fill="#6776FE"/>
</svg>
