<svg width="25" height="23" viewBox="0 0 25 23" fill="none" xmlns="http://www.w3.org/2000/svg">
<path d="M12.2314 0.34765C10.791 0.669914 9.60937 1.75878 9.21875 3.13085C9.07226 3.64355 9.0625 4.5957 9.19433 5.17675C9.52148 6.583 10.4053 7.98925 11.9141 9.50292C13.0225 10.6162 14.1797 11.5635 15.6494 12.5547C16.4307 13.082 16.4209 13.082 17.1973 12.5449C18.6328 11.5586 19.6777 10.7139 20.6738 9.74218C21.5186 8.91698 22.041 8.31152 22.5195 7.59863C23.3936 6.29491 23.7695 5.14745 23.7158 3.98046C23.6816 3.3164 23.5986 2.9746 23.335 2.43261C22.8613 1.47558 21.9385 0.728508 20.8154 0.406243C20.2734 0.249993 19.2871 0.249993 18.7353 0.406243C17.959 0.625969 17.3682 0.972649 16.7627 1.5537L16.4111 1.89062L16.1377 1.6123C15.5615 1.04101 14.9268 0.660149 14.1748 0.43554C13.6182 0.274407 12.7441 0.230462 12.2314 0.34765ZM13.6963 1.31933C14.2578 1.43652 14.873 1.77343 15.3516 2.22265C15.5762 2.44238 15.8301 2.7207 15.9131 2.85253C16.2256 3.34081 16.5967 3.3164 16.9629 2.78905C17.1875 2.46191 17.6465 2.02734 18.0127 1.79296C19.0137 1.15331 20.1221 1.07519 21.1426 1.57812C21.6602 1.83202 22.2363 2.40331 22.4756 2.90624C23.335 4.708 22.1777 7.16894 19.2871 9.708C18.667 10.25 17.4658 11.1777 16.7822 11.6416L16.4014 11.8955L15.708 11.4072C12.6172 9.2246 10.6934 7.02734 10.2051 5.12304C9.89257 3.90722 10.1269 2.92089 10.9082 2.14941C11.3477 1.71484 11.9922 1.37304 12.5488 1.28027C12.8271 1.23144 13.374 1.25097 13.6963 1.31933Z" fill="#6776FE"/>
<path d="M16.084 4.34178L15.918 4.5078V5.31835V6.12889H15.1074H14.2969L14.1309 6.29491C13.9502 6.47557 13.9209 6.6367 14.0332 6.85643C14.1455 7.07127 14.2871 7.10545 15.1367 7.10545H15.918V7.8867C15.918 8.73631 15.9522 8.87792 16.167 8.99022C16.4209 9.12206 16.7285 9.02928 16.8359 8.79002C16.875 8.70702 16.8945 8.38475 16.8945 7.8867V7.10545H17.6758C18.5352 7.10545 18.6816 7.07127 18.7891 6.8369C18.8867 6.62206 18.8574 6.47069 18.6816 6.29491L18.5156 6.12889H17.7051H16.8945V5.31835V4.5078L16.7285 4.34178C16.6113 4.21971 16.5186 4.17577 16.4063 4.17577C16.294 4.17577 16.2061 4.21971 16.084 4.34178Z" fill="#6776FE"/>
<path d="M7.2754 13.0332C6.84571 13.1309 6.51368 13.248 5.73731 13.5947L5.00489 13.917L2.64649 13.9414L0.283209 13.9658L0.141607 14.1269L5.80596e-06 14.2832V17.8281C5.80596e-06 21.6709 -0.004877 21.5684 0.268561 21.6953C0.468756 21.7881 4.7461 21.7783 4.92676 21.6855C5.10255 21.5928 5.17579 21.417 5.17579 21.0703V20.7822L5.43458 20.8066C6.52833 20.9141 7.37794 21.1289 8.54493 21.583C10.8008 22.4668 11.5332 22.6523 13.0127 22.7158C13.5742 22.7353 13.877 22.7256 14.3066 22.6621C14.9658 22.5644 16.084 22.2861 16.958 21.998C17.5098 21.8174 17.5928 21.7783 17.6807 21.6416C17.8076 21.4316 17.7979 21.251 17.6514 21.0801C17.4561 20.8457 17.3633 20.8506 16.4941 21.124C14.6387 21.7051 13.667 21.8418 12.4268 21.7051C11.4746 21.5976 10.7178 21.3877 9.33106 20.8408C7.80274 20.2402 6.9336 19.9912 6.01075 19.8984C5.72755 19.8643 5.41993 19.8301 5.33692 19.8203L5.17579 19.7959V17.3301C5.17579 15.0254 5.18067 14.8642 5.26368 14.835C5.30762 14.8203 5.70801 14.6543 6.15235 14.4687C6.59669 14.2783 7.11915 14.0879 7.31934 14.0342C8.0127 13.8584 8.8086 13.9512 9.47266 14.2832C9.63868 14.3662 10.2832 14.7226 10.9082 15.0742C11.5283 15.4258 12.1143 15.748 12.207 15.792C12.3535 15.8603 12.6758 15.875 14.2871 15.8945L16.1963 15.9189L16.4307 16.0654C17.0166 16.4316 17.0313 17.2715 16.46 17.6768L16.25 17.8232L13.5059 17.8476C10.5176 17.8721 10.669 17.8574 10.5176 18.1553C10.4199 18.3408 10.4688 18.5459 10.6543 18.7021L10.8008 18.8291L13.5938 18.8144L16.3818 18.7998L17.7979 18.2725C22.8906 16.3682 22.7686 16.4121 23.0518 16.4072C23.3984 16.4072 23.7451 16.6074 23.8965 16.8955C24.0527 17.1934 24.0381 17.6279 23.8623 17.8867C23.7402 18.0723 23.3008 18.3848 23.1641 18.3848C23.1348 18.3848 23.0811 18.3164 23.0469 18.2383C22.959 18.0332 22.7295 17.8476 22.5488 17.8476C22.4463 17.8476 22.3535 17.8965 22.2363 18.0137C22.041 18.209 22.0264 18.3506 22.168 18.624L22.2607 18.8096L21.6895 19.0684C21.377 19.2051 21.0693 19.376 21.0107 19.4443C20.8545 19.6103 20.8594 19.8984 21.0156 20.0791C21.2109 20.3037 21.4307 20.2695 22.3145 19.8643C24.3164 18.9512 24.4727 18.8437 24.79 18.1992C24.9658 17.8476 24.9756 17.8037 24.9756 17.3643C24.9756 16.9394 24.9609 16.8662 24.8242 16.5781C24.7412 16.4023 24.5801 16.1582 24.4727 16.0361C24.0772 15.5918 23.3399 15.333 22.7588 15.4404C22.5977 15.4746 21.4551 15.8701 20.21 16.3291C18.9697 16.7881 17.9395 17.1641 17.9199 17.1641C17.9004 17.1641 17.8711 16.9883 17.8565 16.7734C17.7979 15.8799 17.1777 15.1523 16.3184 14.9717C16.1572 14.9375 15.4102 14.918 14.3408 14.918H12.6221L11.3525 14.2002C9.83399 13.3457 9.50684 13.1894 8.97462 13.0625C8.51075 12.9502 7.70997 12.9355 7.2754 13.0332ZM4.19922 17.8476V20.7773H2.5879H0.976568V17.8476V14.918H2.5879H4.19922V17.8476Z" fill="#6776FE"/>
<path d="M19.0137 20.2598C18.833 20.4404 18.8037 20.6015 18.916 20.8213C19.1455 21.2607 19.8242 21.0654 19.8242 20.5527C19.8242 20.3672 19.5362 20.0937 19.336 20.0937C19.2236 20.0937 19.1358 20.1377 19.0137 20.2598Z" fill="#6776FE"/>
</svg>
