<svg width="20" height="20" viewBox="0 0 20 20" fill="none" xmlns="http://www.w3.org/2000/svg">
<path d="M7.14373 18.7816V15.7148C7.14372 14.9376 7.77567 14.3062 8.55844 14.3013H11.4326C12.2189 14.3013 12.8563 14.9341 12.8563 15.7148V18.7727C12.8562 19.4468 13.404 19.9946 14.0829 19.9995H16.0438C16.9596 20.0018 17.8388 19.6423 18.4872 19.0002C19.1356 18.3581 19.5 17.4863 19.5 16.577V7.86536C19.5 7.1309 19.1721 6.43422 18.6046 5.96301L11.943 0.67378C10.7785 -0.251366 9.11537 -0.22148 7.98539 0.744896L1.46701 5.96301C0.872741 6.42033 0.517552 7.11907 0.5 7.86536V16.5681C0.5 18.4632 2.04738 19.9995 3.95617 19.9995H5.87229C6.19917 20.0018 6.51349 19.8746 6.74547 19.6459C6.97746 19.4173 7.10793 19.1062 7.10792 18.7816H7.14373Z" fill="#6776FE"/>
</svg>
