<svg width="24" height="24" viewBox="0 0 24 24" fill="none" xmlns="http://www.w3.org/2000/svg">
<path d="M3.41183 2.03993C2.74009 2.17276 2.16989 2.75097 2.04101 3.43858C1.98633 3.72769 1.98633 16.714 2.04101 17.0031C2.17379 17.7064 2.74009 18.2729 3.44308 18.4057C3.57196 18.4291 4.62253 18.4448 6.17692 18.4448H8.70377L8.79359 19.2144C8.94591 20.531 8.97715 20.7029 9.12947 21.0077C9.27788 21.3124 9.61375 21.664 9.89104 21.8047C10.2777 22.0039 10.1839 22 15.4407 22C18.6159 22 20.4202 21.9844 20.5569 21.9609C21.2599 21.8281 21.8262 21.2616 21.959 20.5584C22.0137 20.2693 22.0137 7.28291 21.959 6.99381C21.8418 6.38434 21.4396 5.90771 20.8303 5.66157L20.6116 5.57172L16.1984 5.55218L11.7852 5.53265L11.6602 4.51687C11.5899 3.95819 11.5157 3.42295 11.4923 3.32919C11.3868 2.91116 11.0158 2.4228 10.6409 2.21964C10.2347 1.99695 10.2347 1.99695 6.76665 2.00086C5.01699 2.00477 3.50557 2.0204 3.41183 2.03993ZM10.1176 3.2784C10.1879 3.32919 10.2699 3.42295 10.305 3.48937C10.348 3.57141 10.6214 5.66548 11.2033 10.3342C11.6602 14.03 12.0469 17.1047 12.0547 17.1633L12.0781 17.2727H7.85628C3.70865 17.2727 3.63835 17.2727 3.48604 17.1946C3.3845 17.1438 3.30248 17.0617 3.25171 16.9602C3.1736 16.8078 3.1736 16.7453 3.1736 10.2209C3.1736 3.70034 3.1736 3.63392 3.25171 3.48156C3.29857 3.38779 3.3884 3.29793 3.47823 3.25105C3.61882 3.17291 3.69693 3.17291 6.8057 3.18073L9.98867 3.18854L10.1176 3.2784ZM20.514 6.80237C20.6155 6.85316 20.6975 6.9352 20.7483 7.03678C20.8264 7.18915 20.8264 7.25166 20.8264 13.7761C20.8264 20.3005 20.8264 20.363 20.7483 20.5154C20.6975 20.617 20.6155 20.699 20.514 20.7498C20.3616 20.8279 20.307 20.8279 15.6594 20.8201L10.9572 20.8084L12.1054 19.4801C12.8787 18.5854 13.2615 18.1088 13.2888 18.0189C13.3161 17.9134 13.1756 16.6711 12.6444 12.3931C12.2695 9.37308 11.957 6.86098 11.9492 6.81019L11.9336 6.72424H16.1476C20.2913 6.72424 20.3616 6.72424 20.514 6.80237ZM10.7971 19.1988C10.4378 19.6168 10.1293 19.9606 10.1058 19.9645C10.0746 19.9684 9.90275 18.8237 9.89494 18.5307L9.89104 18.4448H10.6721H11.4532L10.7971 19.1988Z" fill="#6776FE"/>
<path d="M6.625 6.06464C6.32083 6.18126 6.33333 6.13461 5.64167 9.37293C5.2875 11.0135 5 12.3974 5 12.4441C5 12.7123 5.32083 13 5.625 13C5.82917 13 6.07083 12.8639 6.15833 12.6968C6.20417 12.619 6.32917 12.1292 6.4375 11.6083L6.6375 10.6675H7.5H8.3625L8.5625 11.6083C8.67083 12.1292 8.79583 12.619 8.84167 12.6968C8.92917 12.8639 9.17083 13 9.375 13C9.67917 13 10 12.7123 10 12.4441C10 12.3974 9.7125 11.0135 9.35833 9.37293C8.6625 6.11906 8.67917 6.18126 8.3625 6.06075C8.14583 5.97911 6.8375 5.97911 6.625 6.06464ZM7.8625 8.33496L8.1125 9.50122H7.5H6.8875L7.1375 8.33496L7.3875 7.1687H7.5H7.6125L7.8625 8.33496Z" fill="#6776FE"/>
<path d="M16.712 10.0764C16.48 10.1932 16.4 10.384 16.4 10.8122V11.1626H15.44C14.552 11.1626 14.464 11.1704 14.32 11.2405C14.14 11.33 14 11.552 14 11.7466C14 12.0464 14.296 12.3306 14.608 12.3306C14.736 12.3306 14.744 12.3423 14.836 12.5915C15.096 13.3039 15.504 14.0436 15.948 14.6082L16.16 14.8807L15.972 15.0481C15.864 15.1415 15.544 15.4024 15.256 15.6243C14.912 15.8929 14.712 16.0798 14.668 16.1693C14.428 16.656 14.964 17.1855 15.452 16.9363C15.588 16.8701 16.088 16.4886 16.64 16.037C16.824 15.8812 16.988 15.7567 17 15.7567C17.012 15.7567 17.176 15.8812 17.36 16.037C17.912 16.4886 18.412 16.8701 18.548 16.9363C18.92 17.1232 19.4 16.8312 19.4 16.4224C19.4 16.1888 19.28 16.0448 18.744 15.6243C18.456 15.4024 18.136 15.1415 18.028 15.0481L17.84 14.8807L18.052 14.6082C18.496 14.0436 18.904 13.3039 19.164 12.5915C19.256 12.3423 19.264 12.3306 19.392 12.3306C19.704 12.3306 20 12.0464 20 11.7466C20 11.552 19.86 11.33 19.68 11.2405C19.536 11.1704 19.448 11.1626 18.56 11.1626H17.6V10.8122C17.6 10.3762 17.52 10.1932 17.28 10.0725C17.084 9.97519 16.904 9.97519 16.712 10.0764ZM17.96 12.3773C17.956 12.5603 17.104 14.0047 17 14.0047C16.896 14.0047 16.044 12.5603 16.04 12.3773C16.04 12.3423 16.26 12.3306 17 12.3306C17.74 12.3306 17.96 12.3423 17.96 12.3773Z" fill="#6776FE"/>
</svg>
