<svg width="17" height="12" viewBox="0 0 17 12" fill="none" xmlns="http://www.w3.org/2000/svg">
<path fill-rule="evenodd" clip-rule="evenodd" d="M15.4391 6.5572H5.36433C4.95 6.5572 4.61289 6.23948 4.61289 5.8488C4.61289 5.45812 4.95 5.1413 5.36433 5.1413H15.4391C15.8544 5.1413 16.1915 5.45812 16.1915 5.8488C16.1915 6.23948 15.8544 6.5572 15.4391 6.5572ZM15.4391 2.11283H5.36433C4.95 2.11283 4.61289 1.79601 4.61289 1.40533C4.61289 1.01465 4.95 0.697828 5.36433 0.697828H15.4391C15.8544 0.697828 16.1915 1.01465 16.1915 1.40533C16.1915 1.79601 15.8544 2.11283 15.4391 2.11283ZM2.13445 11.1884C1.57699 11.1884 1.125 10.7631 1.125 10.238C1.125 9.71293 1.57699 9.28665 2.13445 9.28665C2.69191 9.28665 3.14391 9.71293 3.14391 10.238C3.14391 10.7631 2.69191 11.1884 2.13445 11.1884ZM2.13445 6.80015C1.57699 6.80015 1.125 6.37387 1.125 5.8488C1.125 5.32374 1.57699 4.89835 2.13445 4.89835C2.69191 4.89835 3.14391 5.32374 3.14391 5.8488C3.14391 6.37387 2.69191 6.80015 2.13445 6.80015ZM2.13445 2.41097C1.57699 2.41097 1.125 1.98468 1.125 1.4605C1.125 0.934547 1.57699 0.509155 2.13445 0.509155C2.69191 0.509155 3.14391 0.934547 3.14391 1.4605C3.14391 1.98468 2.69191 2.41097 2.13445 2.41097ZM5.36433 9.58478H15.4391C15.8544 9.58478 16.1915 9.9016 16.1915 10.2923C16.1915 10.6839 15.8544 11.0007 15.4391 11.0007H5.36433C4.95 11.0007 4.61289 10.6839 4.61289 10.2923C4.61289 9.9016 4.95 9.58478 5.36433 9.58478Z" fill="white" stroke="white" stroke-width="0.5"/>
</svg>
