<svg width="24" height="18" viewBox="0 0 24 18" fill="none" xmlns="http://www.w3.org/2000/svg">
<path d="M2.47968 0.815634C2.24999 0.975008 2.13749 1.21876 2.16562 1.50938C2.19374 1.79532 2.31093 1.95938 2.57812 2.09532L2.78437 2.20313H8.775H14.7656V4.96407V7.72032L14.8688 7.87501C14.9297 7.95938 15.0375 8.07657 15.1078 8.12813C15.2391 8.22657 15.2813 8.22657 18.3188 8.24063L21.3985 8.2547L21.9469 8.9672L22.5 9.6797V11.6109V13.5469H21.7781H21.0563L20.9578 13.2516C20.6953 12.4688 19.9219 11.7094 19.1016 11.4375C17.5406 10.9172 15.8016 11.7563 15.2859 13.275L15.2016 13.5234H12.9656H10.7297L10.5984 13.1859C10.3359 12.5203 9.83438 11.9672 9.1875 11.6297C8.73281 11.3906 8.325 11.2875 7.82813 11.2875C7.29844 11.2828 6.94688 11.3625 6.49219 11.5781C5.75625 11.9344 5.15625 12.5953 4.93594 13.2984L4.86094 13.5422L3.77812 13.5563C2.58749 13.5703 2.50312 13.5891 2.27812 13.8891C2.13281 14.0859 2.13749 14.5453 2.28749 14.7563C2.49843 15.0516 2.57812 15.0703 3.78281 15.0844L4.86562 15.1031L4.96875 15.375C5.19375 15.9703 5.79375 16.6547 6.36094 16.9594C6.96562 17.2781 7.85625 17.3906 8.50781 17.2266C9.45938 16.9875 10.2563 16.2844 10.5984 15.3891L10.7109 15.0938H12.9656H15.2156L15.3 15.3516C15.4078 15.6984 15.7875 16.2563 16.1156 16.5469C16.4203 16.8188 17.0953 17.1703 17.475 17.2453C17.8688 17.325 18.5016 17.3063 18.9141 17.2031C19.7953 16.9781 20.5735 16.2891 20.9203 15.4219L21.0422 15.1172L22.2516 15.0938C23.4094 15.0703 23.4703 15.0656 23.6344 14.9625C23.7328 14.9016 23.8453 14.775 23.9016 14.6531C23.9953 14.4609 24 14.3906 24 11.9016C24 10.3734 23.9813 9.28595 23.9531 9.18751C23.925 9.09376 23.5922 8.62032 23.175 8.08595L22.4438 7.14845L21.3188 4.89845C20.7 3.66095 20.1422 2.57813 20.0766 2.48907C19.861 2.20782 19.8188 2.20313 17.9578 2.20313H16.275L16.2563 1.6922C16.2422 1.12501 16.1953 1.0172 15.8906 0.806259L15.7359 0.703135H9.19219H2.64843L2.47968 0.815634ZM19.7813 5.20313C20.1938 6.02813 20.5313 6.71251 20.5313 6.72657C20.5313 6.74063 19.5703 6.75001 18.3985 6.75001H16.2656V5.22657V3.70313H17.6484H19.0313L19.7813 5.20313ZM8.32969 12.8953C8.68594 13.0313 9 13.3313 9.16406 13.6969C9.27656 13.95 9.29063 14.0203 9.27188 14.3625C9.24375 14.8266 9.10313 15.1359 8.78438 15.4125C8.1 16.0172 7.04531 15.8859 6.55312 15.1313C6.13125 14.4891 6.21094 13.7438 6.75937 13.2094C7.17188 12.8109 7.77188 12.6891 8.32969 12.8953ZM18.7688 12.9328C19.7016 13.3875 19.9172 14.6484 19.1813 15.3609C18.4547 16.0688 17.25 15.8766 16.7953 14.9859C16.3688 14.1375 16.7953 13.1391 17.7188 12.8391C17.9531 12.7641 18.525 12.8156 18.7688 12.9328Z" fill="#6776FE"/>
<path d="M1.65941 3.8625C1.37347 3.98907 1.18597 4.36876 1.26097 4.6922C1.31722 4.94063 1.43909 5.09532 1.65941 5.20313C1.86097 5.29688 1.90784 5.29688 5.28753 5.28751C8.6766 5.27345 8.7141 5.27345 8.84535 5.17501C8.91566 5.12345 9.02347 5.00626 9.08441 4.92188C9.30003 4.60313 9.16878 4.09688 8.81253 3.89532C8.6391 3.79688 8.61566 3.79688 5.22191 3.79688C2.46566 3.80157 1.77659 3.81094 1.65941 3.8625Z" fill="#6776FE"/>
<path d="M0.42186 6.85312C0.135923 6.99844 -0.00938992 7.25625 0.0140476 7.56094C0.0374851 7.81406 0.14061 7.9875 0.374985 8.14219L0.529673 8.25H3.98436H7.43905L7.59374 8.14219C7.81874 7.99219 7.93124 7.81875 7.95468 7.58906C7.9828 7.28906 7.82343 6.99375 7.54686 6.85312L7.34061 6.75H3.98436H0.62811L0.42186 6.85312Z" fill="#6776FE"/>
<path d="M1.60774 9.84377C1.2093 10.0875 1.12493 10.6453 1.43899 10.9782C1.69211 11.25 1.70149 11.25 3.74055 11.25C5.60617 11.25 5.61086 11.25 5.81711 11.1422C6.22961 10.9219 6.35149 10.3735 6.06086 10.0313C5.8218 9.74534 5.8593 9.75002 3.71711 9.75002C1.85618 9.75002 1.74836 9.75471 1.60774 9.84377Z" fill="#6776FE"/>
</svg>
