<svg width="324" height="285" viewBox="0 0 324 285" fill="none" xmlns="http://www.w3.org/2000/svg">
<g clip-path="url(#clip0_145_630)">
<path d="M289.016 284.301C310.938 256.706 324 221.838 324 183.891C324 94.5337 251.475 22.1033 162 22.1033C72.5253 22.1033 0 94.5337 0 183.891C0 221.838 13.0973 256.706 34.9844 284.301H289.016Z" fill="#E4EDFF"/>
<path d="M284.428 247.613H255.747V284.405H284.428V247.613Z" fill="#FFA305"/>
<path d="M284.428 284.405V247.613H301.272L300.992 284.405H284.428Z" fill="#DE7F04"/>
<path d="M270.735 247.613H266.463V255.972H270.735V247.613Z" fill="#FFC766"/>
<path d="M242.51 284.405V247.613H255.747L255.537 284.405H242.51Z" fill="#DE7F04"/>
<path d="M257.323 218.935H236.066V247.613H257.323V218.935Z" fill="#DE7F04"/>
<path d="M238.553 247.613V218.935H221.813L222.023 247.613H238.553Z" fill="#FFA305"/>
<path d="M248.918 218.935H245.591V225.475H248.918V218.935Z" fill="#FFC766"/>
<path d="M292.693 218.935H271.436V247.613H292.693V218.935Z" fill="#FFA305"/>
<path d="M271.436 247.613V218.935H257.183L257.393 247.613H271.436Z" fill="#FFA305"/>
<path d="M292.693 218.935H279.945V247.613H292.693V218.935Z" fill="#DE7F04"/>
<path d="M243.175 247.613H213.479V284.405H243.175V247.613Z" fill="#FFA305"/>
<path d="M230.463 247.613H226.191V255.972H230.463V247.613Z" fill="#FFC766"/>
<path d="M270.07 218.935H266.743V225.475H270.07V218.935Z" fill="#FFC766"/>
<path d="M273.117 190.711H251.86V219.39H273.117V190.711Z" fill="#DE7F04"/>
<path d="M254.311 219.425V190.711H237.572L237.817 219.425H254.311Z" fill="#FFA305"/>
<path d="M264.712 190.711H261.385V197.251H264.712V190.711Z" fill="#FFC766"/>
<path d="M292.809 22.1407C292.833 14.4146 286.581 8.13169 278.845 8.10754C271.109 8.0834 264.818 14.3271 264.794 22.0533C264.769 29.7794 271.021 36.0623 278.758 36.0864C286.494 36.1106 292.785 29.8669 292.809 22.1407Z" fill="#D5E3FF"/>
<path d="M224.44 13.9895C222.303 1.29405 202.728 -4.40665 203.113 3.84712L113.463 4.37173C107.265 4.4067 102.222 10.0025 102.222 16.8223L102.047 252.3C102.047 259.399 107.16 265.205 113.498 265.24L205.039 266.009C205.599 267.198 206.685 268.283 208.331 269.192C218.837 269.402 223.879 264.226 225.7 258.385C226.296 256.811 226.611 255.063 226.611 253.244C226.226 250.271 225.105 16.9972 224.44 13.9895Z" fill="#4D4D4D"/>
<path d="M207.315 269.297L102.257 268.632C95.7081 268.597 90.3852 262.617 90.4202 255.342L90.8054 13.1851C90.8054 6.15539 96.0233 0.41972 102.467 0.384746L205.494 0.0350102C211.973 3.65531e-05 217.261 5.73571 217.331 12.8004L219.187 256.077C219.257 263.421 213.934 269.367 207.315 269.297Z" fill="#4D4D4D"/>
<path d="M208.786 267.548C208.366 267.618 207.91 267.618 207.455 267.618L102.432 266.849C96.7937 266.814 92.2062 261.568 92.2062 255.203L92.5564 13.29C92.5564 7.13466 97.1089 2.13343 102.607 2.09846L205.634 1.6438C205.809 1.6438 205.949 1.6438 206.124 1.6438C208.716 1.74872 211.132 2.93782 212.953 4.96629C214.809 7.02974 215.825 9.75768 215.86 12.6605L217.716 256.182C217.751 261.987 213.934 266.849 208.786 267.548Z" fill="#0D0D0D"/>
<path d="M212.253 13.8846L213.724 256.601L95.6732 255.902L95.9883 13.8846H212.253Z" fill="#F8FBFF"/>
<path d="M131.673 64.6662L144.7 64.5613L186.619 13.0452L173.521 13.1501L131.673 64.6662Z" fill="#6776FE"/>
<path d="M144.7 64.5613L157.728 64.4564L199.716 12.9402L186.619 13.0452L144.7 64.5613Z" fill="#F1E3E0"/>
<path d="M157.728 64.4564L170.79 64.3515L212.813 12.8353L199.716 12.9402L157.728 64.4564Z" fill="#6776FE"/>
<path d="M118.646 64.8061L131.673 64.6662L173.521 13.1501L160.424 13.255L118.646 64.8061Z" fill="#F1E3E0"/>
<path d="M92.5564 65.016L105.584 64.911L147.327 13.3599L134.23 13.4648L92.5564 65.016Z" fill="#F1E3E0"/>
<path d="M54.7354 65.2957L66.5019 65.2258L108.07 13.6747L96.2685 13.7796L54.7354 65.2957Z" fill="#6776FE"/>
<path d="M66.502 65.2258L79.5292 65.1209L121.132 13.5698L108.07 13.6747L66.502 65.2258Z" fill="#F1E3E0"/>
<path d="M105.584 64.911L118.646 64.8061L160.424 13.255L147.327 13.3599L105.584 64.911Z" fill="#6776FE"/>
<path d="M79.5292 65.1209L92.5564 65.0159L134.23 13.4648L121.132 13.5698L79.5292 65.1209Z" fill="#6776FE"/>
<path d="M157.728 64.4564V72.2905C157.728 80.6142 170.755 80.5093 170.755 72.1855V64.3514L157.728 64.4564Z" fill="#5F6FFF"/>
<path d="M144.7 64.5613V72.3954C144.7 80.7191 157.728 80.6142 157.728 72.2905V64.4564L144.7 64.5613Z" fill="#F1C5BC"/>
<path d="M131.673 64.6662V72.5003C131.673 80.824 144.7 80.7191 144.7 72.3954V64.5613L131.673 64.6662Z" fill="#5F6FFF"/>
<path d="M118.646 64.8061L118.681 72.6402C118.716 80.9639 131.708 80.859 131.708 72.5353V64.7012L118.646 64.8061Z" fill="#F1C5BC"/>
<path d="M105.584 64.911L105.619 72.7451C105.654 81.0688 118.681 80.9639 118.646 72.6402L118.611 64.8061L105.584 64.911Z" fill="#5F6FFF"/>
<path d="M92.5564 65.0159L92.5914 72.85C92.6264 81.1737 105.654 81.0688 105.619 72.7451L105.584 64.911L92.5564 65.0159Z" fill="#F1C5BC"/>
<path d="M79.5292 65.1209L79.5642 72.955C79.5992 81.2787 92.6264 81.1738 92.5914 72.8501L92.5564 65.016L79.5292 65.1209Z" fill="#5F6FFF"/>
<path d="M66.502 65.2258L66.572 73.0599C66.642 81.3836 79.6343 81.2787 79.5992 72.9549L79.5642 65.1208L66.502 65.2258Z" fill="#F1C5BC"/>
<path d="M54.7354 65.2957L54.8055 73.1298C54.8755 81.4535 66.607 81.3486 66.537 73.0249L66.4669 65.1908L54.7354 65.2957Z" fill="#5F6FFF"/>
<path d="M170.79 64.3515L169.774 64.4914L212.848 64.1066L212.813 12.8353L170.79 64.3515Z" fill="#F1E3E0"/>
<path d="M205.879 184.801L102.677 184.696V183.332L205.879 183.472V184.801Z" fill="#04F2F5"/>
<path d="M205.879 222.922L102.677 222.817V221.453L205.879 221.558V222.922Z" fill="#04F2F5"/>
<path d="M205.879 145.84L102.677 145.7V144.581L205.879 144.721V145.84Z" fill="#04F2F5"/>
<path d="M196.669 96.3873L112.062 95.8977C109.016 95.8627 106.529 93.3446 106.529 90.2319C106.529 87.1193 109.016 84.6362 112.062 84.6362L196.669 85.1957C199.681 85.2307 202.132 87.7488 202.132 90.8265C202.132 93.9042 199.681 96.4223 196.669 96.3873ZM112.062 85.0209C109.226 84.9859 106.914 87.3291 106.914 90.2319C106.914 93.1348 109.226 95.478 112.062 95.513L196.669 96.0026C199.471 96.0026 201.782 93.6943 201.782 90.8265C201.782 87.9587 199.506 85.5805 196.669 85.5805L112.062 85.0209Z" fill="#04F2F5"/>
<path d="M196.669 85.4056L187.879 85.3356V96.1425L196.669 96.1775C199.576 96.1775 201.957 93.7993 201.957 90.7915C201.957 87.8537 199.576 85.4056 196.669 85.4056Z" fill="#04F2F5"/>
<path d="M193.412 92.3304C192.677 92.3304 192.012 92.0156 191.486 91.491C190.436 90.4069 190.436 88.6232 191.486 87.539C192.012 87.0144 192.677 86.7346 193.412 86.7346C194.148 86.7346 194.813 87.0494 195.338 87.574C196.389 88.6582 196.389 90.4418 195.338 91.526C194.813 92.0506 194.148 92.3654 193.412 92.3304ZM193.412 87.4341C192.852 87.4341 192.327 87.6439 191.942 88.0636C191.136 88.903 191.136 90.232 191.942 91.0714C192.327 91.491 192.852 91.7009 193.412 91.7009C193.973 91.7009 194.498 91.491 194.883 91.0714C195.689 90.232 195.689 88.903 194.883 88.0636C194.498 87.6439 193.973 87.4341 193.412 87.4341Z" fill="#4489C8"/>
<path d="M196.949 93.6944L194.883 91.526L195.338 91.0714L197.405 93.2047L196.949 93.6944Z" fill="#4489C8"/>
<path d="M197.86 94.149C197.615 94.3938 197.265 94.3938 197.019 94.149L195.268 92.3654L196.109 91.526L197.86 93.3096C198.105 93.5545 198.105 93.9392 197.86 94.149Z" fill="#4489C8"/>
<path d="M135.49 139.72L106.529 139.58V110.062L135.49 110.237V139.72Z" fill="#E4EDFF"/>
<path d="M169.179 139.894L140.323 139.755V110.237L169.179 110.412V139.894Z" fill="#E4EDFF"/>
<path d="M202.062 140.034L173.241 139.895V110.447L202.062 110.622V140.034Z" fill="#E4EDFF"/>
<path d="M135.49 179.31L106.529 179.24V149.687L135.49 149.827V179.31Z" fill="#E4EDFF"/>
<path d="M169.179 179.415L140.323 179.345V149.827L169.179 149.967V179.415Z" fill="#E4EDFF"/>
<path d="M202.062 179.52L173.241 179.45V150.002L202.062 150.107V179.52Z" fill="#E4EDFF"/>
<path d="M135.49 218.235L106.529 218.165V188.648L135.49 188.718V218.235Z" fill="#E4EDFF"/>
<path d="M169.179 218.27L140.323 218.235V188.753L169.179 188.823V218.27Z" fill="#E4EDFF"/>
<path d="M202.062 218.34L173.241 218.305V188.823L202.062 188.927V218.34Z" fill="#E4EDFF"/>
<path d="M128.942 132.41L128.311 132.2C128.311 132.165 129.432 127.269 129.537 125.415C129.642 123.177 128.942 121.184 127.541 119.68C125.93 117.966 123.479 116.952 120.817 116.917C118.226 116.917 115.949 117.791 114.444 119.4C113.043 120.904 112.377 122.932 112.517 125.31C112.623 127.199 113.568 131.92 113.568 131.955L112.903 132.095C112.868 131.886 111.957 127.269 111.852 125.345C111.712 122.792 112.447 120.554 113.953 118.945C115.599 117.197 118.016 116.217 120.817 116.252C123.654 116.252 126.28 117.336 128.031 119.225C129.572 120.869 130.307 123.037 130.202 125.485C130.097 127.409 129.012 132.2 128.942 132.41Z" fill="#03ABB0"/>
<path d="M112.938 128.913L113.813 133.704C113.918 134.229 114.374 134.578 114.864 134.544L113.638 127.759C113.148 127.899 112.868 128.388 112.938 128.913Z" fill="#03ABB0"/>
<path d="M115.004 134.543L116.895 134.194L115.634 127.409L113.743 127.759C113.708 127.759 113.673 127.759 113.638 127.794L114.864 134.578C114.934 134.543 114.969 134.543 115.004 134.543Z" fill="#03ABB0"/>
<path d="M117.385 134.858C116.825 134.963 116.265 134.578 116.16 133.984L115.039 127.829C114.934 127.234 115.319 126.674 115.879 126.57C116.44 126.465 117 126.849 117.105 127.444L118.226 133.599C118.366 134.159 117.981 134.753 117.385 134.858Z" fill="#F8FBFF"/>
<path d="M128.977 129.088L127.996 133.844C127.891 134.369 127.436 134.683 126.911 134.648L128.311 127.898C128.802 128.038 129.082 128.563 128.977 129.088Z" fill="#03ABB0"/>
<path d="M126.77 134.613L124.879 134.194L126.28 127.444L128.171 127.864C128.206 127.864 128.241 127.899 128.276 127.899L126.875 134.648C126.875 134.613 126.84 134.613 126.77 134.613Z" fill="#03ABB0"/>
<path d="M124.389 134.823C124.949 134.963 125.545 134.578 125.65 133.984L126.946 127.899C127.086 127.304 126.7 126.744 126.14 126.605C125.58 126.465 124.984 126.849 124.879 127.444L123.584 133.529C123.444 134.124 123.829 134.718 124.389 134.823Z" fill="#F8FBFF"/>
<path d="M158.393 120.799L157.728 122.023L145.331 121.953V132.795L164.171 132.865V122.198L163.436 120.799H158.393Z" fill="#F8FBFF"/>
<path d="M156.922 122.548H152.58V120.764H156.922V122.548Z" fill="#F8FBFF"/>
<path d="M151.144 122.513H146.767V120.729H151.144V122.513Z" fill="#F8FBFF"/>
<path d="M164.171 130.766L145.331 130.696V124.436L164.171 124.541V130.766Z" fill="#03ABB0"/>
<path d="M162.876 127.654C162.876 130.102 160.949 132.06 158.568 132.06C156.187 132.06 154.261 130.067 154.261 127.619C154.261 125.171 156.187 123.212 158.568 123.212C160.949 123.212 162.876 125.206 162.876 127.654Z" fill="#03ABB0"/>
<path d="M161.895 127.654C161.895 129.542 160.389 131.081 158.533 131.046C156.677 131.046 155.171 129.507 155.171 127.619C155.171 125.73 156.677 124.191 158.533 124.226C160.389 124.226 161.895 125.765 161.895 127.654Z" fill="#F8FBFF"/>
<path d="M160.144 127.619C160.144 128.528 159.444 129.262 158.533 129.262C157.658 129.262 156.922 128.528 156.922 127.619C156.922 126.709 157.623 125.975 158.533 125.975C159.444 126.01 160.144 126.744 160.144 127.619Z" fill="#4489C8"/>
<path d="M132.233 212.08C132.093 209.107 125.44 207.254 125.44 207.254C125.44 207.254 119.346 200.574 116.79 197.216C112.447 198.895 111.432 200.993 112.062 204.631C114.163 202.847 117.77 206.135 122.148 212.08H132.233Z" fill="#03ABB0"/>
<path d="M112.062 204.596L113.498 212.325H114.198C114.409 208.828 114.829 204.876 117.14 206.17C117.14 203.057 112.062 203.057 112.062 204.596Z" fill="#03ABB0"/>
<path d="M122.988 154.339C122.848 153.954 122.778 153.534 122.743 153.149H122.428C122.428 153.534 122.323 153.919 122.288 154.129C122.078 154.968 121.412 155.633 120.677 155.668C119.907 155.633 119.276 154.968 119.066 154.129C118.996 153.919 118.926 153.534 118.926 153.149H118.611C118.576 153.569 118.506 153.954 118.366 154.339C118.051 155.283 117.49 156.087 116.825 156.752L117.35 161.578H120.572H120.852H124.074L124.599 156.752C123.864 156.087 123.303 155.283 122.988 154.339Z" fill="#F8FBFF"/>
<path d="M128.136 174.274C126.7 175.742 114.864 175.847 113.078 174.239C113.883 169.657 114.934 165.25 117.245 161.578L124.004 161.613C126.035 164.761 127.226 169.342 128.136 174.274Z" fill="#F8FBFF"/>
<path d="M121.202 162.732C118.471 162.732 117.175 161.543 117.105 161.508C117.07 161.473 117.07 161.403 117.105 161.368C117.14 161.333 117.21 161.333 117.245 161.368C117.245 161.368 118.541 162.522 121.202 162.557C123.549 162.557 123.899 161.613 123.899 161.578C123.899 161.508 123.969 161.508 124.039 161.508C124.109 161.508 124.109 161.578 124.109 161.648C124.074 161.683 123.759 162.732 121.202 162.732Z" fill="#4489C8"/>
<path d="M120.922 164.586C120.852 164.586 120.782 164.551 120.712 164.446C120.222 163.816 121.447 162.662 121.588 162.522L121.798 162.313L121.728 162.627C121.658 163.047 121.377 164.446 120.957 164.551C120.992 164.586 120.957 164.586 120.922 164.586ZM121.517 162.942C121.132 163.362 120.642 164.026 120.887 164.341C120.922 164.376 120.922 164.411 120.957 164.376C121.097 164.341 121.342 163.642 121.517 162.942Z" fill="#4489C8"/>
<path d="M121.553 162.872V162.627C121.553 162.557 121.588 161.123 122.148 160.634C122.288 160.494 122.463 160.459 122.673 160.494C122.883 160.529 122.988 160.634 122.988 160.739C123.163 161.263 121.973 162.487 121.728 162.732L121.553 162.872ZM122.568 160.704C122.463 160.704 122.358 160.739 122.288 160.809C121.938 161.123 121.798 161.963 121.763 162.383C122.253 161.858 122.883 161.088 122.778 160.809C122.778 160.774 122.743 160.739 122.603 160.704C122.638 160.704 122.603 160.704 122.568 160.704Z" fill="#4489C8"/>
<path d="M123.584 164.376C123.549 164.376 123.514 164.341 123.479 164.306C122.883 163.047 121.658 162.732 121.623 162.697C121.553 162.697 121.553 162.627 121.553 162.557C121.553 162.487 121.623 162.487 121.693 162.487C121.763 162.487 123.023 162.872 123.654 164.201C123.689 164.236 123.654 164.306 123.619 164.341C123.619 164.376 123.584 164.376 123.584 164.376Z" fill="#4489C8"/>
<path d="M151.424 157.521C151.424 157.521 153.455 158.221 156.432 157.451C158.323 159.794 154.996 160.914 152.895 160.424C150.794 159.899 151.424 157.521 151.424 157.521Z" fill="#F8FBFF"/>
<path d="M156.432 157.451C156.257 158.081 155.942 158.64 155.311 159.025C153.875 159.864 152.054 158.955 151.424 157.556C150.303 157.696 149.323 157.941 148.588 158.186V174.413L159.794 174.448V158.221C158.813 157.801 157.623 157.556 156.432 157.451Z" fill="#03ABB0"/>
<path d="M148.588 158.151L143.755 161.963L146.942 166.195L151.669 162.627L148.588 158.151Z" fill="#03ABB0"/>
<path d="M159.829 158.186L164.661 162.033L161.51 166.265L156.782 162.627L159.829 158.186Z" fill="#03ABB0"/>
<path d="M176.918 171.755H176.708V172.735C176.708 172.735 188.79 173.609 193.518 172.805C198.28 172 198.595 170.391 198.595 170.391V169.412H198.42L176.918 171.755Z" fill="#03ABB0"/>
<path d="M198.42 169.867C197.16 171.511 193.412 172 188.685 172.07C186.724 172.105 184.623 172.07 182.486 172C180.665 171.93 178.774 171.86 176.953 171.79C176.778 170.426 177.234 167.838 177.619 166.439C177.724 165.985 177.864 165.635 177.934 165.495L178.004 165.46C178.634 166.335 180.175 166.859 181.086 166.859C182.591 166.824 184.272 165.775 183.782 164.516C183.712 164.341 183.642 164.201 183.607 164.061C183.222 162.802 184.272 162.802 185.848 163.781C188.65 165.565 191.136 166.195 193.132 166.509C193.553 166.579 193.938 166.614 194.323 166.684C197.09 167.034 198.665 167.034 198.42 169.867Z" fill="#F8FBFF"/>
<path d="M198.245 169.867C196.985 171.511 193.237 172 188.51 172.07C188.37 171.371 188.265 169.552 190.681 169.097C192.537 168.748 193.588 167.559 194.113 166.684C196.914 167.034 198.49 167.034 198.245 169.867Z" fill="#03ABB0"/>
<path d="M182.311 171.965C180.49 171.895 178.599 171.825 176.778 171.755C176.603 170.391 177.058 167.803 177.444 166.404C179.019 166.964 181.786 168.433 182.311 171.965Z" fill="#03ABB0"/>
<path d="M193.097 166.509C192.747 167.069 192.187 167.104 191.662 167.104C186.899 166.754 184.483 164.866 183.572 164.061C183.187 162.802 184.237 162.802 185.813 163.781C188.615 165.53 191.101 166.195 193.097 166.509Z" fill="#03ABB0"/>
<path d="M187.424 172.245C184.973 172.245 182.521 172.105 180.525 172C178.774 171.895 177.374 171.825 176.813 171.895H176.708L176.673 171.72H176.778C177.374 171.65 178.774 171.72 180.525 171.825C186.128 172.14 196.564 172.735 198.35 169.377L198.385 169.307L198.56 169.412L198.525 169.482C197.265 171.755 192.362 172.245 187.424 172.245Z" fill="#D4E7F7"/>
<path d="M190.926 134.963L184.868 134.928V116.077L190.926 116.112V134.963Z" fill="#03ABB0"/>
<path d="M193.027 125.276C193.027 128.318 190.611 130.731 187.669 130.731C184.693 130.731 182.311 128.248 182.311 125.206C182.311 122.163 184.728 119.75 187.669 119.75C190.611 119.785 193.027 122.233 193.027 125.276Z" fill="#F8FBFF"/>
<path d="M191.977 125.276C191.977 127.724 190.051 129.682 187.669 129.682C185.288 129.682 183.362 127.689 183.362 125.241C183.362 122.792 185.288 120.834 187.669 120.834C190.051 120.834 191.977 122.827 191.977 125.276Z" fill="#03ABB0"/>
<path d="M183.292 122.792L182.591 122.303L183.397 121.114L184.097 121.603L183.292 122.792Z" fill="#F8FBFF"/>
<path d="M182.633 125.186L181.8 125.296L181.992 126.752L182.825 126.642L182.633 125.186Z" fill="#F8FBFF"/>
<path d="M191.977 122.827L192.677 122.338L191.872 121.114L191.206 121.603L191.977 122.827Z" fill="#F8FBFF"/>
<path d="M192.432 126.744L193.272 126.884L193.482 125.45L192.642 125.31L192.432 126.744Z" fill="#F8FBFF"/>
<path d="M187.669 125.485L185.568 124.366C185.463 124.296 185.428 124.191 185.498 124.086C185.533 123.982 185.673 123.947 185.778 124.017L187.669 125.031L190.366 123.282C190.471 123.212 190.576 123.247 190.646 123.352C190.716 123.457 190.681 123.562 190.576 123.632L187.669 125.485Z" fill="#F8FBFF"/>
<path d="M144.35 208.058C145.366 208.373 146.802 208.618 148.447 208.792C151.144 209.107 154.436 209.212 157.237 209.072C160.004 208.967 162.315 208.653 163.191 208.058C163.191 208.058 165.047 196.866 154.156 196.587C154.051 196.587 153.911 196.587 153.77 196.587C142.494 196.622 144.35 208.058 144.35 208.058Z" fill="#03ABB0"/>
<path d="M148.447 208.827C151.144 209.142 154.436 209.247 157.237 209.107C158.778 198.965 154.401 196.762 154.156 196.657H153.805C148.027 199.909 148.307 207.184 148.447 208.827Z" fill="#F8FBFF"/>
<path d="M162 208.548C162 208.548 158.918 213.759 144.63 212.57C138.502 212.045 144.35 208.093 144.35 208.093C148.202 209.002 155.626 209.457 162 208.548Z" fill="#03ABB0"/>
<path d="M184.237 199.769H190.821C194.568 199.769 197.685 202.847 197.685 206.694C197.685 208.233 197.195 209.562 196.039 210.296L178.704 210.261C177.619 209.737 177.198 207.918 177.479 205.75C177.899 202.322 180.805 199.769 184.237 199.769Z" fill="#03ABB0"/>
<path d="M185.218 199.979V199.909C185.323 198.615 186.409 197.601 187.704 197.601C189 197.601 190.086 198.615 190.191 199.909V199.979H191.031V199.839C190.891 198.091 189.42 196.727 187.704 196.727C185.988 196.727 184.518 198.091 184.377 199.804V199.944L185.218 199.979Z" fill="#03ABB0"/>
<path d="M186.934 210.296H185.288V203.791H186.934V210.296Z" fill="#F8FBFF"/>
<path d="M190.156 210.296H188.51V203.791H190.156V210.296Z" fill="#F8FBFF"/>
<path d="M213.689 243.661H95.6732V256.601H213.689V243.661Z" fill="#04F2F5"/>
<path d="M160.459 254.048H153.35V248.907L156.887 246.214L160.459 248.907V254.048Z" fill="#F8FBFF"/>
<path d="M118.366 247.788H109.541V252.475H118.366V247.788Z" fill="#F8FBFF"/>
<path d="M205.249 247.788H196.424V252.475H205.249V247.788Z" fill="#F8FBFF"/>
<path d="M234.56 265.939H112.588V275.487H234.56V265.939Z" fill="#0D0D0D"/>
<path d="M198.525 265.939H59.3229V275.487H198.525V265.939Z" fill="#4D4D4D"/>
<path d="M191.031 275.452H31.3424V285H191.031V275.452Z" fill="#4D4D4D"/>
<path d="M234.56 275.452H178.564V285H234.56V275.452Z" fill="#0D0D0D"/>
<path d="M110.521 175.917C107.475 184.836 109.366 203.791 104.988 216.277C98.2295 235.652 101.591 244.186 98.5096 259.12L105.619 259.644C112.237 230.301 127.015 188.753 128.836 179.31C130.658 169.902 113.393 168.608 110.521 175.917Z" fill="#014A91"/>
<path d="M121.728 186.829C122.008 190.292 126.77 210.331 124.039 219.879C119.731 234.988 121.973 261.323 121.973 261.323L127.716 261.288C133.284 236.806 140.883 201.133 140.288 178.61C139.447 169.132 119.942 165.81 121.728 186.829Z" fill="#014A91"/>
<path d="M125.089 190.431C133.483 190.431 140.288 185.28 140.288 178.925C140.288 172.57 133.483 167.419 125.089 167.419C116.696 167.419 109.891 172.57 109.891 178.925C109.891 185.28 116.696 190.431 125.089 190.431Z" fill="#014A91"/>
<path d="M129.957 273.564C129.362 273.214 128.101 272.934 128.101 272.934L126.875 267.513L133.284 237.891L121.097 236.736L121.132 265.45L120.222 268.772C120.222 268.772 124.389 274.963 125.335 274.963C126.28 274.963 129.957 275.033 130.552 275.033C130.552 274.683 130.482 273.843 129.957 273.564Z" fill="#A64B30"/>
<path d="M120.187 268.772L121.062 275.347H121.447L124.354 268.527L120.187 268.772Z" fill="#A64B30"/>
<path d="M106.424 273.564C105.829 273.214 104.603 272.934 104.603 272.934L103.693 267.513L111.852 236.562L100.541 235.302L98.0544 265.45L96.8287 268.527C96.8287 268.527 100.716 274.963 101.696 274.963C102.642 274.963 106.319 275.033 106.914 275.033C106.949 274.683 106.949 273.843 106.424 273.564Z" fill="#A64B30"/>
<path d="M96.8638 268.527L97.4241 275.347H97.8093L101.136 268.527H96.8638Z" fill="#A64B30"/>
<path d="M116.405 164.376C112.588 168.923 110.766 173.504 110.066 177.876C110.066 177.876 115.004 181.653 123.899 181.688C128.381 181.688 137.907 180.569 140.218 177.946C139.938 175.533 139.097 170.077 136.576 162.977C134.3 156.542 119.766 155.912 116.405 164.376Z" fill="#014A91"/>
<path d="M121.693 180.464C122.603 177.456 122.778 173.924 122.778 173.924L113.638 173.119C113.323 175.428 113.043 177.596 112.973 179.45L116.86 182.387L121.693 180.464Z" fill="#0D64B8"/>
<path d="M135.14 181.023C135.875 177.981 135.875 174.413 135.875 174.413L126.7 174.099C126.49 176.407 126.35 178.575 126.385 180.429L130.447 183.157L135.14 181.023Z" fill="#0D64B8"/>
<path d="M118.961 135.873C118.961 135.873 111.082 130.067 95.393 155.982C93.3969 159.27 86.6381 175.043 86.6381 175.043L90.7004 177.701L102.852 160.494C102.852 160.494 127.191 140.139 118.961 135.873Z" fill="#F7A58E"/>
<path d="M83.4864 186.829C83.4514 186.829 83.4514 186.829 83.4514 186.794C83.4163 186.759 83.4163 186.689 83.4514 186.619C83.4864 186.584 87.7938 182.073 87.5837 179.52C87.5486 179.03 87.3385 178.645 86.9533 178.365C84.3969 176.407 77.8132 183.227 77.7782 183.262C77.7432 183.297 77.6731 183.297 77.6031 183.262C77.5681 183.227 77.5681 183.157 77.6031 183.087C77.8833 182.807 84.3619 176.092 87.0934 178.156C87.5136 178.47 87.7588 178.925 87.7938 179.485C88.0039 182.143 83.7665 186.584 83.5914 186.759C83.5564 186.829 83.5214 186.829 83.4864 186.829Z" fill="#103558"/>
<path d="M81.2451 185.29C81.2101 185.29 81.2101 185.255 81.1751 185.255C81.1401 185.22 81.1401 185.15 81.2101 185.115C81.2802 185.08 86.7082 181.233 86.7432 178.925C86.7432 178.505 86.5681 178.156 86.2179 177.876C83.6265 175.917 75.572 181.723 75.502 181.758C75.4669 181.793 75.3969 181.793 75.3619 181.723C75.3268 181.688 75.3269 181.618 75.3969 181.583C75.7471 181.338 83.6615 175.638 86.393 177.701C86.8132 178.016 87.0233 178.435 86.9883 178.925C86.9533 181.373 81.5953 185.15 81.3502 185.29C81.3152 185.29 81.2802 185.29 81.2451 185.29Z" fill="#103558"/>
<path d="M70.7043 178.086L47.7315 205.33L55.7159 210.611L74.9066 180.849L70.7043 178.086Z" fill="#F05B5B"/>
<path d="M75.8871 181.513L55.6459 210.576L68.7432 219.25L86.498 188.508L75.8871 181.513Z" fill="#E54547"/>
<path d="M73.821 180.114L55.0506 204.036L55.716 210.611L75.9222 181.513L73.821 180.114Z" fill="#F1696A"/>
<path d="M55.0506 204.036L47.6965 205.295L55.6459 210.576L55.0506 204.036Z" fill="#F05B5B"/>
<path d="M79.0739 184.136L59.8132 215.018L68.6732 219.18L83.6965 186.339L79.0739 184.136Z" fill="#4CC3D1"/>
<path d="M84.7821 186.829L68.6031 219.18L83.1011 226L96.5486 192.39L84.7821 186.829Z" fill="#26BDC5"/>
<path d="M82.4708 185.745L67.0272 212.64L68.6731 219.18L84.8171 186.864L82.4708 185.745Z" fill="#6FCBD8"/>
<path d="M67.0272 212.64L59.7782 215.018L68.6031 219.18L67.0272 212.64Z" fill="#4CC3D1"/>
<path d="M90.8755 177.421L89.4047 180.009C89.4047 180.009 90.6654 181.268 90.105 182.073C88.5292 183.821 84.642 183.192 83.8716 182.492C83.0661 181.793 82.2957 179.974 82.891 178.61C83.5214 177.246 86.6381 175.043 86.6381 175.043C86.6381 175.043 90.4552 175.882 90.8755 177.421Z" fill="#F7A58E"/>
<path d="M128.556 142.203L117.385 142.552L119.696 123.807L128.626 123.527L128.556 142.203Z" fill="#F7A58E"/>
<path d="M134.72 116.427C135.665 123.912 134.089 129.542 128.591 130.137C123.128 130.696 115.529 124.261 114.899 118.491C114.303 112.72 118.226 107.614 123.724 107.054C129.187 106.46 133.984 110.692 134.72 116.427Z" fill="#F7A58E"/>
<path d="M132.934 118.176C133.144 119.295 132.409 120.344 131.323 120.554C130.202 120.764 129.152 120.029 128.942 118.945C128.732 117.826 129.467 116.777 130.553 116.567C131.638 116.357 132.724 117.092 132.934 118.176Z" fill="#F7A58E"/>
<path d="M137.837 148.253C137.802 150.352 137.626 165.81 137.626 165.81C137.626 165.81 124.669 165.006 116.019 164.866C112.062 148.393 107.23 140.559 116.895 135.103C130.588 129.927 137.907 140.909 137.837 148.253Z" fill="#0386C2"/>
<path d="M130.763 134.159C120.747 137.446 116.93 135.068 116.93 135.068C119.066 133.389 127.121 132.2 130.763 134.159Z" fill="#F7A58E"/>
<path d="M93.5019 191.376C93.4669 191.376 93.4319 191.341 93.4319 191.271C93.4319 191.201 92.0311 183.402 89.3696 180.009C89.3346 179.974 89.3346 179.904 89.4046 179.869C89.4397 179.834 89.5097 179.834 89.5447 179.904C92.2412 183.367 93.642 191.201 93.677 191.271C93.677 191.341 93.642 191.376 93.572 191.411C93.5369 191.376 93.5019 191.376 93.5019 191.376Z" fill="#103558"/>
<path d="M86.8482 188.263C86.8132 188.263 86.8132 188.263 86.8132 188.228C86.7781 188.193 82.4357 184.031 82.5758 179.485C82.5758 179.415 82.6459 179.38 82.6809 179.38C82.7509 179.38 82.7859 179.45 82.7859 179.485C82.6459 183.926 86.8832 188.018 86.9532 188.053C86.9883 188.088 86.9883 188.158 86.9532 188.228C86.9182 188.263 86.8832 188.263 86.8482 188.263Z" fill="#103558"/>
<path d="M175.903 128.808C177.654 126.919 178.809 125.171 178.459 124.856C178.109 124.541 176.428 125.765 174.642 127.584C173.381 128.878 174.957 129.612 175.903 128.808Z" fill="#F7A58E"/>
<path d="M175.237 127.024L170.93 130.487C169.599 131.361 167.638 132.655 165.537 134.054C161.405 136.782 156.432 139.23 154.016 140.839C154.016 140.839 145.961 137.901 138.082 135.907C131.778 134.299 125.51 134.124 124.424 136.992C122.218 142.902 129.117 145.945 140.288 147.798C145.961 148.778 152.72 149.582 154.751 148.393C158.498 146.225 163.821 142.797 168.584 137.831C170.124 136.222 171.49 134.753 172.541 133.564C172.716 133.634 172.926 133.704 173.101 133.739C173.101 133.739 176.463 133.424 177.093 131.501C177.654 129.367 175.412 127.164 175.237 127.024Z" fill="#F7A58E"/>
<path d="M141.093 136.117C141.093 136.117 142.249 138.356 141.374 143.042C141.058 144.721 140.323 146.504 138.992 148.078C133.284 147.239 122.288 144.476 123.444 137.271C124.634 130.032 141.093 136.117 141.093 136.117Z" fill="#0386C2"/>
<path d="M118.716 133.739C118.716 133.739 110.591 135.033 104.463 143.077C108.07 148.988 113.463 151.75 113.463 151.75C113.463 151.75 122.743 145.21 123.654 139.755C124.564 134.299 118.716 133.739 118.716 133.739Z" fill="#0386C2"/>
<path d="M137.171 111.986C137.241 107.369 133.739 106.215 133.739 106.215C135.28 100.934 128.276 97.5764 121.588 100.969C121.588 100.969 118.891 99.43 114.338 102.228C108.105 105.9 108.735 113.629 108.735 113.629C101.521 115.693 98.6848 122.163 100.786 127.968C100.786 127.968 92.3813 131.151 93.8171 139.685C95.2529 148.183 102.362 149.058 102.362 149.058C102.362 149.058 104.323 161.753 113.953 160.704C123.584 159.655 124.039 151.82 124.039 151.82C124.039 151.82 131.918 154.583 135.35 145.875C138.782 137.167 130.447 132.375 130.447 132.375C130.447 132.375 135.49 130.102 135.42 124.646C135.35 121.149 133.389 118.98 131.988 117.861C135.175 116.112 137.136 114.539 137.171 111.986Z" fill="#0D0D0D"/>
<path d="M239.673 147.204L240.969 151.261H245.101L241.739 153.744L243.035 157.766L239.673 155.283L236.346 157.766L237.607 153.744L234.245 151.261H238.412L239.673 147.204Z" fill="#FDDA6D"/>
<path d="M254.521 147.204L255.817 151.261H259.949L256.587 153.744L257.883 157.766L254.521 155.283L251.194 157.766L252.455 153.744L249.093 151.261H253.261L254.521 147.204Z" fill="#FDDA6D"/>
<path d="M269.37 147.204L270.665 151.261H274.798L271.436 153.744L272.731 157.766L269.37 155.283L266.043 157.766L267.303 153.744L263.977 151.261H268.109L269.37 147.204Z" fill="#FDDA6D"/>
<path d="M284.218 147.204L285.514 151.261H289.646L286.284 153.744L287.58 157.766L284.218 155.283L280.891 157.766L282.152 153.744L278.825 151.261H282.957L284.218 147.204Z" fill="#FDDA6D"/>
<path d="M262.226 117.616C267.08 117.616 271.016 113.686 271.016 108.838C271.016 103.99 267.08 100.06 262.226 100.06C257.371 100.06 253.436 103.99 253.436 108.838C253.436 113.686 257.371 117.616 262.226 117.616Z" fill="#029A65"/>
<path d="M268.039 104.256C265.833 104.956 263.066 107.439 261.525 110.167C261.07 109.048 259.669 108.208 259.004 108.069L257.358 110.272C258.654 110.622 260.23 111.951 260.65 113.454H262.646C263.206 111.741 264.712 107.649 268.599 104.991C268.459 104.676 268.074 104.291 268.039 104.256Z" fill="#F8FBFF"/>
<path d="M269.615 133.774H254.031C253.716 133.774 253.436 133.564 253.366 133.284L250.389 123.912C250.319 123.702 250.354 123.457 250.494 123.282C250.634 123.107 250.844 123.002 251.054 123.002H272.626C272.872 123.002 273.082 123.107 273.187 123.282C273.327 123.457 273.362 123.702 273.292 123.912L270.315 133.284C270.21 133.564 269.93 133.774 269.615 133.774ZM254.556 132.34H269.124L271.646 124.401H252.035L254.556 132.34Z" fill="#0D0D0D"/>
<path d="M268.354 137.726H255.047C254.661 137.726 254.346 137.411 254.346 136.992C254.346 136.607 254.661 136.257 255.047 136.257H267.829C268.704 136.222 269.089 135.628 269.159 134.998C269.23 134.439 269.019 133.879 268.634 133.704L273.117 119.54C273.222 119.225 273.502 119.05 273.782 119.05H278.44C278.825 119.05 279.14 119.365 279.14 119.785C279.14 120.169 278.825 120.519 278.44 120.519H274.307L270.175 133.669C271.296 135.488 269.825 137.726 268.354 137.726Z" fill="#0D0D0D"/>
<path d="M259.424 140.139C259.424 141.049 258.689 141.783 257.778 141.783C256.868 141.783 256.132 141.049 256.132 140.139C256.132 139.23 256.868 138.496 257.778 138.496C258.689 138.496 259.424 139.23 259.424 140.139Z" fill="#0D0D0D"/>
<path d="M267.689 140.139C267.689 141.049 266.953 141.783 266.043 141.783C265.132 141.783 264.397 141.049 264.397 140.139C264.397 139.23 265.132 138.496 266.043 138.496C266.953 138.496 267.689 139.23 267.689 140.139Z" fill="#0D0D0D"/>
<path d="M262.226 133.774C261.84 133.774 261.525 133.459 261.525 133.04V123.667C261.525 123.282 261.84 122.932 262.226 122.932C262.611 122.932 262.926 123.247 262.926 123.667V133.04C262.926 133.459 262.611 133.774 262.226 133.774Z" fill="#0D0D0D"/>
<path d="M258.233 133.774C257.918 133.774 257.603 133.564 257.533 133.215L255.432 123.842C255.362 123.457 255.572 123.072 255.957 122.967C256.342 122.862 256.728 123.107 256.798 123.492L258.899 132.865C258.969 133.25 258.759 133.634 258.374 133.739C258.339 133.774 258.304 133.774 258.233 133.774Z" fill="#0D0D0D"/>
<path d="M266.043 133.774C266.008 133.774 265.973 133.774 265.938 133.774C265.552 133.704 265.272 133.354 265.342 132.97L266.708 123.597C266.778 123.212 267.128 122.932 267.514 123.002C267.899 123.072 268.179 123.422 268.109 123.807L266.743 133.18C266.673 133.529 266.393 133.774 266.043 133.774Z" fill="#0D0D0D"/>
<path d="M271.121 129.158H252.56C252.175 129.158 251.86 128.843 251.86 128.423C251.86 128.038 252.175 127.689 252.56 127.689H271.121C271.506 127.689 271.821 128.003 271.821 128.423C271.856 128.808 271.506 129.158 271.121 129.158Z" fill="#0D0D0D"/>
<path d="M78.3385 130.557C73.2607 130.522 63.2101 130.452 44.5798 130.452C41.6731 130.452 39.3268 128.108 39.3268 125.206V116.322C39.3268 113.419 41.6731 111.076 44.5798 111.076H77.7432C80.6498 111.076 82.9961 113.419 82.9961 116.322V125.905C82.9961 128.528 80.8949 130.592 78.3385 130.557Z" fill="#F8FBFF"/>
<path d="M48.9922 120.834C48.9922 121.813 48.1868 122.618 47.2062 122.618C46.2257 122.618 45.4202 121.813 45.4202 120.834C45.4202 119.855 46.2257 119.05 47.2062 119.05C48.1868 119.085 48.9922 119.855 48.9922 120.834Z" fill="#B3B3B3"/>
<path d="M58.3074 120.834C58.3074 121.813 57.5019 122.618 56.5214 122.618C55.5409 122.618 54.7354 121.813 54.7354 120.834C54.7354 119.855 55.5409 119.05 56.5214 119.05C57.5019 119.085 58.3074 119.855 58.3074 120.834Z" fill="#B3B3B3"/>
<path d="M67.5876 120.834C67.5876 121.813 66.7821 122.618 65.8016 122.618C64.821 122.618 64.0156 121.813 64.0156 120.834C64.0156 119.855 64.821 119.05 65.8016 119.05C66.7821 119.085 67.5876 119.855 67.5876 120.834Z" fill="#B3B3B3"/>
<path d="M76.8677 120.834C76.8677 121.813 76.0622 122.618 75.0817 122.618C74.1012 122.618 73.2957 121.813 73.2957 120.834C73.2957 119.855 74.1012 119.05 75.0817 119.05C76.0973 119.085 76.8677 119.855 76.8677 120.834Z" fill="#B3B3B3"/>
<path d="M65.0311 127.094V135.173L54.7354 127.374L65.0311 127.094Z" fill="#F8FBFF"/>
</g>
<defs>
<clipPath id="clip0_145_630">
<rect width="324" height="285" fill="white"/>
</clipPath>
</defs>
</svg>
