<svg width="189" height="148" viewBox="0 0 189 148" fill="none" xmlns="http://www.w3.org/2000/svg">
<path fill-rule="evenodd" clip-rule="evenodd" d="M31.2987 113.053C50.0383 109.168 69.6325 111.471 88.3952 107.704C116.14 102.132 139.742 83.7147 158.489 62.5171C174.886 43.9785 188.951 21.1482 188.129 -3.58684C187.377 -26.2028 173.856 -47.0917 155.801 -60.7314C137.745 -74.3719 115.577 -81.5394 93.3405 -85.735C69.7855 -90.1796 44.4582 -91.3312 22.7804 -81.0975C-5.83101 -67.5912 -22.4115 -37.0368 -31.7613 -6.81044C-41.6953 25.3074 -45.6534 59.2624 -43.3734 92.8039C-42.533 105.169 -40.75 117.801 -34.8141 128.681C-31.4207 134.899 -25.9187 141.742 -19.3666 144.854C-8.36543 150.077 -10.5566 146.869 -5.32679 138.673C3.38451 125.023 15.1193 116.406 31.2987 113.053Z" fill="#CCDBFB"/>
</svg>
