<svg width="325" height="285" viewBox="0 0 325 285" fill="none" xmlns="http://www.w3.org/2000/svg">
<g clip-path="url(#clip0_352_6654)">
<path d="M290.148 284.1C311.966 256.774 324.966 222.244 324.966 184.666C324.966 96.1776 252.786 24.4514 163.738 24.4514C74.7245 24.4514 2.54492 96.1776 2.54492 184.666C2.54492 222.244 15.5798 256.808 37.3626 284.1H290.148Z" fill="#1F2130"/>
<path d="M40.743 46.9978C46.9411 46.9978 51.9656 42.0049 51.9656 35.8458C51.9656 29.6867 46.9411 24.6938 40.743 24.6938C34.545 24.6938 29.5205 29.6867 29.5205 35.8458C29.5205 42.0049 34.545 46.9978 40.743 46.9978Z" fill="#D4E3FF"/>
<path d="M82.3919 212.443H56.8799V244.964H82.3919V212.443Z" fill="#FFA305"/>
<path d="M82.3916 244.964V212.443H97.3433L97.1342 244.964H82.3916Z" fill="#DE7F04"/>
<path d="M70.1935 212.443H66.3945V219.854H70.1935V212.443Z" fill="#FFC766"/>
<path d="M45.0996 244.964V212.443H56.8798L56.7055 244.964H45.0996Z" fill="#DE7F04"/>
<path d="M58.2739 187.056H39.3838V212.443H58.2739V187.056Z" fill="#DE7F04"/>
<path d="M41.6142 212.443V187.056H26.6973L26.9064 212.443H41.6142Z" fill="#FFA305"/>
<path d="M50.8502 187.056H47.8877V192.84H50.8502V187.056Z" fill="#FFC766"/>
<path d="M89.7455 187.056H70.8555V212.443H89.7455V187.056Z" fill="#FFA305"/>
<path d="M70.8553 212.443V187.056H58.1689L58.3432 212.443H70.8553Z" fill="#FFA305"/>
<path d="M89.7109 187.056H78.3838V212.443H89.7109V187.056Z" fill="#DE7F04"/>
<path d="M45.7268 212.443H19.3086V244.964H45.7268V212.443Z" fill="#FFA305"/>
<path d="M34.4347 212.443H30.6357V219.854H34.4347V212.443Z" fill="#FFC766"/>
<path d="M69.6353 187.056H66.6729V192.84H69.6353V187.056Z" fill="#FFC766"/>
<path d="M72.3198 162.12H53.4297V187.506H72.3198V162.12Z" fill="#DE7F04"/>
<path d="M55.6252 187.472V162.12H40.7432L40.9523 187.472H55.6252Z" fill="#FFA305"/>
<path d="M64.8609 162.12H61.8984V167.904H64.8609V162.12Z" fill="#FFC766"/>
<path d="M99.687 277.116C99.7117 272.889 96.2833 269.442 92.0294 269.418C87.7755 269.393 84.3069 272.8 84.2821 277.027C84.2574 281.254 87.6858 284.701 91.9397 284.726C96.1936 284.75 99.6622 281.344 99.687 277.116Z" fill="#4D4D4D"/>
<path d="M96.6014 277.124C96.6271 274.58 94.5727 272.498 92.0129 272.472C89.4531 272.447 87.3572 274.488 87.3316 277.032C87.3059 279.576 89.3603 281.658 91.9201 281.684C94.4799 281.709 96.5758 279.668 96.6014 277.124Z" fill="#BDBDBD"/>
<path d="M80.7899 277.143C80.8139 272.915 77.3848 269.469 73.1308 269.446C68.8769 269.422 65.409 272.829 65.3851 277.057C65.3612 281.284 68.7903 284.73 73.0442 284.754C77.2981 284.777 80.766 281.37 80.7899 277.143Z" fill="#4D4D4D"/>
<path d="M77.7306 277.141C77.7548 274.597 75.6991 272.516 73.139 272.491C70.5789 272.467 68.484 274.51 68.4598 277.054C68.4356 279.598 70.4913 281.68 73.0514 281.704C75.6115 281.728 77.7064 279.685 77.7306 277.141Z" fill="#BDBDBD"/>
<path d="M38.7845 277.136C38.8086 272.908 35.3797 269.462 31.1258 269.438C26.8718 269.414 23.4038 272.822 23.3797 277.049C23.3555 281.276 26.7844 284.722 31.0383 284.746C35.2923 284.77 38.7603 281.363 38.7845 277.136Z" fill="#4D4D4D"/>
<path d="M35.7257 277.135C35.7498 274.591 33.694 272.509 31.134 272.485C28.5739 272.461 26.479 274.504 26.4549 277.048C26.4307 279.592 28.4865 281.674 31.0465 281.698C33.6066 281.722 35.7015 279.679 35.7257 277.135Z" fill="#BDBDBD"/>
<path d="M24.597 277.134C24.6212 272.906 21.1923 269.46 16.9384 269.436C12.6844 269.412 9.21637 272.819 9.1922 277.047C9.16803 281.274 12.5969 284.72 16.8508 284.744C21.1048 284.768 24.5729 281.361 24.597 277.134Z" fill="#4D4D4D"/>
<path d="M21.538 277.134C21.5626 274.59 19.5072 272.508 16.9472 272.483C14.3871 272.459 12.2918 274.501 12.2672 277.045C12.2426 279.589 14.298 281.672 16.858 281.696C19.4181 281.72 21.5134 279.678 21.538 277.134Z" fill="#BDBDBD"/>
<path d="M91.6974 274.991L96.3328 272.705V265.951H102.885V273.744L93.6492 278.35C90.7216 279.355 89.432 276.03 91.6974 274.991Z" fill="#4D4D4D"/>
<path d="M72.8068 274.991L77.4422 272.705V265.951H83.9945V273.744L74.7585 278.35C71.8309 279.355 70.5414 276.03 72.8068 274.991Z" fill="#4D4D4D"/>
<path d="M30.7752 274.991L35.4106 272.705V265.951H41.9628V273.744L32.7269 278.35C29.8342 279.355 28.5446 276.03 30.7752 274.991Z" fill="#4D4D4D"/>
<path d="M16.5896 274.991L21.225 272.705V265.951H27.7773V273.744L18.5414 278.35C15.6486 279.355 14.3591 276.03 16.5896 274.991Z" fill="#4D4D4D"/>
<path d="M46.807 245.344C46.6676 245.31 46.563 245.241 46.4585 245.171C46.2842 245.033 46.1448 244.86 46.11 244.686L36.4907 192.771C36.4558 192.528 36.5952 192.39 36.8392 192.39L116.129 192.043C116.303 192.043 116.512 192.147 116.686 192.286C116.861 192.424 116.965 192.632 116.965 192.805L117.105 245.033C117.105 245.206 116.965 245.344 116.756 245.344L47.051 245.379C46.9813 245.379 46.9116 245.379 46.807 245.344ZM37.8848 193.533L47.2949 244.305H115.989L115.85 193.117L37.8848 193.533Z" fill="#4D4D4D"/>
<path d="M40.6031 210.849L40.2197 210.191L116.303 209.36L116.617 209.984L40.6031 210.849Z" fill="#4D4D4D"/>
<path d="M43.8446 228.478L43.4961 227.82L116.338 227.127L116.652 227.751L43.8446 228.478Z" fill="#4D4D4D"/>
<path d="M53.0452 244.998C52.9407 244.963 52.8361 244.894 52.8361 244.79L43.2168 192.875C43.1819 192.771 43.2865 192.736 43.3911 192.771C43.4956 192.805 43.6002 192.909 43.635 193.013L53.2543 244.894C53.2543 244.963 53.1498 245.033 53.0452 244.998Z" fill="#4D4D4D"/>
<path d="M58.8311 244.998C58.7266 244.963 58.622 244.86 58.622 244.79L49.874 192.84C49.874 192.736 49.9437 192.701 50.0483 192.736C50.1528 192.771 50.2574 192.875 50.2923 192.978L59.0402 244.894C59.0402 244.963 58.9357 245.033 58.8311 244.998Z" fill="#4D4D4D"/>
<path d="M64.6161 244.998C64.5115 244.963 64.4069 244.86 64.4069 244.79L56.5303 192.805C56.5303 192.701 56.6 192.667 56.7045 192.701C56.8091 192.736 56.9137 192.84 56.9485 192.944L64.8252 244.894C64.8252 244.963 64.7555 245.033 64.6161 244.998Z" fill="#4D4D4D"/>
<path d="M70.4362 244.998C70.3316 244.963 70.227 244.859 70.227 244.79L63.2217 192.771C63.2217 192.667 63.2914 192.632 63.3959 192.667C63.5005 192.701 63.6051 192.805 63.6051 192.909L70.5756 244.894C70.6104 244.963 70.5407 245.033 70.4362 244.998Z" fill="#4D4D4D"/>
<path d="M76.2224 244.998C76.1178 244.963 76.0133 244.86 76.0133 244.79L69.9141 192.736C69.9141 192.632 69.9838 192.597 70.0883 192.632C70.1929 192.667 70.2974 192.771 70.2974 192.875L76.3966 244.894C76.4315 244.963 76.3269 245.033 76.2224 244.998Z" fill="#4D4D4D"/>
<path d="M82.0425 244.998C81.9379 244.963 81.8333 244.86 81.8333 244.79L76.6055 192.736C76.6055 192.632 76.6752 192.597 76.7797 192.632C76.8843 192.667 76.9888 192.771 76.9888 192.875L82.2167 244.929C82.2167 244.963 82.147 245.033 82.0425 244.998Z" fill="#4D4D4D"/>
<path d="M87.8626 244.998C87.758 244.963 87.6534 244.86 87.6534 244.79L83.2969 192.667C83.2969 192.563 83.3666 192.528 83.4711 192.563C83.5757 192.597 83.6803 192.701 83.6803 192.805L88.0368 244.894C88.0368 244.963 87.9671 245.033 87.8626 244.998Z" fill="#4D4D4D"/>
<path d="M93.683 244.998C93.5784 244.963 93.4739 244.86 93.4739 244.79L90.0234 192.667C90.0234 192.563 90.0931 192.528 90.1977 192.563C90.3023 192.597 90.4068 192.701 90.4068 192.805L93.8572 244.929C93.8572 244.963 93.7875 245.033 93.683 244.998Z" fill="#4D4D4D"/>
<path d="M99.504 244.998C99.3995 244.963 99.2949 244.86 99.2949 244.79L96.7158 192.632C96.7158 192.528 96.7855 192.494 96.8901 192.528C96.9946 192.563 97.0992 192.667 97.0992 192.771L99.6783 244.929C99.7132 244.963 99.6086 245.033 99.504 244.998Z" fill="#4D4D4D"/>
<path d="M105.359 244.998C105.254 244.963 105.149 244.86 105.149 244.79L103.477 192.563C103.477 192.494 103.546 192.424 103.651 192.494C103.755 192.528 103.86 192.632 103.86 192.736L105.533 244.929C105.533 244.963 105.463 244.998 105.359 244.998Z" fill="#4D4D4D"/>
<path d="M111.214 244.998C111.179 244.998 111.179 244.998 111.214 244.998C111.109 244.963 111.005 244.86 111.005 244.79L110.203 192.563C110.203 192.494 110.273 192.424 110.377 192.494C110.482 192.528 110.552 192.632 110.586 192.736L111.388 244.929C111.388 244.963 111.284 244.998 111.214 244.998Z" fill="#4D4D4D"/>
<path d="M9.8984 245.379C9.8287 245.345 9.75899 245.275 9.68929 245.171C9.58473 245.033 9.48017 244.825 9.48017 244.652L0.000277117 193.048C-0.0345754 192.84 0.0351297 192.701 0.139687 192.701L37.1879 192.39C37.2577 192.39 37.3971 192.459 37.5016 192.598C37.6062 192.736 37.6759 192.909 37.7107 193.048L46.9467 245.033C46.9815 245.241 46.9467 245.379 46.8073 245.379H9.96811C9.96811 245.414 9.93325 245.379 9.8984 245.379ZM0.732181 193.706L10.0378 244.202L46.2148 244.236L37.2228 193.325L0.732181 193.706Z" fill="#4D4D4D"/>
<path d="M3.58967 211.577L3.3457 210.919L40.2197 210.157L40.4637 210.746L3.58967 211.577Z" fill="#4D4D4D"/>
<path d="M6.76155 229.171L6.51758 228.513L43.3219 227.785L43.5658 228.443L6.76155 229.171Z" fill="#4D4D4D"/>
<path d="M13.1394 244.964C13.0697 244.929 13.0348 244.825 13 244.721L3.13672 193.152C3.13672 193.082 3.13672 193.013 3.20642 193.048C3.27613 193.082 3.31098 193.152 3.34583 193.256L13.2091 244.86C13.244 244.964 13.2091 244.998 13.1394 244.964C13.1394 244.998 13.1394 244.964 13.1394 244.964Z" fill="#4D4D4D"/>
<path d="M16.1716 244.964C16.1019 244.929 16.0321 244.825 16.0321 244.721L6.27344 193.117C6.27344 193.048 6.27344 192.978 6.34314 193.013C6.41285 193.048 6.4477 193.117 6.48255 193.221L16.2761 244.86C16.2761 244.964 16.2413 244.998 16.1716 244.964C16.1716 244.998 16.1716 244.998 16.1716 244.964Z" fill="#4D4D4D"/>
<path d="M19.2383 244.963C19.1686 244.929 19.0989 244.825 19.0989 244.721L9.375 193.082C9.375 193.013 9.40985 192.944 9.44471 192.978C9.51441 193.013 9.54926 193.082 9.58412 193.186L19.308 244.86C19.3428 244.963 19.308 244.998 19.2383 244.963C19.2383 244.998 19.2383 244.998 19.2383 244.963Z" fill="#4D4D4D"/>
<path d="M22.3053 244.998C22.2356 244.964 22.1659 244.86 22.1659 244.756L12.5117 193.048C12.5117 192.978 12.5466 192.909 12.5814 192.944C12.6511 192.978 12.686 193.048 12.7208 193.152L22.375 244.86C22.4098 244.964 22.375 245.033 22.3053 244.998Z" fill="#4D4D4D"/>
<path d="M25.3723 244.998C25.3026 244.964 25.2329 244.86 25.2329 244.756L15.6484 193.013C15.6484 192.944 15.6833 192.909 15.7181 192.909C15.7878 192.944 15.8227 193.013 15.8576 193.117L25.442 244.86C25.442 244.964 25.4072 245.033 25.3723 244.998Z" fill="#4D4D4D"/>
<path d="M28.4393 244.998C28.3696 244.964 28.2999 244.86 28.2999 244.756L18.7852 192.978C18.7852 192.909 18.82 192.875 18.8549 192.909C18.9246 192.944 18.9594 193.048 18.9943 193.117L28.509 244.86C28.509 244.964 28.4742 245.033 28.4393 244.998Z" fill="#4D4D4D"/>
<path d="M31.5063 244.998C31.4366 244.964 31.3669 244.86 31.3669 244.756L21.9219 192.944C21.9219 192.875 21.9567 192.84 21.9916 192.875C22.0613 192.909 22.0961 193.013 22.131 193.082L31.576 244.86C31.576 244.964 31.5412 245.033 31.5063 244.998Z" fill="#4D4D4D"/>
<path d="M34.5733 244.998C34.5036 244.964 34.4339 244.86 34.4339 244.756L25.0586 192.909C25.0586 192.84 25.0586 192.805 25.1283 192.84C25.198 192.875 25.2329 192.978 25.2677 193.048L34.643 244.86C34.6779 244.964 34.643 245.033 34.5733 244.998Z" fill="#4D4D4D"/>
<path d="M37.6404 244.998C37.5706 244.964 37.5009 244.86 37.5009 244.756L28.1953 192.875C28.1953 192.805 28.2302 192.771 28.265 192.805C28.3347 192.84 28.3696 192.944 28.4044 193.013L37.7449 244.894C37.7449 244.964 37.7101 245.033 37.6404 244.998Z" fill="#4D4D4D"/>
<path d="M40.7422 244.998C40.6725 244.964 40.6028 244.86 40.6028 244.756L31.332 192.875C31.332 192.805 31.3669 192.771 31.4017 192.805C31.4714 192.84 31.5063 192.944 31.5411 193.013L40.8119 244.894C40.8119 244.964 40.7771 245.033 40.7422 244.998Z" fill="#4D4D4D"/>
<path d="M43.8095 244.998C43.7398 244.964 43.6701 244.86 43.6701 244.756L34.5039 192.84C34.5039 192.771 34.5388 192.736 34.5736 192.771C34.6433 192.805 34.6782 192.909 34.713 192.978L43.9141 244.894C43.9141 244.963 43.8792 245.033 43.8095 244.998Z" fill="#4D4D4D"/>
<path d="M80.5791 245.344C80.5094 245.31 80.4397 245.241 80.4049 245.137C80.3352 244.998 80.2655 244.79 80.2655 244.617L79.4639 192.597C79.4639 192.39 79.5336 192.251 79.673 192.251L116.477 191.939C116.547 191.939 116.652 192.009 116.756 192.147C116.826 192.286 116.896 192.459 116.896 192.597L117.453 245.033C117.453 245.241 117.383 245.379 117.279 245.379H80.7534C80.6489 245.379 80.614 245.379 80.5791 245.344ZM80.0564 193.256L80.8928 244.167L116.756 244.236L116.303 192.909L80.0564 193.256Z" fill="#4D4D4D"/>
<path d="M79.9171 211.265L79.8125 210.607L116.512 209.845L116.652 210.434L79.9171 211.265Z" fill="#4D4D4D"/>
<path d="M80.1961 229.032L80.0566 228.339L116.652 227.647L116.791 228.305L80.1961 229.032Z" fill="#4D4D4D"/>
<path d="M83.855 244.964C83.7853 244.929 83.7504 244.825 83.7504 244.721L82.5654 192.667C82.5654 192.597 82.6003 192.528 82.67 192.563C82.7048 192.597 82.7745 192.667 82.7745 192.771L83.9944 244.825C83.9595 244.929 83.9247 244.998 83.855 244.964Z" fill="#4D4D4D"/>
<path d="M86.8868 244.964C86.8171 244.929 86.7823 244.825 86.7823 244.721L85.667 192.632C85.667 192.563 85.7018 192.494 85.7716 192.528C85.8064 192.563 85.8761 192.632 85.8761 192.736L87.0263 244.825C86.9914 244.929 86.9565 244.998 86.8868 244.964Z" fill="#4D4D4D"/>
<path d="M89.9197 244.964C89.85 244.929 89.8151 244.825 89.8151 244.721L88.7695 192.597C88.7695 192.528 88.8044 192.459 88.8741 192.494C88.9089 192.528 88.9787 192.598 88.9787 192.701L90.0591 244.825C90.0242 244.929 89.9894 244.998 89.9197 244.964Z" fill="#4D4D4D"/>
<path d="M92.9516 244.963C92.8818 244.929 92.847 244.825 92.847 244.721L91.8711 192.563C91.8711 192.494 91.9059 192.424 91.9756 192.459C92.0105 192.494 92.0802 192.563 92.0802 192.667L93.0561 244.86C93.0561 244.963 93.0213 244.998 92.9516 244.963Z" fill="#4D4D4D"/>
<path d="M95.9834 244.964C95.9137 244.929 95.8788 244.825 95.8788 244.721L94.9727 192.563C94.9727 192.494 95.0075 192.459 95.0772 192.459C95.1121 192.494 95.1818 192.598 95.1818 192.667L96.1228 244.86C96.0879 244.964 96.0531 244.998 95.9834 244.964Z" fill="#4D4D4D"/>
<path d="M99.0162 244.963C98.9465 244.929 98.9117 244.825 98.9117 244.721L98.0752 192.528C98.0752 192.459 98.1101 192.424 98.1798 192.424C98.2146 192.459 98.2843 192.563 98.2843 192.632L99.1556 244.86C99.1208 244.964 99.0859 244.998 99.0162 244.963Z" fill="#4D4D4D"/>
<path d="M102.083 244.963C102.014 244.929 101.979 244.825 101.979 244.721L101.212 192.494C101.212 192.424 101.247 192.39 101.316 192.424C101.351 192.459 101.421 192.563 101.421 192.632L102.223 244.894C102.188 244.963 102.118 244.998 102.083 244.963Z" fill="#4D4D4D"/>
<path d="M105.115 244.963C105.045 244.929 105.011 244.825 105.011 244.721L104.313 192.459C104.313 192.39 104.348 192.355 104.418 192.39C104.453 192.424 104.523 192.528 104.523 192.597L105.255 244.894C105.22 244.963 105.185 244.998 105.115 244.963Z" fill="#4D4D4D"/>
<path d="M108.182 244.963C108.112 244.929 108.078 244.825 108.078 244.721L107.45 192.424C107.45 192.355 107.485 192.32 107.555 192.355C107.59 192.39 107.659 192.494 107.659 192.563L108.322 244.86C108.252 244.963 108.217 244.998 108.182 244.963Z" fill="#4D4D4D"/>
<path d="M111.214 244.998C111.214 244.964 111.214 244.964 111.214 244.998C111.144 244.964 111.109 244.86 111.109 244.756L110.552 192.424C110.552 192.355 110.587 192.32 110.656 192.355C110.691 192.39 110.761 192.494 110.761 192.563L111.353 244.894C111.319 244.964 111.284 244.998 111.214 244.998Z" fill="#4D4D4D"/>
<path d="M114.281 244.998C114.281 244.998 114.281 244.963 114.281 244.998C114.211 244.963 114.176 244.86 114.176 244.756L113.688 192.39C113.688 192.32 113.723 192.286 113.758 192.32C113.793 192.355 113.863 192.459 113.863 192.528L114.351 244.894C114.386 244.963 114.351 245.033 114.281 244.998Z" fill="#4D4D4D"/>
<path d="M117.069 245.379C117.697 245.379 118.185 244.894 118.185 244.271V179.333C118.185 176.493 120.52 174.172 123.378 174.172H138.992C139.619 174.172 140.107 173.688 140.107 173.064C140.107 172.441 139.619 171.956 138.992 171.956H123.378C119.3 171.956 115.989 175.246 115.989 179.298V244.236C115.954 244.894 116.442 245.379 117.069 245.379Z" fill="#4D4D4D"/>
<path d="M80.9278 245.379C81.5551 245.379 82.0431 244.894 82.0431 244.271V179.333C82.0431 176.493 84.3782 174.172 87.2361 174.172H102.815C103.443 174.172 103.93 173.688 103.93 173.064C103.93 172.441 103.443 171.956 102.815 171.956H87.2012C83.1235 171.956 79.8125 175.246 79.8125 179.298V244.236C79.8125 244.894 80.3004 245.379 80.9278 245.379Z" fill="#4D4D4D"/>
<path d="M44.3678 266.055H107.695C110.483 266.055 113.097 264.982 115.049 263.008C117.001 261.034 118.081 258.436 118.081 255.665C118.046 249.985 113.411 245.379 107.695 245.379H40.2901C39.6627 245.379 39.1748 245.864 39.1748 246.487C39.1748 247.111 39.6627 247.596 40.2901 247.596H107.695C112.191 247.596 115.85 251.232 115.885 255.7C115.885 257.882 115.049 259.925 113.48 261.484C111.947 263.042 109.891 263.874 107.695 263.874H44.3678C43.7405 263.874 43.2526 264.358 43.2526 264.982C43.2526 265.571 43.7753 266.055 44.3678 266.055Z" fill="#4D4D4D"/>
<path d="M18.9596 266.055H82.2867C85.0749 266.055 87.6889 264.982 89.6406 263.008C91.5923 261.034 92.6728 258.436 92.6728 255.665C92.6379 249.985 88.0025 245.379 82.2867 245.379H14.8819C14.2545 245.379 13.7666 245.864 13.7666 246.487C13.7666 247.111 14.2545 247.596 14.8819 247.596H82.2519C86.7478 247.596 90.4073 251.232 90.4422 255.7C90.4422 257.882 89.6057 259.925 88.0374 261.484C86.5039 263.042 84.4476 263.874 82.2519 263.874H18.9596C18.3323 263.874 17.8443 264.358 17.8443 264.982C17.8443 265.571 18.3671 266.055 18.9596 266.055Z" fill="#4D4D4D"/>
<path d="M101.665 175.038H135.96C137.041 175.038 137.947 174.172 137.947 173.064C137.947 171.991 137.076 171.09 135.96 171.09H101.665C100.585 171.09 99.6787 171.956 99.6787 173.064C99.6787 174.172 100.585 175.038 101.665 175.038Z" fill="#4D4D4D"/>
<path d="M99.7132 15.7237C99.5738 -1.38534 132.265 -3.9136 131.882 5.09114L190.539 5.29895C197.335 5.40285 202.807 11.4984 202.772 18.9446L202.005 267.129C201.971 274.402 196.534 280.29 189.807 280.29L127.665 280.602C127.072 281.814 125.957 282.922 124.18 283.822C106.788 283.684 98.8768 276.896 98.807 268.133C98.1797 266.506 99.0162 18.9446 99.7132 15.7237Z" fill="#4D4D4D"/>
<path d="M125.226 283.892L201.657 283.822C208.593 283.822 214.239 277.796 214.274 270.315L215.215 15.0656C215.25 7.41157 209.569 1.14288 202.529 1.07362L125.853 0.0692426C118.778 -2.46465e-05 112.992 6.16476 112.992 13.8188L112.574 270.246C112.574 277.762 118.22 283.857 125.226 283.892Z" fill="#4D4D4D"/>
<path d="M123.692 282.056C124.145 282.125 124.633 282.16 125.086 282.16L201.518 281.952C207.478 281.952 212.392 276.653 212.427 270.142L213.333 15.1695C213.368 8.48519 208.419 3.01308 202.389 2.94381L125.748 1.8009C125.574 1.8009 125.4 1.8009 125.226 1.8009C122.403 1.9048 119.754 3.18625 117.767 5.33353C115.746 7.55008 114.665 10.5286 114.631 13.6802L114.143 270.385C114.177 276.307 118.255 281.329 123.692 282.056Z" fill="#0D0D0D"/>
<path d="M118.604 15.0309L118.081 270.8H208.733L209.569 15.7929L118.604 15.0309Z" fill="white"/>
<path d="M182.245 55.5177L171.998 55.4484L139.098 15.2042L149.379 15.2734L182.245 55.5177Z" fill="#6776FE"/>
<path d="M171.998 55.4484L161.786 55.3445L128.851 15.1349L139.097 15.2042L171.998 55.4484Z" fill="#F1E3E0"/>
<path d="M161.786 55.3445L151.54 55.2753L118.569 15.031L128.851 15.1349L161.786 55.3445Z" fill="#6776FE"/>
<path d="M192.457 55.6216L182.245 55.5177L149.379 15.2734L159.66 15.3773L192.457 55.6216Z" fill="#F1E3E0"/>
<path d="M212.916 55.7601L202.669 55.6908L169.942 15.4466L180.224 15.5505L212.916 55.7601Z" fill="#F1E3E0"/>
<path d="M242.575 56.0026L233.374 55.9333L200.752 15.7237L210.023 15.793L242.575 56.0026Z" fill="#6776FE"/>
<path d="M233.373 55.9333L223.127 55.864L190.47 15.6198L200.751 15.7237L233.373 55.9333Z" fill="#F1E3E0"/>
<path d="M202.668 55.6908L192.456 55.6216L159.66 15.3773L169.942 15.4466L202.668 55.6908Z" fill="#6776FE"/>
<path d="M223.127 55.8641L212.915 55.7602L180.224 15.5505L190.47 15.6198L223.127 55.8641Z" fill="#6776FE"/>
<path d="M161.786 55.3445V61.4747C161.786 67.9512 151.574 67.8819 151.574 61.4054V55.2753L161.786 55.3445Z" fill="#5F6FFF"/>
<path d="M171.998 55.4484V61.5786C171.998 68.0551 161.786 67.9858 161.786 61.5093V55.3792L171.998 55.4484Z" fill="#F1C5BC"/>
<path d="M182.245 55.5177V61.6478C182.245 68.1243 172.033 68.0551 172.033 61.5786V55.4484L182.245 55.5177Z" fill="#5F6FFF"/>
<path d="M192.457 55.6216V61.7517C192.422 68.2282 182.245 68.1589 182.245 61.6825V55.5523L192.457 55.6216Z" fill="#F1C5BC"/>
<path d="M202.669 55.6908L202.634 61.821C202.599 68.2975 192.387 68.2282 192.422 61.7517V55.6216L202.669 55.6908Z" fill="#5F6FFF"/>
<path d="M212.915 55.7601L212.88 61.8903C212.845 68.3668 202.633 68.2975 202.668 61.821L202.703 55.6909L212.915 55.7601Z" fill="#F1C5BC"/>
<path d="M223.127 55.8641L223.092 61.9942C223.057 68.4707 212.845 68.4014 212.88 61.925L212.915 55.7948L223.127 55.8641Z" fill="#5F6FFF"/>
<path d="M233.374 55.9333L233.339 62.0634C233.304 68.5399 223.092 68.4706 223.127 61.9942L223.162 55.864L233.374 55.9333Z" fill="#F1C5BC"/>
<path d="M242.574 56.0026L242.539 62.1327C242.47 68.6092 233.269 68.5399 233.338 62.0634L233.373 55.9333L242.574 56.0026Z" fill="#5F6FFF"/>
<path d="M151.54 55.2753L152.341 55.3792L118.534 55.1021L118.569 15.031L151.54 55.2753Z" fill="#F1E3E0"/>
<path d="M105.952 101.338C107.381 101.373 108.566 100.23 108.601 98.8097L109.158 34.0102C109.158 32.5902 108.008 31.3781 106.544 31.3434C105.081 31.3088 103.896 32.4517 103.896 33.9063L103.373 98.7058C103.338 100.126 104.523 101.303 105.952 101.338Z" fill="#0D0D0D"/>
<path d="M199.531 81.7007H185.381V159.245H199.531V81.7007Z" fill="#E4EDFF"/>
<path d="M192.456 152.319C191.619 152.319 190.957 151.661 190.957 150.829V90.082C190.957 89.2508 191.619 88.5928 192.456 88.5928C193.292 88.5928 193.954 89.2508 193.954 90.082V150.864C193.954 151.661 193.257 152.319 192.456 152.319Z" fill="#0D0D0D"/>
<path d="M261.987 163.921C261.987 163.921 267.075 163.609 269.689 168.112C272.303 172.614 269.027 176.77 269.027 176.77C269.027 176.77 278.437 176.978 279.553 185.74C280.668 194.502 272.582 195.818 272.582 195.818C272.582 195.818 275.858 202.537 268.051 207.767C260.279 212.997 252.681 203.369 252.681 203.369C252.681 203.369 246.199 205.862 240.971 199.455C235.778 193.048 241.494 186.571 241.494 186.571C241.494 186.571 237.66 183.801 238.496 177.082C239.333 170.363 244.805 170.224 244.805 170.224C244.805 170.224 242.226 166.241 245.083 163.297C247.941 160.354 252.472 162.916 252.472 162.916C252.472 162.916 253.831 157.825 257.456 158.518C261.116 159.28 261.987 163.921 261.987 163.921Z" fill="#0D0D0D"/>
<path d="M244.735 176.943L234.209 166.311V147.886L230.724 147.435C230.724 147.435 227.866 164.198 227.866 167.765C227.866 170.917 238.566 184.701 238.566 184.701L244.735 176.943Z" fill="#FFA88F"/>
<path d="M257.073 177.774C253.727 174.969 244.107 176.285 244.107 176.285C244.107 176.285 237.834 181.411 237.311 185.186C236.928 187.922 238.531 203.057 238.531 203.057H253.971L259.791 187.16C259.791 187.16 260.384 180.58 257.073 177.774Z" fill="#029E73"/>
<path d="M258.397 220.893C259.652 228.27 261.115 240.288 261.708 248.669C265.751 266.229 264.775 269.623 266.343 280.29C264.635 281.606 262.161 280.705 262.161 280.705C259.303 273.467 254.877 261.38 253.762 251.094C251.113 242.539 248.29 233.465 245.397 224.114L245.188 223.56C242.748 215.421 256.48 210.538 258.397 220.893Z" fill="#FFA88F"/>
<path d="M238.531 203.057C238.531 203.057 236.614 208.183 235.395 216.148C234.175 224.114 230.236 279.736 230.236 279.736L234.628 279.77C236.963 270.246 241.633 262.661 241.041 250.366L252.159 216.633L246.722 203.057H238.531Z" fill="#FFA88F"/>
<path d="M255.852 177.913L266.656 167.904L262.335 148.578L266.064 147.435C266.064 147.435 275.195 165.826 275.16 169.393C275.16 172.545 259.79 187.299 259.79 187.299C257.386 188.407 253.761 183.073 255.852 177.913Z" fill="#FFA88F"/>
<path d="M244.735 162.051C242.191 166.692 241.842 171.229 245.815 173.41C249.788 175.592 255.086 173.618 257.63 168.977C260.174 164.336 259.024 158.795 255.051 156.613C251.113 154.362 247.314 157.375 244.735 162.051Z" fill="#FFA88F"/>
<path d="M247.209 171.575H253.03L253.274 177.774C253.274 179.056 250.276 180.857 247.837 180.718C245.955 180.614 244.7 179.298 245.293 177.947L247.209 171.575Z" fill="#FFA88F"/>
<path d="M232.048 242.124C233.895 217.984 238.53 203.057 238.53 203.057H253.97C256.689 205.169 259.163 208.875 260.766 212.858C261.847 216.01 266.169 229.69 267.841 242.124C255.608 246.522 233.616 244.894 232.048 242.124Z" fill="#029E73"/>
<path d="M255.016 200.771L254.285 203.472H238.322L238.183 200.771H255.016Z" fill="#0D0D0D"/>
<path d="M222.359 284.169C222.359 284.1 224.973 284.1 227.726 284.134C230.933 284.134 234.906 284.169 234.906 284.169C234.975 282.957 235.045 281.675 234.627 279.805L229.608 279.77C229.608 279.77 228.214 280.013 225.774 280.74C225.6 280.775 225.426 280.809 225.252 280.879C221.418 281.744 222.359 284.273 222.359 284.169Z" fill="#994803"/>
<path d="M222.36 284.169C222.36 284.1 224.974 284.1 227.727 284.134C227.797 283.892 227.866 283.615 227.866 283.338C227.866 282.125 226.995 281.121 225.81 280.74C225.636 280.775 225.461 280.809 225.287 280.879C221.419 281.744 222.36 284.273 222.36 284.169Z" fill="#994803"/>
<path d="M235.08 283.372H222.115V284.169H235.08V283.372Z" fill="#994803"/>
<path d="M261.358 284.203C261.428 284.203 262.718 284.203 264.286 284.169C266.865 284.134 270.246 284.134 270.559 284.203C271.466 282.056 269.584 280.948 267.876 280.359C267.144 280.117 266.447 279.943 265.994 279.805L261.637 279.839C261.254 281.71 261.289 282.957 261.358 284.203Z" fill="#994803"/>
<path d="M270.804 283.407H261.185V284.203H270.804V283.407Z" fill="#994803"/>
<path d="M264.286 284.169C266.866 284.134 270.246 284.134 270.56 284.203C271.466 282.056 269.584 280.948 267.876 280.359C266.9 280.255 265.715 280.428 264.809 281.364C263.868 282.333 263.938 283.372 264.286 284.169Z" fill="#994803"/>
<path d="M250.764 158.553C250.869 158.379 249.474 164.371 257.839 168.112C262.997 164.614 261.568 153.565 252.263 155.782C251.147 153.808 245.78 152.734 244.142 157.583C239.785 158.137 239.89 162.258 242.748 162.051C242.783 162.051 247.906 162.639 250.764 158.553Z" fill="#0D0D0D"/>
<path d="M255.853 168.112C255.853 168.977 256.55 169.705 257.456 169.705C258.362 169.705 259.059 169.012 259.059 168.112C259.059 167.246 258.362 166.518 257.456 166.518C256.55 166.518 255.853 167.246 255.853 168.112Z" fill="#FFA88F"/>
<path d="M267.18 93.9956H190.957V146.916H267.18C269.828 146.916 271.989 144.768 271.989 142.136V98.7751C271.989 96.1429 269.828 93.9956 267.18 93.9956Z" fill="#0266C9"/>
<path d="M257.456 107.364H251.147V104.836C251.147 104.005 251.845 103.312 252.681 103.312H261.534V109.373C261.534 109.719 261.743 110.031 262.091 110.031C262.44 110.031 262.614 109.719 262.614 109.373V103.312H264.147C264.984 103.312 265.681 104.005 265.681 104.836V112.213H257.386C257.142 112.213 256.898 112.386 256.863 112.663C256.828 112.94 257.072 113.217 257.351 113.217H265.681V116.265C265.681 117.096 264.984 117.789 264.147 117.789H252.716C251.879 117.789 251.182 117.096 251.182 116.265V108.403H257.525C257.804 108.403 258.048 108.161 258.013 107.849C257.944 107.572 257.7 107.364 257.456 107.364Z" fill="#FFCA05"/>
<path d="M192.424 140.976H209.955V132.179H192.424V140.976Z" fill="#ECEAE9"/>
<path d="M265.611 123.088H249.266V127.175H265.611V123.088Z" fill="#ECEAE9"/>
<path d="M247 123.088H230.341V127.175H247V123.088Z" fill="#ECEAE9"/>
<path d="M209.569 123.088H192.561V127.175H209.569V123.088Z" fill="#ECEAE9"/>
<path d="M227.727 123.088H211.974V127.175H227.727V123.088Z" fill="#ECEAE9"/>
<path d="M215.095 137.484H265.526V132.185H215.095V137.484Z" fill="#FFCA05"/>
<path d="M192.449 105.148H214.127V98.9836H192.449V105.148Z" fill="#ECEAE9"/>
<path d="M233.966 148.232C233.966 148.232 235.325 147.92 235.708 145.565C236.092 143.245 236.126 143.764 236.126 143.764C236.126 143.764 234.837 143.106 234.14 145.807C232.118 145.669 230.829 146.95 230.829 146.95C230.829 146.95 230.306 147.193 230.585 147.92C230.898 148.682 233.722 148.578 233.966 148.232Z" fill="#FFA88F"/>
<path d="M262.335 148.544C262.335 148.544 260.313 147.885 259.512 143.695C260.801 142.794 261.324 145.184 261.324 145.184C261.324 145.184 266.273 144.768 266.064 147.366C265.855 149.998 262.335 148.544 262.335 148.544Z" fill="#FFA88F"/>
<path d="M191.933 93.9956H190.957V146.916H191.933V93.9956Z" fill="#0D0D0D"/>
<path d="M173.88 81.7007H130.802V105.425H173.88V81.7007Z" fill="#E4EDFF"/>
<path d="M173.88 108.611H130.802V132.335H173.88V108.611Z" fill="#E4EDFF"/>
<path d="M173.88 135.452H130.802V159.176H173.88V135.452Z" fill="#E4EDFF"/>
<path d="M197.51 178.155H130.279V244.964H197.51V178.155Z" fill="#E4EDFF"/>
<path d="M174.158 219.404H150.284C149.796 219.404 149.378 219.092 149.239 218.642L144.673 204.477C144.568 204.131 144.638 203.784 144.847 203.507C145.056 203.23 145.37 203.057 145.719 203.057H178.724C179.073 203.057 179.386 203.23 179.595 203.507C179.804 203.784 179.874 204.165 179.77 204.477L175.204 218.642C175.064 219.092 174.611 219.404 174.158 219.404ZM151.086 217.222H173.357L177.225 205.239H147.217L151.086 217.222Z" fill="#025B75"/>
<path d="M172.207 225.396H151.853C151.26 225.396 150.772 224.911 150.772 224.322C150.772 223.733 151.26 223.248 151.853 223.248H171.405C172.73 223.214 173.322 222.313 173.427 221.378C173.496 220.547 173.183 219.681 172.625 219.439L179.491 198.07C179.63 197.619 180.049 197.308 180.537 197.308H187.646C188.239 197.308 188.727 197.793 188.727 198.381C188.727 198.97 188.239 199.455 187.646 199.455H181.338L175.03 219.3C176.703 222.001 174.437 225.396 172.207 225.396Z" fill="#025B75"/>
<path d="M156.001 231.526C157.387 231.526 158.51 230.409 158.51 229.032C158.51 227.655 157.387 226.539 156.001 226.539C154.615 226.539 153.491 227.655 153.491 229.032C153.491 230.409 154.615 231.526 156.001 231.526Z" fill="#025B75"/>
<path d="M168.652 231.526C170.038 231.526 171.161 230.409 171.161 229.032C171.161 227.655 170.038 226.539 168.652 226.539C167.266 226.539 166.143 227.655 166.143 229.032C166.143 230.409 167.266 231.526 168.652 231.526Z" fill="#025B75"/>
<path d="M162.831 219.404C162.239 219.404 161.751 218.919 161.751 218.33V204.165C161.751 203.576 162.239 203.091 162.831 203.091C163.424 203.091 163.912 203.576 163.912 204.165V218.33C163.912 218.919 163.424 219.404 162.831 219.404Z" fill="#025B75"/>
<path d="M156.732 219.404C156.244 219.404 155.791 219.058 155.652 218.573L152.411 204.408C152.271 203.819 152.654 203.23 153.247 203.092C153.839 202.953 154.432 203.334 154.571 203.923L157.813 218.088C157.952 218.677 157.569 219.265 156.976 219.404C156.872 219.369 156.802 219.404 156.732 219.404Z" fill="#025B75"/>
<path d="M168.651 219.404C168.581 219.404 168.547 219.404 168.477 219.404C167.884 219.335 167.466 218.781 167.536 218.157L169.592 203.992C169.662 203.403 170.22 202.988 170.847 203.057C171.439 203.126 171.858 203.68 171.788 204.304L169.732 218.469C169.662 218.988 169.174 219.404 168.651 219.404Z" fill="#025B75"/>
<path d="M176.424 212.408H148.019C147.426 212.408 146.938 211.923 146.938 211.334C146.938 210.746 147.426 210.261 148.019 210.261H176.424C177.016 210.261 177.504 210.746 177.504 211.334C177.539 211.923 177.051 212.408 176.424 212.408Z" fill="#025B75"/>
<path d="M150.88 204.046C150.904 201.081 148.504 198.658 145.521 198.635C142.537 198.612 140.1 200.996 140.076 203.961C140.052 206.925 142.452 209.348 145.435 209.371C148.419 209.395 150.857 207.01 150.88 204.046Z" fill="#F13005"/>
<path d="M152.864 89.9089C151.749 88.385 149.901 87.3806 147.845 87.3806C144.395 87.3806 141.606 90.1513 141.606 93.58C141.606 97.0088 144.395 99.7794 147.845 99.7794C149.901 99.7794 151.749 98.7751 152.864 97.2512C152.097 96.2122 151.679 94.9654 151.679 93.6147C151.644 92.1947 152.097 90.9132 152.864 89.9089Z" fill="white"/>
<path d="M157.883 87.3806C155.827 87.3806 153.98 88.385 152.864 89.9089C153.631 90.9479 154.084 92.1947 154.084 93.5454C154.084 94.8961 153.631 96.1776 152.864 97.1819C153.98 98.7058 155.827 99.7102 157.883 99.7102C161.333 99.7102 164.122 96.9395 164.122 93.5108C164.087 90.1513 161.299 87.3806 157.883 87.3806Z" fill="#04DBDE"/>
<path d="M152.864 89.9089C152.097 90.9479 151.679 92.1947 151.679 93.5454C151.679 94.8961 152.132 96.1776 152.864 97.1819C153.63 96.1429 154.084 94.8961 154.084 93.5454C154.049 92.1947 153.596 90.9132 152.864 89.9089Z" fill="#03ADB0"/>
<path d="M164.016 113.633H143.035V125.166H164.016V113.633Z" fill="#03ADB0"/>
<path d="M163.145 121.876L163.18 116.888C161.647 116.888 160.88 115.711 160.88 114.499H146.277C146.277 115.676 145.51 116.888 143.976 116.888C143.976 116.888 143.976 116.888 143.941 116.888V121.91C143.941 121.91 143.941 121.91 143.976 121.91C145.51 121.91 146.277 123.088 146.277 124.3H160.845C160.81 123.088 161.577 121.876 163.145 121.876Z" fill="#03ADB0"/>
<path d="M153.665 122.014C155.128 122.014 156.314 120.836 156.314 119.382C156.314 117.928 155.128 116.75 153.665 116.75C152.203 116.75 151.017 117.928 151.017 119.382C151.017 120.836 152.203 122.014 153.665 122.014Z" fill="#03ADB0"/>
<path d="M161.298 116.819H140.316V128.352H161.298V116.819Z" fill="#04D6D9"/>
<path d="M160.391 125.027C160.426 125.027 160.426 125.062 160.391 125.027L160.426 120.04C158.893 120.04 158.126 118.863 158.126 117.65H143.523C143.523 118.828 142.756 120.04 141.222 120.04C141.222 120.04 141.222 120.04 141.188 120.04V125.097C141.188 125.097 141.188 125.097 141.222 125.097C142.756 125.097 143.523 126.274 143.523 127.486H158.091C158.091 126.24 158.858 125.027 160.391 125.027Z" fill="white"/>
<path d="M150.964 125.206C152.427 125.181 153.593 123.982 153.567 122.529C153.542 121.075 152.336 119.917 150.873 119.942C149.41 119.967 148.245 121.166 148.27 122.62C148.295 124.073 149.502 125.231 150.964 125.206Z" fill="#04D6D9"/>
<path d="M143.941 142.136V153.254L158.336 151.28V139.954L143.941 142.136Z" fill="#028B8F"/>
<path d="M145.754 142.136L145.789 153.011L159.556 153.739L159.521 142.69L145.754 142.136Z" fill="white"/>
<path d="M143.941 142.136V153.254L158.336 156.648V145.323L143.941 142.136Z" fill="#03ABB0"/>
<path d="M58.7965 97.5975C55.1021 101.65 49.212 104.871 42.834 106.394C42.834 106.81 42.8688 109.165 43.0082 120.04C43.2174 134.517 57.2978 141.374 59.3889 142.31C61.4452 141.305 75.3514 134.101 75.1772 119.625C75.0377 108.75 75.0029 106.394 75.0029 105.979C68.59 104.628 62.5954 101.546 58.7965 97.5975Z" fill="#318F66"/>
<path d="M59.354 138.188C57.9598 137.495 55.1716 135.937 52.5229 133.409C48.48 129.53 46.3888 125.027 46.3191 120.04L46.1797 109.061C51.1636 107.676 55.6596 105.252 58.9009 102.204C62.2119 105.182 66.7775 107.468 71.7963 108.715L71.9357 119.694C72.0054 124.716 70.0537 129.253 66.0805 133.236C63.4666 135.833 60.7481 137.461 59.354 138.188Z" fill="#40B883"/>
<path d="M69.0081 112.767C65.1744 113.425 59.9813 117.027 56.74 121.287C56.2521 119.313 54.1261 117.547 53.0108 117.166L49.7695 120.525C51.8607 121.425 54.1609 123.988 54.5095 126.655L57.8205 127.105C59.1449 124.335 62.6301 117.754 69.7052 114.118C69.5658 113.598 69.043 112.836 69.0081 112.767Z" fill="white"/>
<path d="M313.848 284.03H5.68164V285H313.848V284.03Z" fill="#03A9CC"/>
</g>
<defs>
<clipPath id="clip0_352_6654">
<rect width="325" height="285" fill="white"/>
</clipPath>
</defs>
</svg>
