<svg width="325" height="300" viewBox="0 0 325 300" fill="none" xmlns="http://www.w3.org/2000/svg">
<g clip-path="url(#clip0_146_2288)">
<path d="M161.303 300.032C244.357 300.032 311.686 232.867 311.686 150.016C311.686 67.1644 244.357 0 161.303 0C78.2484 0 10.9196 67.1644 10.9196 150.016C10.9196 232.867 78.2484 300.032 161.303 300.032Z" fill="#E4EDFF"/>
<path d="M61.3613 16.8415C61.3837 11.1773 56.7989 6.56755 51.1208 6.54525C45.4428 6.52295 40.8217 11.0966 40.7994 16.7607C40.777 22.4249 45.3619 27.0347 51.0399 27.057C56.7179 27.0793 61.339 22.5057 61.3613 16.8415Z" fill="#D4E3FF"/>
<path d="M324.84 76.9508C326.852 65.8669 306.098 60.2612 305.3 66.1535L267.465 59.1783C263.091 58.4139 258.812 61.7263 257.95 66.5357L227.874 232.445C226.98 237.446 229.853 242.191 234.291 243.019L275.543 250.982C275.798 251.906 276.405 252.797 277.458 253.657C289.049 255.728 293.582 252.957 295.626 249.071C296.328 248.02 324.936 79.1167 324.84 76.9508Z" fill="#4D4D4D"/>
<path d="M276.82 253.562L226.022 243.943C221.392 243.083 218.423 238.21 219.349 233.082L250.415 62.4907C251.309 57.522 255.715 54.1459 260.281 54.9421L309.77 63.5736C314.336 64.3699 317.369 69.0838 316.507 74.0524L286.909 245.727C285.983 250.918 281.482 254.422 276.82 253.562Z" fill="#4D4D4D"/>
<path d="M278.065 252.479C277.746 252.479 277.427 252.415 277.107 252.383L226.341 242.701C222.382 241.968 219.796 237.7 220.594 233.209L251.596 62.8092C252.395 58.4775 256.226 55.5154 260.121 56.1843L309.642 64.7521C309.77 64.7839 309.866 64.7839 309.994 64.8158C311.814 65.2298 313.378 66.3765 314.4 68.0327C315.453 69.7208 315.837 71.791 315.453 73.8295L285.792 245.663C285.089 249.708 281.769 252.67 278.065 252.479Z" fill="#0D0D0D"/>
<path d="M312.74 74.2117L294.061 182.344L283.142 245.44L222.989 234.133L223.467 231.394L253.959 63.6373L312.74 74.2117Z" fill="white"/>
<path d="M239.815 237.286L283.142 245.44L292.273 192.6L239.815 237.286Z" fill="#E4EDFF"/>
<path d="M273.596 173.643C275.702 161.456 271.577 150.573 264.382 149.336C257.188 148.099 249.648 156.975 247.542 169.162C245.436 181.349 249.561 192.231 256.755 193.469C263.95 194.706 271.489 185.83 273.596 173.643Z" fill="#D4E3FF"/>
<path d="M277.528 174.319C280.273 158.44 274.904 144.261 265.538 142.65C256.171 141.039 246.353 152.606 243.609 168.485C240.864 184.365 246.233 198.543 255.6 200.154C264.966 201.765 274.784 190.198 277.528 174.319Z" stroke="#D4E3FF" stroke-width="3.0123" stroke-miterlimit="10"/>
<path d="M210.76 116.477C210.76 116.477 213.538 108.483 220.913 108.26C228.289 108.037 230.3 114.694 230.3 114.694C235.121 109.821 245.402 107.495 248.755 116.732C248.755 116.732 258.493 113.006 265.517 121.319C272.542 129.632 268.231 139.728 260.824 141.703C258.653 148.232 248.276 153.201 242.912 147.818C237.548 142.435 237.356 139.824 237.356 139.824C237.356 139.824 232.95 145.27 226.565 142.499C220.147 139.728 219.955 130.969 219.955 130.969C219.955 130.969 209.068 127.115 210.76 116.477Z" fill="#0D0D0D"/>
<path d="M227.554 153.519C226.054 156.163 212.356 173.458 206.354 174.445C203.416 174.923 195.754 175.273 188.665 175.496C186.494 175.56 184.387 175.624 182.503 175.656C177.937 175.783 174.585 175.815 174.585 175.815V170.432C177.267 170.145 179.917 169.731 182.503 169.254C183.78 169.031 185.058 168.776 186.271 168.553C192.912 167.247 198.787 166.005 202.746 166.642L215.166 147.086C220.179 139.155 231.577 146.544 227.554 153.519Z" fill="#E6765C"/>
<path d="M215.964 143.168L212.165 150.462L226.565 156.896C226.565 156.896 233.908 147.786 225.383 142.085C219.317 138.04 215.964 143.168 215.964 143.168Z" fill="#0386C2"/>
<path d="M254.023 183.777C251.565 180.815 245.849 172.534 245.849 172.534C245.849 172.534 224.521 169.891 219.125 165.113C216.475 161.832 215.869 157.31 215.613 151.035C215.581 150.207 215.549 149.347 215.549 148.455C215.262 136.448 221.392 134.473 227.235 135.524C231.769 136.32 236.143 138.932 237.261 140.079C238.666 141.544 254.374 156.896 254.374 156.896L262.357 160.495C266.922 167.597 262.005 187.09 254.023 183.777Z" fill="#0386C2"/>
<path d="M222.574 149.984L227.938 174.509C220.562 177.885 217.752 184.16 208.621 191.071C206.418 193.237 207.503 196.677 211.239 194.734C211.239 194.734 230.556 184.351 235.313 179.573C240.102 174.796 237.356 152.15 237.005 148.774C236.111 139.824 221.903 139.505 222.574 149.984Z" fill="#FFA794"/>
<path d="M216.954 145.971C216.411 145.143 215.677 143.964 214.879 142.69C212.708 139.155 210.153 134.823 210.153 134.823L216.443 129.218L217.497 128.262L224.17 136.479C227.203 139.314 218.966 149.06 216.954 145.971Z" fill="#FFA794"/>
<path d="M215.262 143.295C213.091 139.76 210.153 134.791 210.153 134.791L217.146 130.778C217.529 132.148 218.582 137.18 215.262 143.295Z" fill="#FA876E"/>
<path d="M222.797 155.43L238.602 152.532C238.602 152.532 238.41 137.753 227.682 140.174C219.157 142.085 222.797 155.43 222.797 155.43Z" fill="#0386C2"/>
<path d="M221.105 150.398C217.369 153.679 216.252 150.526 216.156 147.786C215.869 140.11 219.413 136.161 223.404 135.747C227.203 135.365 226.213 145.939 221.105 150.398Z" fill="#FFA794"/>
<path d="M205.141 198.556C205.141 198.556 200.99 203.334 200.607 203.015C200.192 202.665 201.82 199.607 203.959 196.9C206.322 193.938 207.28 196.422 205.141 198.556Z" fill="#DB8472"/>
<path d="M208.174 191.294C208.174 191.294 203.704 191.039 201.022 193.715C201.022 193.715 200.543 195.148 202.235 194.734C203.927 194.352 204.821 193.97 204.821 193.97C204.821 193.97 201.373 202.41 201.086 203.302C200.798 204.162 202.778 202.601 204.342 200.977C205.172 200.276 210.632 197.537 211.75 194.065C212.548 191.517 208.174 191.294 208.174 191.294Z" fill="#FFA794"/>
<path d="M204.31 201.04H204.278C204.247 201.009 204.247 200.977 204.278 200.945L207.439 197.346C207.471 197.314 207.503 197.314 207.535 197.346C207.567 197.378 207.567 197.41 207.535 197.441L204.374 201.04C204.342 201.04 204.342 201.04 204.31 201.04Z" fill="#87584C"/>
<path d="M207.451 140.936C214.259 140.463 219.302 133.266 218.716 124.86C218.129 116.454 212.135 110.024 205.327 110.496C198.519 110.969 193.476 118.167 194.062 126.572C194.649 134.978 200.643 141.409 207.451 140.936Z" fill="#FFA88F"/>
<path d="M201.469 116.828C201.501 116.509 204.598 125.81 219.061 123.898C223.084 114.853 211.909 101.062 201.213 111.827C198.02 110.075 189.911 113.069 191.762 121.032C186.367 125.427 189.974 130.906 193.614 128.23C193.614 128.23 201.022 124.695 201.469 116.828Z" fill="#0D0D0D"/>
<path d="M216.347 125.555C217.082 126.733 218.646 127.115 219.828 126.383C221.009 125.65 221.392 124.09 220.658 122.911C219.923 121.733 218.359 121.35 217.178 122.083C215.964 122.816 215.613 124.376 216.347 125.555Z" fill="#FFA88F"/>
<path d="M288.831 90.3722C289.811 84.704 286.549 79.4109 281.545 78.5497C276.54 77.6885 271.689 81.5852 270.709 87.2534C269.728 92.9215 272.991 98.2146 277.995 99.0758C282.999 99.9371 287.851 96.0403 288.831 90.3722Z" fill="#029A65"/>
<path d="M286.718 84.4675C284.291 84.8816 280.939 87.3022 278.799 90.2006C278.544 88.831 277.299 87.5889 276.628 87.3022L274.489 89.5955C275.766 90.2325 277.107 92.0479 277.235 93.8953L279.278 94.2456C280.204 92.3664 282.599 87.8437 287.133 85.3912C287.037 85.009 286.75 84.4994 286.718 84.4675Z" fill="white"/>
<path d="M257.631 102.368L257.95 105.298L260.568 105.744L258.174 107.113L258.493 110.044L256.673 107.973L254.278 109.343L255.556 106.667L253.768 104.597L256.354 105.043L257.631 102.368Z" fill="#FDDA6D"/>
<path d="M266.986 103.96L267.305 106.922L269.891 107.368L267.497 108.738L267.816 111.668L265.996 109.566L263.602 110.935L264.879 108.292L263.091 106.19L265.677 106.636L266.986 103.96Z" fill="#FDDA6D"/>
<path d="M276.309 105.584L276.628 108.515L279.215 108.961L276.82 110.33L277.139 113.26L275.319 111.158L272.925 112.528L274.202 109.884L272.414 107.782L275 108.228L276.309 105.584Z" fill="#FDDA6D"/>
<path d="M285.632 107.177L285.951 110.107L288.538 110.553L286.143 111.923L286.462 114.853L284.674 112.783L282.248 114.152L283.557 111.477L281.737 109.406L284.323 109.852L285.632 107.177Z" fill="#FDDA6D"/>
<path d="M294.955 108.769L295.275 111.732L297.861 112.177L295.466 113.547L295.785 116.477L293.997 114.375L291.571 115.745L292.88 113.101L291.06 110.999L293.678 111.445L294.955 108.769Z" fill="#FDDA6D"/>
<path d="M188.697 175.496C186.526 175.56 184.419 175.624 182.535 175.656V169.285C183.812 169.063 184.515 168.935 185.728 168.68L188.697 175.496Z" fill="#994E3D"/>
<path d="M0.0639063 74.4984C-1.4048 63.3188 19.6041 58.7324 20.0831 64.6247L58.2057 59.4649C62.6118 58.9235 66.7306 62.3952 67.3691 67.2683L89.4956 234.42C90.166 239.452 87.069 244.071 82.5671 244.676L40.9962 250.664C40.7089 251.555 40.0384 252.415 38.9528 253.243C27.2989 254.772 21.4241 250.791 20.6258 244.708C20.0511 243.656 -0.127664 76.6642 0.0639063 74.4984Z" fill="#4D4D4D"/>
<path d="M39.6552 253.18L90.8685 245.982C95.53 245.345 98.7229 240.631 98.0524 235.439L75.1277 63.5736C74.4572 58.5731 70.2107 55.0058 65.645 55.5791L15.8046 61.8537C11.2069 62.427 7.9502 66.9816 8.58877 72.014L30.0128 244.899C30.6194 250.122 34.9617 253.817 39.6552 253.18Z" fill="#4D4D4D"/>
<path d="M38.4419 252.065C38.7612 252.065 39.0805 252.033 39.3998 252.001L90.5811 244.739C94.5722 244.198 97.35 240.057 96.7752 235.534L73.9144 63.8603C73.3397 59.4968 69.636 56.3436 65.7088 56.8532L15.8365 63.0322C15.7088 63.0322 15.613 63.064 15.4853 63.0959C13.6654 63.4144 12.037 64.4973 10.9515 66.0898C9.83398 67.7142 9.35505 69.7526 9.61048 71.8229L31.0664 244.867C31.5773 248.944 34.7382 252.065 38.4419 252.065Z" fill="#0D0D0D"/>
<path d="M12.2925 72.3325L33.7165 244.771L94.3487 236.331L71.5198 64.5928L12.2925 72.3325Z" fill="white"/>
<path d="M57.2159 93.1946L50.511 94.0546L25.6387 70.5807L32.3437 69.7208L57.2159 93.1946Z" fill="#6776FE"/>
<path d="M50.5109 94.0546L43.8379 94.9464L18.9656 71.4726L25.6386 70.5807L50.5109 94.0546Z" fill="#F1E3E0"/>
<path d="M43.8379 94.9464L37.1648 95.8063L12.2606 72.3325L18.9656 71.4725L43.8379 94.9464Z" fill="#6776FE"/>
<path d="M63.889 92.3028L57.2159 93.1946L32.3436 69.7208L39.0167 68.829L63.889 92.3028Z" fill="#F1E3E0"/>
<path d="M77.267 90.5511L70.594 91.4429L45.7217 67.969L52.3947 67.0772L77.267 90.5511Z" fill="#F1E3E0"/>
<path d="M96.6795 88.003L90.645 88.7993L65.7727 65.3254L71.8072 64.5292L96.6795 88.003Z" fill="#6776FE"/>
<path d="M90.6451 88.7993L83.972 89.6911L59.0997 66.2173L65.7728 65.3254L90.6451 88.7993Z" fill="#F1E3E0"/>
<path d="M70.594 91.4428L63.889 92.3028L39.0167 68.829L45.7217 67.969L70.594 91.4428Z" fill="#6776FE"/>
<path d="M83.9719 89.6911L77.2669 90.551L52.3947 67.0772L59.0996 66.2172L83.9719 89.6911Z" fill="#6776FE"/>
<path d="M43.8379 94.9464L44.3807 98.9914C44.9554 103.291 38.2504 104.151 37.6757 99.8833L37.1329 95.8382L43.8379 94.9464Z" fill="#5F6FFF"/>
<path d="M50.5109 94.0546L51.0537 98.0996C51.6284 102.399 44.9235 103.259 44.3807 98.9595L43.8379 94.9145L50.5109 94.0546Z" fill="#F1C5BC"/>
<path d="M57.216 93.1946L57.7587 97.2396C58.3335 101.539 51.6285 102.399 51.0538 98.1314L50.511 94.0864L57.216 93.1946Z" fill="#5F6FFF"/>
<path d="M63.889 92.3028L64.4318 96.3478C65.0065 100.648 58.3015 101.508 57.7587 97.2078L57.2159 93.1628L63.889 92.3028Z" fill="#F1C5BC"/>
<path d="M70.594 91.4429L71.1368 95.4879C71.7115 99.7877 65.0065 100.648 64.4318 96.3797L63.889 92.3347L70.594 91.4429Z" fill="#5F6FFF"/>
<path d="M77.2671 90.551L77.8098 94.596C78.3846 98.8959 71.6796 99.7558 71.1368 95.456L70.594 91.411L77.2671 90.551Z" fill="#F1C5BC"/>
<path d="M83.9719 89.691L84.5147 93.736C85.0894 98.0359 78.3845 98.8958 77.8097 94.6279L77.267 90.5828L83.9719 89.691Z" fill="#5F6FFF"/>
<path d="M90.6451 88.7993L91.1879 92.8443C91.7626 97.1441 85.0576 98.0041 84.5148 93.7042L83.972 89.6592L90.6451 88.7993Z" fill="#F1C5BC"/>
<path d="M96.6795 88.003L97.2223 92.048C97.797 96.3478 91.7625 97.1441 91.1878 92.8443L90.645 88.7993L96.6795 88.003Z" fill="#5F6FFF"/>
<path d="M37.1648 95.8063H37.6757L15.5812 98.7047L12.2606 72.3325L37.1648 95.8063Z" fill="#F1E3E0"/>
<path d="M11.207 130.555C12.1648 130.46 12.8353 129.568 12.7396 128.644L7.72678 85.6461C7.631 84.6905 6.737 84.0217 5.81108 84.1172C4.85322 84.2128 4.18272 85.1046 4.27851 86.0283L9.29128 129.026C9.38706 129.982 10.2491 130.683 11.207 130.555Z" fill="#0D0D0D"/>
<path d="M59.2236 210.783C66.4611 209.83 71.0138 199.119 69.3924 186.86C67.7709 174.6 60.5893 165.433 53.3518 166.386C46.1143 167.339 41.5615 178.049 43.183 190.309C44.8044 202.569 51.9861 211.735 59.2236 210.783Z" fill="#D4E3FF"/>
<path d="M60.1131 217.509C69.5359 216.268 75.4618 202.313 73.3491 186.339C71.2363 170.365 61.885 158.42 52.4622 159.66C43.0394 160.9 37.1135 174.856 39.2262 190.83C41.3389 206.804 50.6903 218.749 60.1131 217.509Z" stroke="#D4E3FF" stroke-width="3.0123" stroke-miterlimit="10"/>
<path d="M103.385 129.186L114.847 140.142L114.879 146.703C114.879 146.703 108.908 142.977 104.534 136.702C100.16 130.428 101.245 130.651 101.245 130.651L103.385 129.186Z" fill="#0D0D0D"/>
<path d="M110.504 143.104C115.453 149.188 126.533 160.367 126.533 160.367L150.287 165.495L151.437 172.088C151.437 172.088 131.194 172.502 124.361 171.451C117.88 170.464 101.437 161.546 95.9451 157.055C85.6641 148.583 98.3717 128.23 110.504 143.104Z" fill="#014C4D"/>
<path d="M57.2478 172.534L54.055 174.477C47.6693 177.439 47.7651 207.697 61.4305 205.659C70.8813 203.047 75.7663 198.556 78.8634 194.416C79.3423 191.772 63.9528 172.152 57.2478 172.534Z" fill="#0D0D0D"/>
<path d="M59.6106 170.591C76.6285 152.373 82.8545 139.378 92.5927 133.135C99.8086 128.485 109.483 133.04 113.41 140.779C115.805 145.525 115.39 153.488 111.909 159.921C103.129 176.229 88.5697 190.689 82.0244 192.282C78.7358 192.282 61.8137 181.452 59.6106 170.591Z" fill="#027273"/>
<path d="M101.181 131.861L111.877 120.459L119.189 126.447L113.155 141.99L101.181 131.861Z" fill="#FFA794"/>
<path d="M131.194 124.185C131.194 124.185 130.875 124.918 130.332 126.001C129.119 128.421 126.82 132.53 124.425 133.804C123.372 134.377 120.562 133.995 117.401 132.721C110.281 129.855 101.405 122.37 107.184 110.712C113.027 98.9277 125.255 101.316 128.672 106.54C130.588 109.47 132.407 111.795 131.673 120.299C134.77 124.058 132.727 124.249 131.194 124.185Z" fill="#FFA794"/>
<path d="M129.183 98.4181C108.812 87.7482 91.124 112.878 107.791 126.16C107.791 126.16 109.259 124.79 112.005 122.72C107.407 120.459 110.792 113.26 115.422 115.171C116.731 115.617 117.88 116.955 118.104 118.325C118.104 118.293 118.104 118.388 118.135 118.579C118.551 118.516 118.998 118.516 119.157 118.452C119.317 109.725 120.115 106.572 120.115 106.572C120.115 106.572 126.852 108.992 130.013 109.661C138.665 110.999 142.529 95.8382 129.183 98.4181Z" fill="#994803"/>
<path d="M123.372 127.848C119.317 127.529 119.125 117.656 119.125 117.656L118.072 118.325C118.519 123.58 117.912 129.026 116.379 132.307C116.379 132.307 118.327 134.059 122.254 134.091C122.254 134.091 122.254 134.122 122.286 134.122C122.733 134.154 123.052 134.154 123.372 134.122C121.616 130.237 125.703 126.669 129.534 127.498C129.821 126.988 130.077 126.478 130.3 126.032C127.778 125.204 125.096 126.16 123.372 127.848Z" fill="#994803"/>
<path d="M84.5148 140.333C84.5148 140.333 94.7639 132.466 102.139 143.709C110.728 156.8 82.5991 185.688 76.373 188.937L79.4701 190.816C86.8456 185.497 114.272 158.074 104.534 142.658C98.1483 132.562 88.8252 136.352 88.8252 136.352L84.5148 140.333Z" fill="#0D0D0D"/>
<path d="M60.281 169.986L57.2478 172.534C57.2478 172.534 60.0575 181.229 66.3155 186.517C72.5735 191.804 78.8634 194.416 78.8634 194.416L82.0243 192.282C82.0243 192.282 72.3819 187.345 67.9119 182.058C63.4419 176.77 60.281 169.986 60.281 169.986Z" fill="#DB6704"/>
<path d="M75.7344 188.81L79.023 186.58L82.9183 188.842L79.5977 191.199L75.7344 188.81Z" stroke="#DDC80A" stroke-width="2.326" stroke-miterlimit="10" stroke-linejoin="round"/>
<path d="M184.93 143.646H141.922V186.548H184.93V143.646Z" fill="#DB6704"/>
<path d="M166.443 143.741H160.441V153.965H166.443V143.741Z" fill="#FF851C"/>
<path d="M99.7446 131.766L103.416 129.218C103.672 131.543 108.908 138.645 114.879 140.174L111.75 146.48C105.013 141.384 100.543 136.32 99.7446 131.766Z" fill="#025859"/>
<path d="M141.316 170.91L149.489 172.311V176.739L141.028 177.63L141.316 170.91Z" fill="#FFA794"/>
<path d="M146.903 172.789C147.669 172.152 150.16 170.177 152.618 167.502C153.895 167.502 153.704 169.54 152.427 170.623C151.054 171.738 151.277 172.853 153.289 172.853C154.438 172.853 161.335 172.439 161.75 173.108C162.133 173.745 155.396 174.955 155.396 174.955C155.396 174.955 161.143 175.783 161.175 176.261C161.207 177.153 155.268 176.738 155.268 176.738C155.268 176.738 160.76 177.949 160.409 178.522C159.898 179.35 154.662 178.586 154.662 178.586C154.662 178.586 158.525 180.242 157.535 180.592C156.545 180.943 147.861 179.095 146.648 178.267C144.7 176.961 146.137 173.426 146.903 172.789Z" fill="#FFA794"/>
<path d="M84.0039 157.533C81.9605 154.348 80.6833 147.659 87.0371 142.467C93.8698 136.893 99.7766 142.053 103.161 148.551C105.779 153.519 118.008 166.992 118.008 166.992L147.095 171.611L147.382 178.936C147.382 178.936 121.328 183.077 110.983 178.363C101.788 174.222 88.6654 164.826 84.0039 157.533Z" fill="#027273"/>
<path d="M183.046 176.197H172.094V185.02H183.046V176.197Z" fill="#FFCFA6"/>
<path d="M144.732 171.228L147.063 171.611L147.35 179.35L145.275 180.943L144.732 171.228Z" fill="#03B1B3"/>
<path d="M164.496 144.729L163.346 143.869C163.25 143.869 163.027 143.837 162.771 143.805C159.355 143.391 154.662 142.69 153.672 141.257C153.48 141.002 153.416 140.716 153.512 140.397C153.64 139.887 153.959 139.537 154.406 139.346C156.801 138.486 163.027 143.009 163.57 143.391C163.602 143.423 163.634 143.423 163.665 143.455L164.496 144.729ZM155.109 139.76C154.885 139.76 154.725 139.792 154.566 139.856C154.247 139.983 154.055 140.206 153.959 140.556C153.927 140.716 153.959 140.875 154.055 141.002C154.694 141.926 157.535 142.69 162.516 143.295C160.536 141.926 156.96 139.76 155.109 139.76Z" fill="black"/>
<path d="M163.665 143.646H163.187V186.548H163.665V143.646Z" fill="white"/>
<path d="M163.442 143.646C163.442 143.646 174.713 137.116 176.309 140.365C177.906 143.646 163.442 143.646 163.442 143.646Z" stroke="black" stroke-width="1.5062" stroke-miterlimit="10"/>
<path d="M163.442 143.646C163.442 143.646 175.511 151.768 172.605 154.953C169.7 158.17 163.442 143.646 163.442 143.646Z" stroke="white" stroke-width="1.5062" stroke-miterlimit="10"/>
<path d="M184.834 159.03H141.922C141.794 159.03 141.667 158.934 141.667 158.775C141.667 158.647 141.763 158.52 141.922 158.52H184.834C184.962 158.52 185.089 158.616 185.089 158.775C185.089 158.934 184.962 159.03 184.834 159.03Z" fill="white"/>
<path d="M53.0013 106.89C53.2887 109.088 51.9477 111.095 50.0001 111.349C48.0524 111.604 46.2325 110.012 45.9451 107.814C45.6578 105.616 46.9988 103.61 48.9464 103.355C50.8941 103.1 52.714 104.661 53.0013 106.89Z" fill="#029A65"/>
<path d="M51.5327 104.947C50.6706 105.362 49.7127 106.667 49.2657 107.973C49.0103 107.495 48.4037 107.177 48.1163 107.145L47.6055 108.228C48.1483 108.324 48.8507 108.833 49.1061 109.502L49.9043 109.407C50.032 108.61 50.3832 106.667 51.7881 105.234C51.7242 105.107 51.5646 104.947 51.5327 104.947Z" fill="white"/>
<path d="M31.9605 137.021L33.1419 139.728L35.76 139.41L33.8762 141.416L35.0576 144.124L32.6949 142.658L30.8111 144.665L31.2581 141.767L28.8954 140.301L31.5135 139.951L31.9605 137.021Z" fill="#FDDA6D"/>
<path d="M41.3475 135.811L42.5288 138.518L45.147 138.167L43.2313 140.174L44.4126 142.881L42.0818 141.416L40.1981 143.455L40.6451 140.524L38.2823 139.059L40.9005 138.709L41.3475 135.811Z" fill="#FDDA6D"/>
<path d="M50.7344 134.568L51.8839 137.276L54.502 136.925L52.6182 138.932L53.7996 141.639L51.4688 140.206L49.585 142.212L50.0001 139.282L47.6693 137.817L50.2874 137.467L50.7344 134.568Z" fill="#FDDA6D"/>
<path d="M60.0895 133.326L61.2708 136.034L63.889 135.683L62.0052 137.722L63.1865 140.429L60.8558 138.964L58.972 140.97L59.3871 138.04L57.0563 136.607L59.6744 136.256L60.0895 133.326Z" fill="#FDDA6D"/>
<path d="M69.4764 132.084L70.6578 134.791L73.2759 134.441L71.3921 136.479L72.5735 139.187L70.2427 137.722L68.3589 139.728L68.774 136.83L66.4432 135.365L69.0614 135.014L69.4764 132.084Z" fill="#FDDA6D"/>
<path d="M55.9708 122.593L46.1049 123.899C45.9133 123.93 45.7217 123.803 45.626 123.612L42.912 117.497C42.8482 117.369 42.8482 117.178 42.912 117.051C42.9759 116.923 43.1036 116.828 43.2632 116.796L56.8967 115.012C57.0564 114.98 57.1841 115.044 57.2799 115.172C57.3756 115.299 57.4395 115.458 57.4076 115.586L56.3539 122.179C56.322 122.402 56.1624 122.561 55.9708 122.593ZM46.3284 122.847L55.5238 121.637L56.4178 116.031L44.0295 117.656L46.3284 122.847Z" fill="#0D0D0D"/>
<path d="M55.5238 125.396L47.1266 126.51C46.8712 126.542 46.6477 126.351 46.6157 126.096C46.5838 125.841 46.7435 125.587 46.9989 125.555L55.0768 124.504C55.6196 124.408 55.8111 123.962 55.8111 123.548C55.8111 123.166 55.6196 122.816 55.3641 122.72L56.9286 112.751C56.9606 112.528 57.1202 112.369 57.3118 112.369L60.2492 111.986C60.5046 111.955 60.7281 112.146 60.7601 112.4C60.792 112.655 60.6323 112.91 60.3769 112.942L57.7588 113.292L56.322 122.561C57.1841 123.612 56.4497 125.268 55.5238 125.396Z" fill="#0D0D0D"/>
<path d="M50.096 127.752C50.1917 128.358 49.7767 128.931 49.202 129.026C48.6273 129.09 48.0845 128.676 48.0206 128.039C47.9248 127.434 48.3399 126.861 48.9146 126.765C49.4574 126.701 50.0002 127.147 50.096 127.752Z" fill="#0D0D0D"/>
<path d="M55.3003 127.084C55.3961 127.689 54.981 128.262 54.4063 128.358C53.8316 128.421 53.2888 128.007 53.225 127.37C53.1292 126.765 53.5442 126.192 54.119 126.096C54.6937 126.001 55.2364 126.447 55.3003 127.084Z" fill="#0D0D0D"/>
<path d="M51.2773 123.198C51.0219 123.23 50.7984 123.039 50.7664 122.784L49.9363 116.414C49.9044 116.159 50.064 115.904 50.3194 115.872C50.5749 115.84 50.7984 116.031 50.8303 116.286L51.6604 122.656C51.6924 122.911 51.5327 123.166 51.2773 123.198Z" fill="#0D0D0D"/>
<path d="M48.755 123.548C48.5634 123.58 48.3399 123.453 48.2761 123.23L46.1049 117.051C46.0091 116.796 46.1369 116.509 46.3604 116.414C46.5839 116.318 46.8712 116.446 46.9351 116.7L49.1062 122.879C49.202 123.134 49.0743 123.421 48.8508 123.516C48.8508 123.516 48.8189 123.516 48.755 123.548Z" fill="#0D0D0D"/>
<path d="M53.7038 122.879C53.6719 122.879 53.6719 122.879 53.64 122.879C53.3846 122.879 53.193 122.656 53.193 122.37V115.904C53.193 115.617 53.3846 115.426 53.64 115.426C53.8954 115.426 54.087 115.649 54.087 115.936V122.402C54.087 122.656 53.9273 122.847 53.7038 122.879Z" fill="#0D0D0D"/>
<path d="M56.5135 119.312L44.7958 120.841C44.5404 120.873 44.3169 120.682 44.2849 120.427C44.253 120.172 44.4126 119.917 44.6681 119.885L56.3858 118.357C56.6413 118.325 56.8648 118.516 56.8967 118.771C56.9286 119.057 56.737 119.28 56.5135 119.312Z" fill="#0D0D0D"/>
<path d="M214.975 92.8761C210.345 92.8443 201.181 92.7805 184.196 92.7805C181.545 92.7805 179.406 90.6466 179.406 88.003V79.913C179.406 77.2694 181.545 75.1354 184.196 75.1354H214.464C217.114 75.1354 219.253 77.2694 219.253 79.913V88.64C219.221 90.9969 217.305 92.8761 214.975 92.8761Z" fill="#6776FE"/>
<path d="M188.219 84.0216C188.219 84.9135 187.484 85.646 186.59 85.646C185.696 85.646 184.962 84.9135 184.962 84.0216C184.962 83.1298 185.696 82.3973 186.59 82.3973C187.484 82.3973 188.219 83.1298 188.219 84.0216Z" fill="white"/>
<path d="M196.711 84.0216C196.711 84.9135 195.977 85.646 195.083 85.646C194.189 85.646 193.455 84.9135 193.455 84.0216C193.455 83.1298 194.189 82.3973 195.083 82.3973C195.977 82.3973 196.711 83.1298 196.711 84.0216Z" fill="white"/>
<path d="M205.173 84.0216C205.173 84.9135 204.438 85.646 203.544 85.646C202.65 85.646 201.916 84.9135 201.916 84.0216C201.916 83.1298 202.65 82.3973 203.544 82.3973C204.438 82.3973 205.173 83.1298 205.173 84.0216Z" fill="white"/>
<path d="M213.665 84.0216C213.665 84.9135 212.931 85.646 212.037 85.646C211.143 85.646 210.409 84.9135 210.409 84.0216C210.409 83.1298 211.143 82.3973 212.037 82.3973C212.931 82.3973 213.665 83.1298 213.665 84.0216Z" fill="white"/>
<path d="M202.842 89.691V97.0485L193.455 89.9777L202.842 89.691Z" fill="#027273"/>
<path d="M311.59 129.122C310.664 128.963 310.026 128.071 310.185 127.115L317.561 84.4675C317.72 83.5439 318.614 82.9069 319.572 83.0661C320.498 83.2254 321.137 84.1172 320.977 85.0727L313.602 127.721C313.442 128.644 312.548 129.281 311.59 129.122Z" fill="#0D0D0D"/>
<path d="M188.282 215.15H141.794V237.669H188.282V215.15Z" fill="#6776FE"/>
<path d="M181.609 224.769H149.234V228.368H181.609V224.769Z" fill="#0E0E0E"/>
<path d="M182.599 249.644L159.547 249.867C153.608 249.867 159.419 226.393 153.608 226.393H176.66C182.599 226.393 177.906 249.644 182.599 249.644Z" fill="white"/>
<path d="M167.178 240.057C166.252 240.057 164.879 241.395 164.304 244.548C163.378 249.74 159.547 249.899 159.547 249.899C159.547 249.899 182.088 249.676 186.175 249.676C188.602 249.676 187.74 244.739 188.059 242.51C188.282 240.949 189.336 240.28 189.943 240.089H167.178V240.057Z" fill="#0E0E0E"/>
<path d="M194.7 263.499H171.648C171.264 250.95 170.53 239.866 167.178 240.026C167.593 239.707 180.875 239.834 190.134 239.93C194.54 239.962 194.7 255.123 194.7 263.499Z" fill="white"/>
<path d="M190.485 243.816H172.637C172.478 243.816 172.382 243.688 172.382 243.561C172.382 243.402 172.51 243.306 172.637 243.306H190.485C190.645 243.306 190.741 243.434 190.741 243.561C190.773 243.72 190.645 243.816 190.485 243.816Z" fill="#0E0E0E"/>
<path d="M191.124 245.822H173.276C173.116 245.822 173.021 245.695 173.021 245.567C173.021 245.408 173.148 245.313 173.276 245.313H191.124C191.284 245.313 191.379 245.44 191.379 245.567C191.379 245.695 191.252 245.822 191.124 245.822Z" fill="#0E0E0E"/>
<path d="M191.539 247.829H173.691C173.531 247.829 173.436 247.701 173.436 247.574C173.436 247.415 173.563 247.319 173.691 247.319H191.539C191.699 247.319 191.794 247.447 191.794 247.574C191.794 247.701 191.667 247.829 191.539 247.829Z" fill="#0E0E0E"/>
<path d="M191.795 250.122H173.946C173.787 250.122 173.691 249.995 173.691 249.867C173.691 249.708 173.819 249.613 173.946 249.613H191.795C191.954 249.613 192.05 249.74 192.05 249.867C192.05 250.027 191.954 250.122 191.795 250.122Z" fill="#0E0E0E"/>
</g>
<defs>
<clipPath id="clip0_146_2288">
<rect width="325" height="300" fill="white"/>
</clipPath>
</defs>
</svg>
