<svg width="325" height="285" viewBox="0 0 325 285" fill="none" xmlns="http://www.w3.org/2000/svg">
<g clip-path="url(#clip0_146_2071)">
<path d="M290.147 284.1C311.965 256.774 324.965 222.244 324.965 184.666C324.965 96.1776 252.785 24.4514 163.737 24.4514C74.7239 24.4514 2.54424 96.1776 2.54424 184.666C2.54424 222.244 15.5791 256.808 37.3619 284.1H290.147Z" fill="#E4EDFF"/>
<path d="M40.7426 46.9978C46.9407 46.9978 51.9652 42.0049 51.9652 35.8458C51.9652 29.6867 46.9407 24.6938 40.7426 24.6938C34.5446 24.6938 29.5201 29.6867 29.5201 35.8458C29.5201 42.0049 34.5446 46.9978 40.7426 46.9978Z" fill="#D4E3FF"/>
<path d="M82.3914 212.443H56.8794V244.964H82.3914V212.443Z" fill="#FFA305"/>
<path d="M82.3914 244.964V212.443H97.3432L97.1341 244.964H82.3914Z" fill="#DE7F04"/>
<path d="M70.193 212.443H66.3941V219.854H70.193V212.443Z" fill="#FFC766"/>
<path d="M45.0992 244.964V212.443H56.8794L56.7051 244.964H45.0992Z" fill="#DE7F04"/>
<path d="M58.2735 187.056H39.3834V212.443H58.2735V187.056Z" fill="#DE7F04"/>
<path d="M41.614 212.443V187.056H26.6971L26.9062 212.443H41.614Z" fill="#FFA305"/>
<path d="M50.8499 187.056H47.8874V192.84H50.8499V187.056Z" fill="#FFC766"/>
<path d="M89.7453 187.056H70.8552V212.443H89.7453V187.056Z" fill="#FFA305"/>
<path d="M70.8552 212.443V187.056H58.1689L58.3432 212.443H70.8552Z" fill="#FFA305"/>
<path d="M89.7104 187.056H78.3834V212.443H89.7104V187.056Z" fill="#DE7F04"/>
<path d="M45.7265 212.443H19.3083V244.964H45.7265V212.443Z" fill="#FFA305"/>
<path d="M34.4343 212.443H30.6354V219.854H34.4343V212.443Z" fill="#FFC766"/>
<path d="M69.6354 187.056H66.6729V192.84H69.6354V187.056Z" fill="#FFC766"/>
<path d="M72.319 162.12H53.429V187.506H72.319V162.12Z" fill="#DE7F04"/>
<path d="M55.6247 187.472V162.12H40.7426L40.9517 187.472H55.6247Z" fill="#FFA305"/>
<path d="M64.8606 162.12H61.8981V167.904H64.8606V162.12Z" fill="#FFC766"/>
<path d="M99.6872 277.116C99.7119 272.889 96.2835 269.442 92.0296 269.418C87.7756 269.393 84.3071 272.8 84.2823 277.027C84.2576 281.254 87.686 284.701 91.9399 284.726C96.1938 284.75 99.6624 281.344 99.6872 277.116Z" fill="#4D4D4D"/>
<path d="M96.6011 277.124C96.6268 274.58 94.5724 272.498 92.0126 272.472C89.4528 272.447 87.3569 274.488 87.3313 277.032C87.3056 279.576 89.36 281.658 91.9198 281.684C94.4796 281.709 96.5755 279.668 96.6011 277.124Z" fill="#BDBDBD"/>
<path d="M80.7895 277.143C80.8134 272.915 77.3843 269.469 73.1303 269.446C68.8764 269.422 65.4085 272.829 65.3846 277.057C65.3607 281.284 68.7898 284.73 73.0437 284.754C77.2976 284.777 80.7655 281.37 80.7895 277.143Z" fill="#4D4D4D"/>
<path d="M77.7304 277.141C77.7546 274.597 75.6989 272.516 73.1388 272.491C70.5788 272.467 68.4838 274.51 68.4596 277.054C68.4354 279.598 70.4912 281.68 73.0512 281.704C75.6113 281.728 77.7062 279.685 77.7304 277.141Z" fill="#BDBDBD"/>
<path d="M38.7841 277.136C38.8082 272.908 35.3793 269.462 31.1253 269.438C26.8714 269.414 23.4034 272.822 23.3792 277.049C23.3551 281.276 26.784 284.722 31.0379 284.746C35.2918 284.77 38.7599 281.363 38.7841 277.136Z" fill="#4D4D4D"/>
<path d="M35.7249 277.135C35.7491 274.591 33.6933 272.509 31.1332 272.485C28.5732 272.461 26.4783 274.504 26.4541 277.048C26.43 279.592 28.4857 281.674 31.0458 281.698C33.6058 281.722 35.7008 279.679 35.7249 277.135Z" fill="#BDBDBD"/>
<path d="M24.5967 277.134C24.6209 272.906 21.192 269.46 16.9381 269.436C12.6842 269.412 9.21608 272.819 9.19191 277.047C9.16774 281.274 12.5966 284.72 16.8506 284.744C21.1045 284.768 24.5726 281.361 24.5967 277.134Z" fill="#4D4D4D"/>
<path d="M21.5381 277.134C21.5627 274.59 19.5073 272.508 16.9473 272.483C14.3872 272.459 12.2919 274.501 12.2673 277.045C12.2427 279.589 14.2981 281.672 16.8581 281.696C19.4182 281.72 21.5135 279.678 21.5381 277.134Z" fill="#BDBDBD"/>
<path d="M91.697 274.991L96.3324 272.705V265.951H102.885V273.744L93.6488 278.35C90.7212 279.355 89.4316 276.03 91.697 274.991Z" fill="#4D4D4D"/>
<path d="M72.807 274.991L77.4423 272.705V265.951H83.9946V273.744L74.7587 278.35C71.8311 279.355 70.5415 276.03 72.807 274.991Z" fill="#4D4D4D"/>
<path d="M30.7748 274.991L35.4102 272.705V265.951H41.9625V273.744L32.7265 278.35C29.8338 279.355 28.5442 276.03 30.7748 274.991Z" fill="#4D4D4D"/>
<path d="M16.5898 274.991L21.2252 272.705V265.951H27.7775V273.744L18.5416 278.35C15.6488 279.355 14.3593 276.03 16.5898 274.991Z" fill="#4D4D4D"/>
<path d="M46.807 245.344C46.6676 245.31 46.563 245.241 46.4585 245.171C46.2842 245.033 46.1448 244.86 46.1099 244.686L36.4906 192.771C36.4558 192.528 36.5952 192.39 36.8391 192.39L116.129 192.043C116.303 192.043 116.512 192.147 116.686 192.286C116.861 192.424 116.965 192.632 116.965 192.805L117.105 245.033C117.105 245.206 116.965 245.344 116.756 245.344L47.0509 245.379C46.9812 245.379 46.9115 245.379 46.807 245.344ZM37.8847 193.533L47.2949 244.305H115.989L115.85 193.117L37.8847 193.533Z" fill="#4D4D4D"/>
<path d="M40.6032 210.849L40.2198 210.191L116.303 209.36L116.617 209.984L40.6032 210.849Z" fill="#4D4D4D"/>
<path d="M43.8445 228.478L43.496 227.82L116.338 227.127L116.651 227.751L43.8445 228.478Z" fill="#4D4D4D"/>
<path d="M53.0456 244.998C52.941 244.963 52.8365 244.894 52.8365 244.79L43.2172 192.875C43.1823 192.771 43.2869 192.736 43.3914 192.771C43.496 192.805 43.6005 192.909 43.6354 193.013L53.2547 244.894C53.2547 244.963 53.1501 245.033 53.0456 244.998Z" fill="#4D4D4D"/>
<path d="M58.8311 244.998C58.7265 244.963 58.622 244.86 58.622 244.79L49.874 192.84C49.874 192.736 49.9437 192.701 50.0483 192.736C50.1528 192.771 50.2574 192.875 50.2922 192.978L59.0402 244.894C59.0402 244.963 58.9357 245.033 58.8311 244.998Z" fill="#4D4D4D"/>
<path d="M64.6166 244.998C64.5121 244.963 64.4075 244.86 64.4075 244.79L56.5308 192.805C56.5308 192.701 56.6005 192.667 56.7051 192.701C56.8097 192.736 56.9142 192.84 56.9491 192.944L64.8257 244.894C64.8257 244.963 64.756 245.033 64.6166 244.998Z" fill="#4D4D4D"/>
<path d="M70.437 244.998C70.3324 244.963 70.2279 244.859 70.2279 244.79L63.2225 192.771C63.2225 192.667 63.2922 192.632 63.3968 192.667C63.5013 192.701 63.6059 192.805 63.6059 192.909L70.5764 244.894C70.6113 244.963 70.5416 245.033 70.437 244.998Z" fill="#4D4D4D"/>
<path d="M76.2225 244.998C76.118 244.963 76.0134 244.86 76.0134 244.79L69.9142 192.736C69.9142 192.632 69.9839 192.597 70.0885 192.632C70.193 192.667 70.2976 192.771 70.2976 192.875L76.3968 244.894C76.4316 244.963 76.3271 245.033 76.2225 244.998Z" fill="#4D4D4D"/>
<path d="M82.0429 244.998C81.9383 244.963 81.8338 244.86 81.8338 244.79L76.6059 192.736C76.6059 192.632 76.6756 192.597 76.7802 192.632C76.8847 192.667 76.9893 192.771 76.9893 192.875L82.2172 244.929C82.2172 244.963 82.1475 245.033 82.0429 244.998Z" fill="#4D4D4D"/>
<path d="M87.8633 244.998C87.7587 244.963 87.6542 244.86 87.6542 244.79L83.2976 192.667C83.2976 192.563 83.3673 192.528 83.4719 192.563C83.5764 192.597 83.681 192.701 83.681 192.805L88.0375 244.894C88.0375 244.963 87.9678 245.033 87.8633 244.998Z" fill="#4D4D4D"/>
<path d="M93.6836 244.998C93.5791 244.963 93.4745 244.86 93.4745 244.79L90.0241 192.667C90.0241 192.563 90.0938 192.528 90.1984 192.563C90.3029 192.597 90.4075 192.701 90.4075 192.805L93.8579 244.929C93.8579 244.963 93.7882 245.033 93.6836 244.998Z" fill="#4D4D4D"/>
<path d="M99.504 244.998C99.3995 244.963 99.2949 244.86 99.2949 244.79L96.7158 192.632C96.7158 192.528 96.7855 192.494 96.8901 192.528C96.9946 192.563 97.0992 192.667 97.0992 192.771L99.6783 244.929C99.7132 244.963 99.6086 245.033 99.504 244.998Z" fill="#4D4D4D"/>
<path d="M105.359 244.998C105.255 244.963 105.15 244.86 105.15 244.79L103.477 192.563C103.477 192.494 103.547 192.424 103.651 192.494C103.756 192.528 103.861 192.632 103.861 192.736L105.534 244.929C105.534 244.963 105.464 244.998 105.359 244.998Z" fill="#4D4D4D"/>
<path d="M111.215 244.998C111.18 244.998 111.18 244.998 111.215 244.998C111.11 244.963 111.005 244.86 111.005 244.79L110.204 192.563C110.204 192.494 110.274 192.424 110.378 192.494C110.483 192.528 110.552 192.632 110.587 192.736L111.389 244.929C111.389 244.963 111.284 244.998 111.215 244.998Z" fill="#4D4D4D"/>
<path d="M9.89813 245.379C9.82842 245.345 9.75872 245.275 9.68901 245.171C9.58445 245.033 9.4799 244.825 9.4799 244.652L2.45869e-06 193.048C-0.0348501 192.84 0.034855 192.701 0.139413 192.701L37.1877 192.39C37.2574 192.39 37.3968 192.459 37.5013 192.598C37.6059 192.736 37.6756 192.909 37.7105 193.048L46.9464 245.033C46.9812 245.241 46.9464 245.379 46.807 245.379H9.96783C9.96783 245.414 9.93298 245.379 9.89813 245.379ZM0.731906 193.706L10.0375 244.202L46.2145 244.236L37.2225 193.325L0.731906 193.706Z" fill="#4D4D4D"/>
<path d="M3.58981 211.577L3.34584 210.919L40.2198 210.157L40.4638 210.746L3.58981 211.577Z" fill="#4D4D4D"/>
<path d="M6.76139 229.171L6.51743 228.513L43.3217 227.785L43.5657 228.443L6.76139 229.171Z" fill="#4D4D4D"/>
<path d="M13.1394 244.964C13.0697 244.929 13.0349 244.825 13 244.721L3.13673 193.152C3.13673 193.082 3.13673 193.013 3.20644 193.048C3.27614 193.082 3.311 193.152 3.34585 193.256L13.2091 244.86C13.244 244.964 13.2091 244.998 13.1394 244.964C13.1394 244.998 13.1394 244.964 13.1394 244.964Z" fill="#4D4D4D"/>
<path d="M16.1716 244.964C16.1019 244.929 16.0322 244.825 16.0322 244.721L6.27347 193.117C6.27347 193.048 6.27347 192.978 6.34317 193.013C6.41288 193.048 6.44773 193.117 6.48258 193.221L16.2761 244.86C16.2761 244.964 16.2413 244.998 16.1716 244.964C16.1716 244.998 16.1716 244.998 16.1716 244.964Z" fill="#4D4D4D"/>
<path d="M19.2386 244.963C19.1689 244.929 19.0992 244.825 19.0992 244.721L9.37534 193.082C9.37534 193.013 9.41019 192.944 9.44504 192.978C9.51475 193.013 9.5496 193.082 9.58445 193.186L19.3083 244.86C19.3432 244.963 19.3083 244.998 19.2386 244.963C19.2386 244.998 19.2386 244.998 19.2386 244.963Z" fill="#4D4D4D"/>
<path d="M22.3056 244.998C22.2359 244.964 22.1662 244.86 22.1662 244.756L12.5121 193.048C12.5121 192.978 12.5469 192.909 12.5818 192.944C12.6515 192.978 12.6863 193.048 12.7212 193.152L22.3753 244.86C22.4102 244.964 22.3753 245.033 22.3056 244.998Z" fill="#4D4D4D"/>
<path d="M25.3727 244.998C25.303 244.964 25.2333 244.86 25.2333 244.756L15.6488 193.013C15.6488 192.944 15.6837 192.909 15.7185 192.909C15.7882 192.944 15.8231 193.013 15.8579 193.117L25.4424 244.86C25.4424 244.964 25.4075 245.033 25.3727 244.998Z" fill="#4D4D4D"/>
<path d="M28.4397 244.998C28.37 244.964 28.3003 244.86 28.3003 244.756L18.7855 192.978C18.7855 192.909 18.8204 192.875 18.8552 192.909C18.9249 192.944 18.9598 193.048 18.9946 193.117L28.5094 244.86C28.5094 244.964 28.4745 245.033 28.4397 244.998Z" fill="#4D4D4D"/>
<path d="M31.5067 244.998C31.437 244.964 31.3673 244.86 31.3673 244.756L21.9223 192.944C21.9223 192.875 21.9571 192.84 21.992 192.875C22.0617 192.909 22.0965 193.013 22.1314 193.082L31.5764 244.86C31.5764 244.964 31.5416 245.033 31.5067 244.998Z" fill="#4D4D4D"/>
<path d="M34.5737 244.998C34.504 244.964 34.4343 244.86 34.4343 244.756L25.059 192.909C25.059 192.84 25.059 192.805 25.1287 192.84C25.1984 192.875 25.2333 192.978 25.2681 193.048L34.6434 244.86C34.6783 244.964 34.6434 245.033 34.5737 244.998Z" fill="#4D4D4D"/>
<path d="M37.6407 244.998C37.571 244.964 37.5013 244.86 37.5013 244.756L28.1957 192.875C28.1957 192.805 28.2306 192.771 28.2654 192.805C28.3351 192.84 28.37 192.944 28.4048 193.013L37.7453 244.894C37.7453 244.964 37.7105 245.033 37.6407 244.998Z" fill="#4D4D4D"/>
<path d="M40.7426 244.998C40.6729 244.964 40.6032 244.86 40.6032 244.756L31.3324 192.875C31.3324 192.805 31.3673 192.771 31.4021 192.805C31.4719 192.84 31.5067 192.944 31.5416 193.013L40.8123 244.894C40.8123 244.964 40.7775 245.033 40.7426 244.998Z" fill="#4D4D4D"/>
<path d="M43.8097 244.998C43.74 244.964 43.6703 244.86 43.6703 244.756L34.504 192.84C34.504 192.771 34.5389 192.736 34.5737 192.771C34.6434 192.805 34.6783 192.909 34.7131 192.978L43.9142 244.894C43.9142 244.963 43.8794 245.033 43.8097 244.998Z" fill="#4D4D4D"/>
<path d="M80.5791 245.344C80.5094 245.31 80.4397 245.241 80.4048 245.137C80.3351 244.998 80.2654 244.79 80.2654 244.617L79.4638 192.597C79.4638 192.39 79.5335 192.251 79.6729 192.251L116.477 191.939C116.547 191.939 116.651 192.009 116.756 192.147C116.826 192.286 116.895 192.459 116.895 192.597L117.453 245.033C117.453 245.241 117.383 245.379 117.279 245.379H80.7533C80.6488 245.379 80.6139 245.379 80.5791 245.344ZM80.0563 193.256L80.8928 244.167L116.756 244.236L116.303 192.909L80.0563 193.256Z" fill="#4D4D4D"/>
<path d="M79.9169 211.265L79.8123 210.607L116.512 209.845L116.651 210.434L79.9169 211.265Z" fill="#4D4D4D"/>
<path d="M80.1957 229.032L80.0563 228.339L116.651 227.647L116.791 228.305L80.1957 229.032Z" fill="#4D4D4D"/>
<path d="M83.8552 244.964C83.7855 244.929 83.7507 244.825 83.7507 244.721L82.5657 192.667C82.5657 192.597 82.6005 192.528 82.6702 192.563C82.7051 192.597 82.7748 192.667 82.7748 192.771L83.9946 244.825C83.9598 244.929 83.9249 244.998 83.8552 244.964Z" fill="#4D4D4D"/>
<path d="M86.8874 244.964C86.8177 244.929 86.7828 244.825 86.7828 244.721L85.6676 192.632C85.6676 192.563 85.7024 192.494 85.7721 192.528C85.807 192.563 85.8767 192.632 85.8767 192.736L87.0268 244.825C86.992 244.929 86.9571 244.998 86.8874 244.964Z" fill="#4D4D4D"/>
<path d="M89.9196 244.964C89.8499 244.929 89.815 244.825 89.815 244.721L88.7694 192.597C88.7694 192.528 88.8043 192.459 88.874 192.494C88.9088 192.528 88.9785 192.598 88.9785 192.701L90.059 244.825C90.0241 244.929 89.9893 244.998 89.9196 244.964Z" fill="#4D4D4D"/>
<path d="M92.9518 244.963C92.8821 244.929 92.8472 244.825 92.8472 244.721L91.8713 192.563C91.8713 192.494 91.9062 192.424 91.9759 192.459C92.0107 192.494 92.0804 192.563 92.0804 192.667L93.0563 244.86C93.0563 244.963 93.0215 244.998 92.9518 244.963Z" fill="#4D4D4D"/>
<path d="M95.9839 244.964C95.9142 244.929 95.8794 244.825 95.8794 244.721L94.9732 192.563C94.9732 192.494 95.0081 192.459 95.0778 192.459C95.1126 192.494 95.1823 192.598 95.1823 192.667L96.1233 244.86C96.0885 244.964 96.0536 244.998 95.9839 244.964Z" fill="#4D4D4D"/>
<path d="M99.0161 244.963C98.9464 244.929 98.9115 244.825 98.9115 244.721L98.0751 192.528C98.0751 192.459 98.1099 192.424 98.1796 192.424C98.2145 192.459 98.2842 192.563 98.2842 192.632L99.1555 244.86C99.1206 244.964 99.0858 244.998 99.0161 244.963Z" fill="#4D4D4D"/>
<path d="M102.083 244.963C102.013 244.929 101.979 244.825 101.979 244.721L101.212 192.494C101.212 192.424 101.247 192.39 101.316 192.424C101.351 192.459 101.421 192.563 101.421 192.632L102.223 244.894C102.188 244.963 102.118 244.998 102.083 244.963Z" fill="#4D4D4D"/>
<path d="M105.115 244.963C105.046 244.929 105.011 244.825 105.011 244.721L104.314 192.459C104.314 192.39 104.349 192.355 104.418 192.39C104.453 192.424 104.523 192.528 104.523 192.597L105.255 244.894C105.22 244.963 105.185 244.998 105.115 244.963Z" fill="#4D4D4D"/>
<path d="M108.182 244.963C108.113 244.929 108.078 244.825 108.078 244.721L107.45 192.424C107.45 192.355 107.485 192.32 107.555 192.355C107.59 192.39 107.66 192.494 107.66 192.563L108.322 244.86C108.252 244.963 108.217 244.998 108.182 244.963Z" fill="#4D4D4D"/>
<path d="M111.215 244.998C111.215 244.964 111.215 244.964 111.215 244.998C111.145 244.964 111.11 244.86 111.11 244.756L110.552 192.424C110.552 192.355 110.587 192.32 110.657 192.355C110.692 192.39 110.761 192.494 110.761 192.563L111.354 244.894C111.319 244.964 111.284 244.998 111.215 244.998Z" fill="#4D4D4D"/>
<path d="M114.282 244.998C114.282 244.998 114.282 244.963 114.282 244.998C114.212 244.963 114.177 244.86 114.177 244.756L113.689 192.39C113.689 192.32 113.724 192.286 113.759 192.32C113.794 192.355 113.863 192.459 113.863 192.528L114.351 244.894C114.386 244.963 114.351 245.033 114.282 244.998Z" fill="#4D4D4D"/>
<path d="M117.07 245.379C117.697 245.379 118.185 244.894 118.185 244.271V179.333C118.185 176.493 120.52 174.172 123.378 174.172H138.992C139.619 174.172 140.107 173.688 140.107 173.064C140.107 172.441 139.619 171.956 138.992 171.956H123.378C119.3 171.956 115.989 175.246 115.989 179.298V244.236C115.954 244.894 116.442 245.379 117.07 245.379Z" fill="#4D4D4D"/>
<path d="M80.9276 245.379C81.555 245.379 82.0429 244.894 82.0429 244.271V179.333C82.0429 176.493 84.378 174.172 87.2359 174.172H102.815C103.442 174.172 103.93 173.688 103.93 173.064C103.93 172.441 103.442 171.956 102.815 171.956H87.2011C83.1233 171.956 79.8123 175.246 79.8123 179.298V244.236C79.8123 244.894 80.3003 245.379 80.9276 245.379Z" fill="#4D4D4D"/>
<path d="M44.3673 266.055H107.694C110.483 266.055 113.097 264.982 115.048 263.008C117 261.034 118.08 258.436 118.08 255.665C118.046 249.985 113.41 245.379 107.694 245.379H40.2896C39.6622 245.379 39.1743 245.864 39.1743 246.487C39.1743 247.111 39.6622 247.596 40.2896 247.596H107.694C112.19 247.596 115.85 251.232 115.885 255.7C115.885 257.882 115.048 259.925 113.48 261.484C111.946 263.042 109.89 263.874 107.694 263.874H44.3673C43.74 263.874 43.252 264.358 43.252 264.982C43.252 265.571 43.7748 266.055 44.3673 266.055Z" fill="#4D4D4D"/>
<path d="M18.9598 266.055H82.2869C85.0751 266.055 87.689 264.982 89.6408 263.008C91.5925 261.034 92.6729 258.436 92.6729 255.665C92.6381 249.985 88.0027 245.379 82.2869 245.379H14.882C14.2547 245.379 13.7668 245.864 13.7668 246.487C13.7668 247.111 14.2547 247.596 14.882 247.596H82.252C86.748 247.596 90.4075 251.232 90.4424 255.7C90.4424 257.882 89.6059 259.925 88.0375 261.484C86.504 263.042 84.4477 263.874 82.252 263.874H18.9598C18.3324 263.874 17.8445 264.358 17.8445 264.982C17.8445 265.571 18.3673 266.055 18.9598 266.055Z" fill="#4D4D4D"/>
<path d="M101.665 175.038H135.96C137.04 175.038 137.946 174.172 137.946 173.064C137.946 171.991 137.075 171.09 135.96 171.09H101.665C100.584 171.09 99.6783 171.956 99.6783 173.064C99.6783 174.172 100.584 175.038 101.665 175.038Z" fill="#4D4D4D"/>
<path d="M99.7131 15.7237C99.5737 -1.38534 132.265 -3.9136 131.882 5.09114L190.539 5.29895C197.335 5.40285 202.807 11.4984 202.772 18.9446L202.005 267.129C201.97 274.402 196.533 280.29 189.807 280.29L127.665 280.602C127.072 281.814 125.957 282.922 124.18 283.822C106.788 283.684 98.8767 276.896 98.807 268.133C98.1796 266.506 99.0161 18.9446 99.7131 15.7237Z" fill="#4D4D4D"/>
<path d="M125.225 283.892L201.657 283.822C208.592 283.822 214.239 277.796 214.273 270.315L215.214 15.0656C215.249 7.41157 209.568 1.14288 202.528 1.07362L125.853 0.0692426C118.777 -2.46465e-05 112.992 6.16476 112.992 13.8188L112.574 270.246C112.574 277.762 118.22 283.857 125.225 283.892Z" fill="#4D4D4D"/>
<path d="M123.692 282.056C124.145 282.125 124.633 282.16 125.086 282.16L201.517 281.952C207.477 281.952 212.391 276.653 212.426 270.142L213.332 15.1695C213.367 8.48519 208.418 3.01308 202.389 2.94381L125.748 1.8009C125.574 1.8009 125.399 1.8009 125.225 1.8009C122.402 1.9048 119.753 3.18625 117.767 5.33353C115.745 7.55008 114.665 10.5286 114.63 13.6802L114.142 270.385C114.177 276.307 118.255 281.329 123.692 282.056Z" fill="#0D0D0D"/>
<path d="M118.603 15.0309L118.08 270.8H208.732L209.568 15.7929L118.603 15.0309Z" fill="white"/>
<path d="M182.244 55.5177L171.997 55.4484L139.096 15.2042L149.378 15.2734L182.244 55.5177Z" fill="#6776FE"/>
<path d="M171.997 55.4484L161.786 55.3445L128.85 15.1349L139.097 15.2042L171.997 55.4484Z" fill="#F1E3E0"/>
<path d="M161.786 55.3445L151.539 55.2753L118.568 15.031L128.85 15.1349L161.786 55.3445Z" fill="#6776FE"/>
<path d="M192.456 55.6216L182.244 55.5177L149.378 15.2734L159.66 15.3773L192.456 55.6216Z" fill="#F1E3E0"/>
<path d="M212.914 55.7601L202.668 55.6908L169.941 15.4466L180.222 15.5505L212.914 55.7601Z" fill="#F1E3E0"/>
<path d="M242.574 56.0026L233.373 55.9333L200.751 15.7237L210.021 15.793L242.574 56.0026Z" fill="#6776FE"/>
<path d="M233.373 55.9333L223.126 55.864L190.469 15.6198L200.751 15.7237L233.373 55.9333Z" fill="#F1E3E0"/>
<path d="M202.668 55.6908L192.456 55.6216L159.66 15.3773L169.941 15.4466L202.668 55.6908Z" fill="#6776FE"/>
<path d="M223.126 55.8641L212.914 55.7602L180.223 15.5505L190.469 15.6198L223.126 55.8641Z" fill="#6776FE"/>
<path d="M161.786 55.3445V61.4747C161.786 67.9512 151.574 67.8819 151.574 61.4054V55.2753L161.786 55.3445Z" fill="#5F6FFF"/>
<path d="M171.997 55.4484V61.5786C171.997 68.0551 161.786 67.9858 161.786 61.5093V55.3792L171.997 55.4484Z" fill="#F1C5BC"/>
<path d="M182.244 55.5177V61.6478C182.244 68.1243 172.032 68.0551 172.032 61.5786V55.4484L182.244 55.5177Z" fill="#5F6FFF"/>
<path d="M192.456 55.6216V61.7517C192.421 68.2282 182.244 68.1589 182.244 61.6825V55.5523L192.456 55.6216Z" fill="#F1C5BC"/>
<path d="M202.668 55.6908L202.633 61.821C202.598 68.2975 192.386 68.2282 192.421 61.7517V55.6216L202.668 55.6908Z" fill="#5F6FFF"/>
<path d="M212.914 55.7601L212.879 61.8903C212.845 68.3668 202.633 68.2975 202.668 61.821L202.702 55.6909L212.914 55.7601Z" fill="#F1C5BC"/>
<path d="M223.126 55.8641L223.091 61.9942C223.056 68.4707 212.845 68.4014 212.879 61.925L212.914 55.7948L223.126 55.8641Z" fill="#5F6FFF"/>
<path d="M233.373 55.9333L233.338 62.0634C233.303 68.5399 223.091 68.4706 223.126 61.9942L223.161 55.864L233.373 55.9333Z" fill="#F1C5BC"/>
<path d="M242.574 56.0026L242.539 62.1327C242.469 68.6092 233.268 68.5399 233.338 62.0634L233.373 55.9333L242.574 56.0026Z" fill="#5F6FFF"/>
<path d="M151.539 55.2753L152.341 55.3792L118.534 55.1021L118.568 15.031L151.539 55.2753Z" fill="#F1E3E0"/>
<path d="M105.952 101.338C107.381 101.373 108.566 100.23 108.601 98.8097L109.158 34.0102C109.158 32.5902 108.008 31.3781 106.544 31.3434C105.08 31.3088 103.895 32.4517 103.895 33.9063L103.373 98.7058C103.338 100.126 104.523 101.303 105.952 101.338Z" fill="#0D0D0D"/>
<path d="M199.531 81.7007H185.381V159.245H199.531V81.7007Z" fill="#E4EDFF"/>
<path d="M192.456 152.319C191.619 152.319 190.957 151.661 190.957 150.829V90.082C190.957 89.2508 191.619 88.5928 192.456 88.5928C193.292 88.5928 193.954 89.2508 193.954 90.082V150.864C193.954 151.661 193.257 152.319 192.456 152.319Z" fill="#0D0D0D"/>
<path d="M261.987 163.921C261.987 163.921 267.075 163.609 269.689 168.112C272.303 172.614 269.027 176.77 269.027 176.77C269.027 176.77 278.437 176.978 279.552 185.74C280.667 194.502 272.582 195.818 272.582 195.818C272.582 195.818 275.858 202.537 268.051 207.767C260.279 212.997 252.681 203.369 252.681 203.369C252.681 203.369 246.198 205.862 240.97 199.455C235.777 193.048 241.493 186.571 241.493 186.571C241.493 186.571 237.659 183.801 238.496 177.082C239.332 170.363 244.804 170.224 244.804 170.224C244.804 170.224 242.225 166.241 245.083 163.297C247.941 160.354 252.472 162.916 252.472 162.916C252.472 162.916 253.831 157.825 257.456 158.518C261.115 159.28 261.987 163.921 261.987 163.921Z" fill="#0D0D0D"/>
<path d="M244.735 176.943L234.209 166.311V147.886L230.724 147.435C230.724 147.435 227.866 164.198 227.866 167.765C227.866 170.917 238.566 184.701 238.566 184.701L244.735 176.943Z" fill="#FFA88F"/>
<path d="M257.072 177.774C253.727 174.969 244.107 176.285 244.107 176.285C244.107 176.285 237.834 181.411 237.311 185.186C236.928 187.922 238.531 203.057 238.531 203.057H253.971L259.791 187.16C259.791 187.16 260.383 180.58 257.072 177.774Z" fill="#029E73"/>
<path d="M258.397 220.893C259.651 228.27 261.115 240.288 261.708 248.669C265.751 266.229 264.775 269.623 266.343 280.29C264.635 281.606 262.161 280.705 262.161 280.705C259.303 273.467 254.877 261.38 253.761 251.094C251.113 242.539 248.29 233.465 245.397 224.114L245.188 223.56C242.748 215.421 256.48 210.538 258.397 220.893Z" fill="#FFA88F"/>
<path d="M238.531 203.057C238.531 203.057 236.614 208.183 235.394 216.148C234.174 224.114 230.236 279.736 230.236 279.736L234.627 279.77C236.962 270.246 241.633 262.661 241.04 250.366L252.158 216.633L246.721 203.057H238.531Z" fill="#FFA88F"/>
<path d="M255.853 177.913L266.657 167.904L262.335 148.578L266.064 147.435C266.064 147.435 275.196 165.826 275.161 169.393C275.161 172.545 259.791 187.299 259.791 187.299C257.386 188.407 253.761 183.073 255.853 177.913Z" fill="#FFA88F"/>
<path d="M244.735 162.051C242.19 166.692 241.842 171.229 245.815 173.41C249.788 175.592 255.086 173.618 257.63 168.977C260.174 164.336 259.024 158.795 255.051 156.613C251.113 154.362 247.314 157.375 244.735 162.051Z" fill="#FFA88F"/>
<path d="M247.209 171.575H253.029L253.273 177.774C253.273 179.056 250.276 180.857 247.836 180.718C245.954 180.614 244.7 179.298 245.292 177.947L247.209 171.575Z" fill="#FFA88F"/>
<path d="M232.048 242.124C233.895 217.984 238.531 203.057 238.531 203.057H253.97C256.689 205.169 259.164 208.875 260.767 212.858C261.847 216.01 266.169 229.69 267.842 242.124C255.609 246.522 233.617 244.894 232.048 242.124Z" fill="#029E73"/>
<path d="M255.016 200.771L254.284 203.472H238.322L238.182 200.771H255.016Z" fill="#0D0D0D"/>
<path d="M222.359 284.169C222.359 284.1 224.973 284.1 227.727 284.134C230.933 284.134 234.906 284.169 234.906 284.169C234.976 282.957 235.046 281.675 234.627 279.805L229.609 279.77C229.609 279.77 228.214 280.013 225.775 280.74C225.601 280.775 225.426 280.809 225.252 280.879C221.418 281.744 222.359 284.273 222.359 284.169Z" fill="#994803"/>
<path d="M222.359 284.169C222.359 284.1 224.973 284.1 227.727 284.134C227.796 283.892 227.866 283.615 227.866 283.338C227.866 282.125 226.995 281.121 225.81 280.74C225.635 280.775 225.461 280.809 225.287 280.879C221.418 281.744 222.359 284.273 222.359 284.169Z" fill="#994803"/>
<path d="M235.08 283.372H222.115V284.169H235.08V283.372Z" fill="#994803"/>
<path d="M261.359 284.203C261.429 284.203 262.719 284.203 264.287 284.169C266.866 284.134 270.247 284.134 270.56 284.203C271.467 282.056 269.584 280.948 267.877 280.359C267.145 280.117 266.448 279.943 265.995 279.805L261.638 279.839C261.255 281.71 261.29 282.957 261.359 284.203Z" fill="#994803"/>
<path d="M270.804 283.407H261.185V284.203H270.804V283.407Z" fill="#994803"/>
<path d="M264.287 284.169C266.866 284.134 270.247 284.134 270.56 284.203C271.466 282.056 269.584 280.948 267.877 280.359C266.901 280.255 265.716 280.428 264.81 281.364C263.869 282.333 263.938 283.372 264.287 284.169Z" fill="#994803"/>
<path d="M250.764 158.553C250.869 158.379 249.475 164.371 257.839 168.112C262.997 164.614 261.568 153.565 252.263 155.782C251.147 153.808 245.78 152.734 244.142 157.583C239.786 158.137 239.89 162.258 242.748 162.051C242.783 162.051 247.906 162.639 250.764 158.553Z" fill="#0D0D0D"/>
<path d="M255.853 168.112C255.853 168.977 256.55 169.705 257.456 169.705C258.362 169.705 259.059 169.012 259.059 168.112C259.059 167.246 258.362 166.518 257.456 166.518C256.55 166.518 255.853 167.246 255.853 168.112Z" fill="#FFA88F"/>
<path d="M267.18 93.9956H190.957V146.916H267.18C269.828 146.916 271.989 144.768 271.989 142.136V98.7751C271.989 96.1429 269.828 93.9956 267.18 93.9956Z" fill="#0266C9"/>
<path d="M257.456 107.364H251.147V104.836C251.147 104.005 251.844 103.312 252.681 103.312H261.533V109.373C261.533 109.719 261.743 110.031 262.091 110.031C262.44 110.031 262.614 109.719 262.614 109.373V103.312H264.147C264.984 103.312 265.681 104.005 265.681 104.836V112.213H257.386C257.142 112.213 256.898 112.386 256.863 112.663C256.828 112.94 257.072 113.217 257.351 113.217H265.681V116.265C265.681 117.096 264.984 117.789 264.147 117.789H252.716C251.879 117.789 251.182 117.096 251.182 116.265V108.403H257.525C257.804 108.403 258.048 108.161 258.013 107.849C257.944 107.572 257.7 107.364 257.456 107.364Z" fill="#FFCA05"/>
<path d="M192.424 140.976H209.955V132.179H192.424V140.976Z" fill="#ECEAE9"/>
<path d="M265.611 123.088H249.265V127.175H265.611V123.088Z" fill="#ECEAE9"/>
<path d="M247 123.088H230.341V127.175H247V123.088Z" fill="#ECEAE9"/>
<path d="M209.568 123.088H192.56V127.175H209.568V123.088Z" fill="#ECEAE9"/>
<path d="M227.727 123.088H211.973V127.175H227.727V123.088Z" fill="#ECEAE9"/>
<path d="M215.095 137.484H265.526V132.185H215.095V137.484Z" fill="#FFCA05"/>
<path d="M192.449 105.148H214.127V98.9836H192.449V105.148Z" fill="#ECEAE9"/>
<path d="M233.965 148.232C233.965 148.232 235.324 147.92 235.708 145.565C236.091 143.245 236.126 143.764 236.126 143.764C236.126 143.764 234.836 143.106 234.139 145.807C232.118 145.669 230.828 146.95 230.828 146.95C230.828 146.95 230.306 147.193 230.584 147.92C230.898 148.682 233.721 148.578 233.965 148.232Z" fill="#FFA88F"/>
<path d="M262.335 148.544C262.335 148.544 260.314 147.885 259.512 143.695C260.802 142.794 261.324 145.184 261.324 145.184C261.324 145.184 266.274 144.768 266.064 147.366C265.855 149.998 262.335 148.544 262.335 148.544Z" fill="#FFA88F"/>
<path d="M191.933 93.9956H190.957V146.916H191.933V93.9956Z" fill="#0D0D0D"/>
<path d="M173.879 81.7007H130.802V105.425H173.879V81.7007Z" fill="#E4EDFF"/>
<path d="M173.879 108.611H130.802V132.335H173.879V108.611Z" fill="#E4EDFF"/>
<path d="M173.879 135.452H130.802V159.176H173.879V135.452Z" fill="#E4EDFF"/>
<path d="M197.509 178.155H130.279V244.964H197.509V178.155Z" fill="#E4EDFF"/>
<path d="M174.158 219.404H150.284C149.796 219.404 149.378 219.092 149.239 218.642L144.673 204.477C144.568 204.131 144.638 203.784 144.847 203.507C145.056 203.23 145.37 203.057 145.718 203.057H178.724C179.072 203.057 179.386 203.23 179.595 203.507C179.804 203.784 179.874 204.165 179.769 204.477L175.204 218.642C175.064 219.092 174.611 219.404 174.158 219.404ZM151.086 217.222H173.357L177.225 205.239H147.217L151.086 217.222Z" fill="#025B75"/>
<path d="M172.206 225.396H151.853C151.26 225.396 150.772 224.911 150.772 224.322C150.772 223.733 151.26 223.248 151.853 223.248H171.405C172.729 223.214 173.322 222.313 173.426 221.378C173.496 220.547 173.182 219.681 172.625 219.439L179.491 198.07C179.63 197.619 180.048 197.308 180.536 197.308H187.646C188.239 197.308 188.727 197.793 188.727 198.381C188.727 198.97 188.239 199.455 187.646 199.455H181.338L175.029 219.3C176.702 222.001 174.437 225.396 172.206 225.396Z" fill="#025B75"/>
<path d="M156 231.526C157.386 231.526 158.509 230.409 158.509 229.032C158.509 227.655 157.386 226.539 156 226.539C154.614 226.539 153.491 227.655 153.491 229.032C153.491 230.409 154.614 231.526 156 231.526Z" fill="#025B75"/>
<path d="M168.651 231.526C170.037 231.526 171.161 230.409 171.161 229.032C171.161 227.655 170.037 226.539 168.651 226.539C167.266 226.539 166.142 227.655 166.142 229.032C166.142 230.409 167.266 231.526 168.651 231.526Z" fill="#025B75"/>
<path d="M162.831 219.404C162.239 219.404 161.751 218.919 161.751 218.33V204.165C161.751 203.576 162.239 203.091 162.831 203.091C163.424 203.091 163.912 203.576 163.912 204.165V218.33C163.912 218.919 163.424 219.404 162.831 219.404Z" fill="#025B75"/>
<path d="M156.732 219.404C156.244 219.404 155.791 219.058 155.651 218.573L152.41 204.408C152.271 203.819 152.654 203.23 153.247 203.092C153.839 202.953 154.432 203.334 154.571 203.923L157.812 218.088C157.952 218.677 157.568 219.265 156.976 219.404C156.871 219.369 156.802 219.404 156.732 219.404Z" fill="#025B75"/>
<path d="M168.651 219.404C168.582 219.404 168.547 219.404 168.477 219.404C167.885 219.335 167.466 218.781 167.536 218.157L169.592 203.992C169.662 203.403 170.22 202.988 170.847 203.057C171.44 203.126 171.858 203.68 171.788 204.304L169.732 218.469C169.662 218.988 169.174 219.404 168.651 219.404Z" fill="#025B75"/>
<path d="M176.424 212.408H148.019C147.426 212.408 146.938 211.923 146.938 211.334C146.938 210.746 147.426 210.261 148.019 210.261H176.424C177.016 210.261 177.504 210.746 177.504 211.334C177.539 211.923 177.051 212.408 176.424 212.408Z" fill="#025B75"/>
<path d="M150.88 204.046C150.904 201.081 148.505 198.658 145.521 198.635C142.538 198.612 140.1 200.996 140.076 203.961C140.053 206.925 142.452 209.348 145.436 209.371C148.419 209.395 150.857 207.01 150.88 204.046Z" fill="#F13005"/>
<path d="M152.863 89.9089C151.748 88.385 149.901 87.3806 147.845 87.3806C144.394 87.3806 141.606 90.1513 141.606 93.58C141.606 97.0088 144.394 99.7794 147.845 99.7794C149.901 99.7794 151.748 98.7751 152.863 97.2512C152.097 96.2122 151.678 94.9654 151.678 93.6147C151.643 92.1947 152.097 90.9132 152.863 89.9089Z" fill="white"/>
<path d="M157.882 87.3806C155.826 87.3806 153.979 88.385 152.863 89.9089C153.63 90.9479 154.083 92.1947 154.083 93.5454C154.083 94.8961 153.63 96.1776 152.863 97.1819C153.979 98.7058 155.826 99.7102 157.882 99.7102C161.332 99.7102 164.121 96.9395 164.121 93.5108C164.086 90.1513 161.298 87.3806 157.882 87.3806Z" fill="#04DBDE"/>
<path d="M152.863 89.9089C152.097 90.9479 151.678 92.1947 151.678 93.5454C151.678 94.8961 152.131 96.1776 152.863 97.1819C153.63 96.1429 154.083 94.8961 154.083 93.5454C154.048 92.1947 153.595 90.9132 152.863 89.9089Z" fill="#03ADB0"/>
<path d="M164.016 113.633H143.035V125.166H164.016V113.633Z" fill="#03ADB0"/>
<path d="M163.145 121.876L163.18 116.888C161.646 116.888 160.879 115.711 160.879 114.499H146.276C146.276 115.676 145.509 116.888 143.976 116.888C143.976 116.888 143.976 116.888 143.941 116.888V121.91C143.941 121.91 143.941 121.91 143.976 121.91C145.509 121.91 146.276 123.088 146.276 124.3H160.844C160.81 123.088 161.576 121.876 163.145 121.876Z" fill="#03ADB0"/>
<path d="M153.665 122.014C155.128 122.014 156.314 120.836 156.314 119.382C156.314 117.928 155.128 116.75 153.665 116.75C152.202 116.75 151.016 117.928 151.016 119.382C151.016 120.836 152.202 122.014 153.665 122.014Z" fill="#03ADB0"/>
<path d="M161.298 116.819H140.316V128.352H161.298V116.819Z" fill="#04D6D9"/>
<path d="M160.391 125.027C160.426 125.027 160.426 125.062 160.391 125.027L160.426 120.04C158.893 120.04 158.126 118.863 158.126 117.65H143.523C143.523 118.828 142.756 120.04 141.223 120.04C141.223 120.04 141.223 120.04 141.188 120.04V125.097C141.188 125.097 141.188 125.097 141.223 125.097C142.756 125.097 143.523 126.274 143.523 127.486H158.091C158.091 126.24 158.858 125.027 160.391 125.027Z" fill="white"/>
<path d="M150.965 125.206C152.427 125.181 153.593 123.982 153.567 122.529C153.542 121.075 152.336 119.917 150.873 119.942C149.411 119.967 148.245 121.166 148.27 122.62C148.296 124.073 149.502 125.231 150.965 125.206Z" fill="#04D6D9"/>
<path d="M143.941 142.136V153.254L158.335 151.28V139.954L143.941 142.136Z" fill="#028B8F"/>
<path d="M145.753 142.136L145.788 153.011L159.555 153.739L159.52 142.69L145.753 142.136Z" fill="white"/>
<path d="M143.941 142.136V153.254L158.335 156.648V145.323L143.941 142.136Z" fill="#03ABB0"/>
<path d="M58.7963 97.5975C55.1019 101.65 49.2118 104.871 42.8338 106.394C42.8338 106.81 42.8686 109.165 43.008 120.04C43.2172 134.517 57.2976 141.374 59.3887 142.31C61.445 141.305 75.3512 134.101 75.177 119.625C75.0375 108.75 75.0027 106.394 75.0027 105.979C68.5898 104.628 62.5952 101.546 58.7963 97.5975Z" fill="#318F66"/>
<path d="M59.3539 138.188C57.9598 137.495 55.1716 135.937 52.5228 133.409C48.4799 129.53 46.3888 125.027 46.319 120.04L46.1796 109.061C51.1636 107.676 55.6595 105.252 58.9008 102.204C62.2118 105.182 66.7775 107.468 71.7963 108.715L71.9357 119.694C72.0054 124.716 70.0536 129.253 66.0804 133.236C63.4665 135.833 60.748 137.461 59.3539 138.188Z" fill="#40B883"/>
<path d="M69.0081 112.767C65.1743 113.425 59.9812 117.027 56.74 121.287C56.252 119.313 54.126 117.547 53.0107 117.166L49.7695 120.525C51.8606 121.425 54.1609 123.988 54.5094 126.655L57.8204 127.105C59.1448 124.335 62.63 117.754 69.7051 114.118C69.5657 113.598 69.0429 112.836 69.0081 112.767Z" fill="white"/>
<path d="M313.847 284.03H5.68097V285H313.847V284.03Z" fill="#03A9CC"/>
</g>
<defs>
<clipPath id="clip0_146_2071">
<rect width="325" height="285" fill="white"/>
</clipPath>
</defs>
</svg>
