<svg width="26" height="26" viewBox="0 0 26 26" fill="none" xmlns="http://www.w3.org/2000/svg">
<path d="M12.3602 0.807423C12.1164 0.919141 11.9539 1.10703 11.8727 1.38125C11.8422 1.49297 11.7762 1.59453 11.7356 1.60977C11.6898 1.625 11.5223 1.69609 11.3598 1.76719L11.0652 1.89414L10.8367 1.7875C10.5117 1.625 10.1816 1.64023 9.89727 1.81797C9.62813 1.9957 9.16094 2.4832 9.08985 2.66602C9.0086 2.88438 9.03399 3.15859 9.16094 3.43281C9.22696 3.58008 9.26758 3.71719 9.24219 3.7375C9.22188 3.76289 9.14571 3.93047 9.07461 4.11328C8.94766 4.4332 8.9375 4.44844 8.65313 4.55508C8.14532 4.75313 8.02344 4.94609 7.98282 5.58594C7.94219 6.3375 8.14024 6.72344 8.65313 6.88594C8.92227 6.97227 8.92735 6.97227 9.06446 7.32773L9.20157 7.6832L9.08985 7.90664C8.85118 8.38398 8.90196 8.66328 9.32344 9.13555C9.81094 9.68398 10.2578 9.83125 10.7199 9.59766L10.9231 9.49102L11.1871 9.61797C11.3344 9.68906 11.5324 9.77539 11.6289 9.81602C11.7762 9.87188 11.827 9.93281 11.8828 10.1105C12.0301 10.5574 12.4059 10.7656 13.0508 10.7656C13.6906 10.7656 14.0816 10.5523 14.2086 10.1258C14.2645 9.93789 14.2898 9.9125 14.559 9.83125C14.7215 9.78047 14.9145 9.70938 14.9856 9.66875C15.1023 9.61289 15.143 9.61289 15.3156 9.69922C15.5289 9.81094 15.8133 9.83125 16.0266 9.75C16.1027 9.71953 16.3262 9.55195 16.5191 9.3793C17.027 8.92734 17.1641 8.57188 16.9863 8.14531C16.9152 7.96758 16.9152 7.94727 17.0828 7.60195C17.1793 7.39883 17.2758 7.17539 17.291 7.09414C17.3164 6.99766 17.3875 6.93164 17.5449 6.86055C17.9664 6.67266 18.1289 6.36289 18.1289 5.73828C18.1289 5.11367 17.9664 4.80391 17.5449 4.61602C17.3672 4.53984 17.3215 4.48398 17.2707 4.30625C17.2352 4.18438 17.1539 3.98633 17.0879 3.85938C16.9762 3.63594 16.9762 3.63086 17.0676 3.42773C17.2606 3.00625 17.1438 2.68125 16.6156 2.16836C16.1688 1.73672 15.9656 1.6707 15.5188 1.81797L15.209 1.91953L14.9805 1.80273C14.8535 1.7418 14.6504 1.65547 14.5336 1.61992C14.3356 1.56406 14.2949 1.52344 14.1934 1.3C13.9902 0.837891 13.7414 0.710938 13.0406 0.710938C12.6902 0.710938 12.5125 0.736328 12.3602 0.807423ZM13.3961 2.08711C13.5129 2.41719 13.5231 2.42734 13.7211 2.45781C14.0563 2.51367 14.5285 2.68633 14.8434 2.87422C15.0059 2.9707 15.1734 3.04688 15.2141 3.04688C15.2547 3.04688 15.407 2.98594 15.5492 2.91484L15.8082 2.78281L15.9555 2.93516L16.1078 3.08242L15.9555 3.38203L15.8082 3.68164L15.9047 3.83398C16.1231 4.1793 16.316 4.60586 16.3973 4.94609L16.4887 5.30664L16.7883 5.41328L17.0879 5.51992V5.73828V5.95664L16.7883 6.06328L16.4836 6.16992L16.4023 6.50508C16.3008 6.90117 16.1129 7.32773 15.8996 7.6375L15.7422 7.86602L15.8691 8.15547L16.0012 8.45L15.8438 8.60234L15.6914 8.75977L15.4121 8.60742L15.1328 8.46016L14.7367 8.65313C14.5184 8.75977 14.1477 8.89688 13.9141 8.95781L13.4875 9.07461L13.3809 9.39961L13.2691 9.72461H13.0508H12.8324L12.7258 9.41992C12.5887 9.01875 12.5785 9.00352 12.3551 8.96289C12.0656 8.91211 11.5883 8.70391 11.2836 8.50586L11.0195 8.32812L10.7148 8.48047C10.5473 8.56172 10.3848 8.63281 10.3441 8.63281C10.3086 8.63281 10.2121 8.5668 10.1359 8.48555L9.99883 8.34336L10.1816 8.0082L10.3645 7.67813L10.1613 7.27188C10.0496 7.04844 9.91758 6.71328 9.87188 6.53047L9.79063 6.20039L9.38438 6.06328L8.98321 5.93125L8.99844 5.72305L9.01368 5.51992L9.38946 5.38281L9.76524 5.25078L9.90235 4.80898C9.97852 4.56523 10.1258 4.23008 10.2273 4.05742C10.3289 3.88984 10.4102 3.72734 10.4102 3.70195C10.4102 3.67656 10.3391 3.51406 10.2527 3.34648C10.0852 3.00625 10.0852 2.94023 10.2832 2.81328C10.4152 2.72695 10.4254 2.73203 10.7656 2.89453L11.1109 3.06211L11.3598 2.90977C11.634 2.74219 12.0555 2.56953 12.3754 2.48828C12.5734 2.4375 12.5938 2.41719 12.675 2.16836C12.8172 1.73164 12.8273 1.72149 13.066 1.73672L13.2793 1.75195L13.3961 2.08711Z" fill="#6776FE"/>
<path d="M12.2891 3.49883C11.6492 3.70195 11.1313 4.14883 10.8316 4.7582C10.6641 5.09843 10.6387 5.18984 10.6234 5.61133C10.6031 5.99726 10.6234 6.14453 10.7098 6.41367C11.3547 8.35351 14.0106 8.67343 15.1328 6.94687C15.534 6.32734 15.6051 5.46406 15.3004 4.82422C15.011 4.20468 14.5133 3.75273 13.8735 3.52422C13.4418 3.37187 12.7156 3.36172 12.2891 3.49883ZM13.777 4.58554C14.2391 4.85468 14.4727 5.26093 14.4727 5.76875C14.4676 6.23593 14.1985 6.65234 13.7363 6.89609C13.518 7.01289 13.4215 7.0332 13.0508 7.0332C12.6801 7.0332 12.5836 7.01289 12.3602 6.89609C11.8473 6.62695 11.6035 6.18515 11.6391 5.6164C11.6594 5.2457 11.8066 4.98164 12.1418 4.7125C12.4313 4.4789 12.6649 4.41289 13.132 4.4332C13.4672 4.44843 13.584 4.47383 13.777 4.58554Z" fill="#6776FE"/>
<path d="M6.70821 7.19061C6.57617 7.31249 6.37305 7.78475 5.48946 10.0242L4.42813 12.7105L4.05235 12.9086C3.04688 13.4316 2.21914 14.3762 1.85352 15.4273C1.625 16.0773 1.57422 16.5547 1.57422 17.9765V19.2816L1.32539 19.434C1.16797 19.5355 1.02578 19.6777 0.934379 19.8351C0.797269 20.0637 0.787113 20.1348 0.766801 20.673C0.751566 21.191 0.766801 21.2926 0.863285 21.5211C0.980082 21.7953 1.22891 22.0543 1.46758 22.1508C1.53868 22.1863 1.83828 22.2219 2.13282 22.2371L2.66602 22.2676L2.69141 23.334C2.71172 24.0906 2.73711 24.4359 2.78282 24.5172C2.90977 24.7355 3.21446 25.0402 3.42266 25.1519C3.62578 25.2586 3.6918 25.2637 5.47422 25.2789C7.04336 25.2941 7.3582 25.284 7.59688 25.2129C7.94219 25.1113 8.25195 24.8422 8.40938 24.5019C8.5211 24.2633 8.53125 24.1871 8.53125 23.2426V22.2422H13H17.4687V23.2426C17.4687 24.1871 17.4789 24.2633 17.5906 24.5019C17.748 24.8422 18.0578 25.1113 18.4031 25.2129C18.6418 25.284 18.9566 25.2941 20.5258 25.2789C22.3082 25.2637 22.3742 25.2586 22.5773 25.1519C22.8059 25.0301 23.1309 24.6949 23.2223 24.4867C23.2578 24.4055 23.2934 23.9383 23.3086 23.3086L23.334 22.2676L23.8672 22.2371C24.1617 22.2219 24.4613 22.1863 24.5324 22.1508C24.7711 22.0543 25.0199 21.7953 25.1367 21.5211C25.2332 21.2926 25.2484 21.191 25.2332 20.673C25.2129 20.1348 25.2027 20.0637 25.0656 19.8351C24.9742 19.6828 24.832 19.5355 24.6797 19.439L24.4359 19.2867L24.4105 17.7836C24.3852 16.1281 24.3547 15.9148 24.0449 15.1734C23.6336 14.1984 22.8465 13.3605 21.907 12.8832C21.7648 12.8121 21.6328 12.7207 21.6176 12.6851C21.6023 12.6496 21.1301 11.4562 20.5715 10.0344C20.0078 8.61757 19.5152 7.38866 19.4746 7.31249C19.3324 7.03827 18.9465 6.99257 18.7027 7.22108C18.4539 7.4496 18.4641 7.48007 19.4695 10.0242C19.9926 11.3344 20.409 12.4109 20.4039 12.4109C20.3937 12.416 17.0727 12.4058 13.0254 12.3906L5.65703 12.3652L6.58633 10.0293C7.09414 8.74452 7.51055 7.63241 7.51055 7.55624C7.51563 7.35819 7.28203 7.11444 7.05352 7.07889C6.90117 7.0535 6.84531 7.07382 6.70821 7.19061ZM20.5766 13.4824C20.7848 13.523 21.1605 13.6652 21.4297 13.7922C22.3184 14.2289 23.0141 15.0769 23.2934 16.0723C23.3594 16.316 23.3797 16.6715 23.4 17.809L23.4203 19.2461H20.3937H17.3672V18.3422C17.3672 17.5805 17.352 17.4129 17.2707 17.2402C17.1336 16.9355 16.9355 16.7273 16.6461 16.5851L16.382 16.4531H13.0051C9.84141 16.4531 9.60781 16.4633 9.41992 16.5496C9.11524 16.6867 8.90703 16.8848 8.76484 17.1742C8.63789 17.4281 8.63281 17.4738 8.63281 18.3422V19.2461H5.60625H2.57969L2.6 17.7836C2.62032 16.4379 2.63047 16.3008 2.73711 15.9707C2.94532 15.341 3.18907 14.9398 3.65625 14.4676C4.0168 14.1019 4.16407 13.9902 4.57031 13.7922C4.83438 13.6652 5.2 13.5281 5.38281 13.4875C5.89571 13.3758 20.0434 13.3707 20.5766 13.4824ZM16.2703 17.55C16.3363 17.616 16.3516 17.7683 16.3516 18.4387V19.2461H13H9.64844V18.4387C9.64844 17.7683 9.66367 17.616 9.72969 17.55C9.80078 17.4789 10.1664 17.4687 13 17.4687C15.8336 17.4687 16.1992 17.4789 16.2703 17.55ZM24.1617 20.3226C24.2277 20.3887 24.243 21.059 24.182 21.1656C24.1465 21.2164 21.8715 21.2265 12.9695 21.2164L1.80274 21.2012L1.7875 20.8051C1.77735 20.5512 1.79258 20.3785 1.83321 20.3328C1.88399 20.2719 3.51914 20.2617 12.9949 20.2617C21.5668 20.2617 24.116 20.2769 24.1617 20.3226ZM7.51563 23.1765C7.51563 24.0906 7.51055 24.116 7.40391 24.1922C7.23125 24.314 3.99141 24.314 3.81875 24.1922C3.71211 24.116 3.70703 24.0906 3.70703 23.1765V22.2422H5.61133H7.51563V23.1765ZM22.293 23.1765C22.293 24.0906 22.2879 24.116 22.1812 24.1922C22.0086 24.314 18.7687 24.314 18.5961 24.1922C18.4895 24.116 18.4844 24.0906 18.4844 23.1765V22.2422H20.3887H22.293V23.1765Z" fill="#6776FE"/>
<path d="M5.3168 14.63C4.72266 14.7265 4.16914 15.1734 3.96094 15.732C3.80352 16.1433 3.83399 16.7273 4.03203 17.1285C4.52461 18.139 5.90586 18.4031 6.73867 17.6465C7.66289 16.8238 7.46485 15.3461 6.36289 14.7875C6.19024 14.6961 6.06836 14.6656 5.66211 14.6047C5.60625 14.5945 5.44883 14.6047 5.3168 14.63ZM6.01758 15.7625C6.41875 16.0265 6.39336 16.707 5.97696 16.9609C5.78399 17.0828 5.43867 17.0929 5.23047 16.9863C4.92071 16.8238 4.77852 16.3312 4.9461 16.0011C5.14414 15.6254 5.6418 15.5136 6.01758 15.7625Z" fill="#6776FE"/>
<path d="M20.1703 14.6301C19.6422 14.7164 19.1395 15.0922 18.8856 15.5898C18.7129 15.9351 18.6926 16.5801 18.8449 16.9863C18.9973 17.3976 19.4137 17.8191 19.8199 17.9664C20.4852 18.2152 21.1961 18.0679 21.6887 17.5754C22.0441 17.2199 22.1914 16.8594 22.1914 16.3515C22.1914 15.7015 21.8512 15.1176 21.2926 14.818C21.0793 14.7012 20.9625 14.6656 20.541 14.6047C20.4852 14.5945 20.3176 14.6098 20.1703 14.6301ZM20.866 15.7422C21.2926 15.9656 21.2672 16.7578 20.8254 16.9863C20.3227 17.2402 19.7539 16.9051 19.7539 16.3515C19.7539 15.7625 20.3227 15.4476 20.866 15.7422Z" fill="#6776FE"/>
</svg>
