<svg width="24" height="24" viewBox="0 0 24 24" fill="none" xmlns="http://www.w3.org/2000/svg">
<path d="M5.47964 0.815605C4.94995 1.02185 4.13433 1.72498 3.17339 2.81248C2.20776 3.89998 1.25151 5.22185 0.904639 5.94842L0.731201 6.29998L0.787451 6.77342C1.2187 10.5 4.32182 15.3703 8.48432 18.8484C11.4234 21.3 14.5921 22.889 17.2031 23.2078C17.6343 23.264 17.6578 23.2594 17.9296 23.1515C19.0359 22.6969 21.6515 20.5969 22.6406 19.364C23.2499 18.6047 23.3531 18.2156 23.0999 17.6625C22.9031 17.2406 22.6499 17.0156 21.539 16.2703C20.2734 15.4219 19.439 14.925 18.5671 14.4844C17.1843 13.7953 16.6874 13.7531 16.0406 14.2828C15.9281 14.3719 15.5718 14.7562 15.2484 15.1359C14.9249 15.5109 14.6343 15.825 14.6015 15.8344C14.5031 15.8578 13.6968 15.5297 13.1343 15.2297C11.2359 14.2359 9.75932 12.7594 8.77026 10.875C8.47026 10.3031 8.14214 9.49685 8.16557 9.39842C8.17495 9.3656 8.48901 9.07498 8.86401 8.75154C9.86245 7.89842 10.0734 7.59842 10.0781 7.06404C10.0781 6.35623 9.29526 4.81404 7.75307 2.50311C7.34526 1.89373 6.94214 1.33592 6.82026 1.22342C6.41714 0.853104 5.84057 0.67498 5.47964 0.815605ZM6.17807 2.82185C6.92807 3.88123 7.76714 5.28748 8.3062 6.39842C8.4562 6.70779 8.57807 6.97498 8.57807 6.99373C8.57807 7.00779 8.32026 7.24217 8.0062 7.50935C7.27495 8.12342 6.79214 8.58279 6.62807 8.82185L6.50151 9.00467L6.58589 9.3656C6.89057 10.664 7.73901 12.3187 8.7187 13.5281C10.2468 15.4031 12.4359 16.8562 14.5406 17.3953C14.7515 17.4469 14.9671 17.4797 15.0234 17.4656C15.1921 17.4234 15.7218 16.9031 16.364 16.1437C16.6968 15.7453 16.9828 15.4219 16.9968 15.4219C17.0109 15.4219 17.2828 15.5437 17.5968 15.6937C18.6796 16.214 20.0999 17.0578 21.164 17.8125L21.7031 18.1969L21.3234 18.614C20.9578 19.0125 20.0624 19.8422 19.4718 20.3344C19.0546 20.6812 18.0656 21.4031 17.7562 21.5906L17.489 21.7547L17.1703 21.6984C14.2734 21.2156 10.7531 19.1484 7.80464 16.1953C5.69057 14.0765 3.94214 11.5594 3.03745 9.3281C2.69995 8.49842 2.4187 7.53748 2.30151 6.82967L2.24526 6.51092L2.40933 6.24373C2.9812 5.30154 4.43901 3.5531 5.36714 2.69061C5.59682 2.47498 5.7937 2.30154 5.79839 2.29685C5.80307 2.29685 5.97182 2.53592 6.17807 2.82185Z" fill="#6776FE"/>
</svg>
