<svg width="25" height="23" viewBox="0 0 25 23" fill="none" xmlns="http://www.w3.org/2000/svg">
<path d="M11.4258 0.704107C10.9863 0.845709 10.5762 1.20704 10.3906 1.61231C10.3027 1.80762 10.2783 1.93946 10.2783 2.2959C10.2783 2.68165 10.2979 2.76465 10.415 2.99415C10.6787 3.49708 11.0693 3.78516 11.626 3.8877C12.2119 3.99512 12.8223 3.74122 13.1982 3.2334C13.8037 2.41797 13.5156 1.28028 12.5879 0.801763C12.4268 0.718756 12.2754 0.689459 11.9629 0.67481C11.7334 0.669928 11.4941 0.679693 11.4258 0.704107ZM12.085 1.49512C12.6074 1.63672 12.8467 2.2129 12.583 2.68653C12.4609 2.90626 12.1338 3.10157 11.8897 3.10157C11.6895 3.10157 11.333 2.91602 11.2109 2.75001C11.0791 2.56446 11.0498 2.13965 11.1572 1.91016C11.25 1.71973 11.4453 1.55372 11.6602 1.49024C11.8408 1.43653 11.8652 1.43653 12.085 1.49512Z" fill="#6776FE"/>
<path d="M5.41504 2.33984C5.08789 2.45703 4.91211 2.60352 4.02344 3.50195C3.27637 4.25879 3.12988 4.43457 3.06152 4.63477C2.92969 5.02539 2.9541 5.33789 3.13965 5.69434C3.49121 6.37305 4.29199 6.59766 4.95605 6.20215C5.06348 6.13867 5.41504 5.82129 5.7373 5.49902L6.32324 4.9082H6.77246H7.22656L6.51367 5.97754L5.80078 7.05176L4.79004 7.56445L3.78418 8.07227L2.8125 7.4668C2.28027 7.13477 1.7627 6.8418 1.66504 6.8125C1.22559 6.69043 0.74707 6.8125 0.429688 7.12012C0.117188 7.42285 0.0244141 7.64258 0.0244141 8.08203C0.0244141 8.49707 0.12207 8.73145 0.400391 8.99023C0.629883 9.20508 3.05664 10.7188 3.31543 10.8066C3.75 10.9531 3.9502 10.8945 5.38086 10.1768L6.68945 9.52246L7.51953 9.9375C8.28613 10.3184 8.35938 10.3672 8.49609 10.582C8.5791 10.709 8.71094 10.8604 8.79395 10.9189C8.90137 10.9922 9.0918 11.3242 9.52148 12.1885C9.84375 12.8281 10.1074 13.3701 10.1074 13.3945C10.1074 13.4141 9.88281 13.541 9.60938 13.6777L9.10645 13.9268L7.91016 13.1748C6.21094 12.1055 6.32324 12.1592 5.7373 12.1592C5.30273 12.1592 5.21973 12.1738 5.00488 12.291C4.70215 12.4473 4.375 12.7939 4.2334 13.1016C4.07227 13.4482 4.08203 14.0684 4.25293 14.4346C4.32617 14.5859 4.45801 14.7861 4.55566 14.8789C4.74609 15.0693 7.97852 17.1104 8.38867 17.3008C8.69141 17.4375 9.18457 17.4668 9.49707 17.3594C9.60449 17.3252 10.459 16.915 11.4014 16.4414L13.1104 15.5918L14.5557 16.3096L16.001 17.0322L16.9141 18.8682C17.417 19.8789 17.8857 20.7822 17.9492 20.8799C18.1055 21.1094 18.4375 21.3438 18.7598 21.4609C19.0186 21.5488 18.9795 21.5537 14.7559 21.5537L10.4932 21.5586L10.376 21.6807C10.2246 21.8271 10.2197 22.0371 10.3564 22.2129L10.4541 22.3398H17.3877C21.8164 22.3398 24.3555 22.3203 24.4141 22.291C24.5215 22.2324 24.6191 21.9785 24.5752 21.8613C24.5605 21.8174 24.502 21.7295 24.4482 21.666L24.3506 21.5586L21.9287 21.5537L19.5068 21.5488L19.79 21.4512C20.1611 21.3242 20.6006 20.9238 20.7568 20.5723C20.8496 20.3672 20.874 20.2305 20.874 19.8887V19.4639L19.7363 17.1885C18.8232 15.3525 18.5596 14.8643 18.374 14.6689C18.252 14.5371 18.1592 14.4297 18.1689 14.4297C18.1787 14.4297 18.2959 14.4639 18.4277 14.5029C18.5596 14.542 18.7451 14.5762 18.8379 14.5762C19.126 14.5762 23.4424 13.6973 23.6621 13.5947C23.999 13.4336 24.2529 13.1797 24.4238 12.8281C24.7217 12.2275 24.624 11.5098 24.1748 10.9971C24.0869 10.8994 23.877 10.748 23.7061 10.665C23.1982 10.416 23.042 10.4209 21.3135 10.7676C20.4834 10.9287 19.7656 11.0752 19.7266 11.085C19.6729 11.0996 19.2627 10.4746 18.2861 8.87793C17.5342 7.65234 16.8359 6.56348 16.7383 6.46582C16.6357 6.36328 16.4404 6.2168 16.2988 6.14355L16.04 6.00684L13.7695 5.99707L11.499 5.9873L10.5078 4.38574C9.44824 2.66211 9.29199 2.47168 8.87207 2.34473C8.54004 2.24707 5.68848 2.24219 5.41504 2.33984ZM8.78418 3.2334C8.8623 3.31152 9.31641 4.00488 9.79004 4.78613C10.2686 5.5625 10.6885 6.24609 10.7227 6.2998C10.7861 6.39258 10.7617 6.43164 10.4297 6.75879L10.0732 7.11523L9.69727 6.5C9.4873 6.16309 9.27734 5.86035 9.22852 5.83594C9.10156 5.76758 8.87207 5.77734 8.7793 5.8457C8.73535 5.87988 8.45215 6.28027 8.14941 6.73926C7.41211 7.85254 7.41211 7.88184 8.17383 8.2627C8.41797 8.38477 8.62305 8.4873 8.63281 8.49707C8.6377 8.50195 8.56934 8.62402 8.47656 8.76074C8.37891 8.90234 8.29102 9.08789 8.27148 9.18066C8.25684 9.27344 8.22266 9.35156 8.19824 9.35156C8.17383 9.35156 7.84668 9.19531 7.4707 9.00977C7.09473 8.81934 6.74316 8.66797 6.68945 8.66797C6.63574 8.66797 5.97656 8.97559 5.22461 9.35156C4.29199 9.81543 3.80859 10.0352 3.69629 10.0352C3.57422 10.0352 3.24707 9.85938 2.31445 9.27832C1.64551 8.8584 1.04004 8.45312 0.966797 8.37012C0.59082 7.96484 1.05957 7.4082 1.55762 7.66699C1.63574 7.70117 2.11914 7.99902 2.63184 8.32129C3.14941 8.64844 3.61816 8.92188 3.68164 8.94141C3.75977 8.96094 4.15527 8.78516 5.06836 8.33105L6.34766 7.69141L7.37305 6.15332C7.93457 5.30371 8.39844 4.56641 8.39844 4.5127C8.39844 4.39062 8.31055 4.21973 8.20801 4.1416C8.1543 4.09766 7.82227 4.08301 7.06055 4.07812H5.99121L5.24902 4.81055C4.52637 5.52344 4.50195 5.54297 4.30176 5.54297C4.01855 5.54297 3.80859 5.34277 3.80859 5.07422C3.80859 4.89844 3.85742 4.83984 4.70215 3.99512L5.5957 3.10156H7.11914H8.64258L8.78418 3.2334ZM15.7178 6.80762C15.835 6.83203 15.9863 6.89551 16.0596 6.94434C16.1279 6.99805 16.8359 8.10156 17.6318 9.39551C18.4326 10.6895 19.1113 11.7832 19.1455 11.8223C19.292 12.0029 19.3945 11.9932 21.1279 11.6465C22.0605 11.4561 22.9004 11.3047 22.9883 11.3047C23.5352 11.3047 23.9209 11.9248 23.6914 12.4375C23.5156 12.833 23.5107 12.8379 21.0742 13.3213C18.667 13.8047 18.6328 13.8096 18.3398 13.5459C18.2471 13.4678 17.832 12.8477 17.4121 12.1689C16.9971 11.4902 16.6113 10.8945 16.5625 10.8506C16.4697 10.7676 16.2842 10.7432 16.1377 10.7969C16.0156 10.8457 14.502 13.1406 14.502 13.2773C14.502 13.3408 14.541 13.4434 14.5898 13.502C14.6387 13.5654 15.3809 13.9658 16.2402 14.4004L17.7979 15.1865L18.9355 17.4326C20.0537 19.6494 20.0684 19.6836 20.0537 19.9521C20.0342 20.2939 19.8877 20.5088 19.5898 20.6406C19.4336 20.7139 19.3213 20.7285 19.1699 20.709C18.7256 20.6406 18.7158 20.6309 17.6025 18.4287L16.5771 16.4072L14.917 15.5674C14.0039 15.1035 13.1982 14.7275 13.125 14.7275C13.0469 14.7227 12.2461 15.0986 11.1719 15.6455C10.1709 16.1533 9.26758 16.583 9.16016 16.6025C9.05762 16.6221 8.90137 16.6172 8.81348 16.5928C8.54004 16.5049 5.18555 14.3809 5.06836 14.2197C4.90723 13.9951 4.89258 13.6094 5.03418 13.3555C5.19043 13.082 5.4248 12.9453 5.74219 12.9453C5.98145 12.9453 6.0498 12.9844 7.45117 13.8535C8.25195 14.3516 8.95996 14.7764 9.01367 14.791C9.0918 14.8154 9.58008 14.5908 10.8447 13.9561L12.5732 13.0869L13.9307 11.0605C14.9951 9.46875 15.2832 9 15.2832 8.87793C15.2832 8.43848 15.2246 8.42383 13.5938 8.42383H12.2412L11.2598 9.39551C10.4639 10.1816 10.2393 10.377 10.0732 10.4258C9.34082 10.6455 8.75488 9.84961 9.1748 9.2002C9.24805 9.08301 9.79492 8.51172 10.3809 7.93066C11.3428 6.97852 11.4746 6.86621 11.6699 6.82227C11.9385 6.76367 15.4199 6.75391 15.7178 6.80762ZM9.25293 7.33496L9.47754 7.70605L9.37988 7.80371L9.28223 7.90625L8.94043 7.73535L8.59375 7.56934L8.79395 7.26172C8.90625 7.0957 9.00391 6.95898 9.01367 6.95898C9.01855 6.95898 9.12598 7.125 9.25293 7.33496ZM14.1113 9.27832C14.1113 9.29297 13.7109 9.90332 13.2275 10.6309L12.3389 11.959L11.9287 11.1338L11.5137 10.3135L12.0459 9.78125L12.5732 9.25391H13.3398C13.7646 9.25391 14.1113 9.26367 14.1113 9.27832ZM11.3037 11.7441C11.5332 12.2031 11.7139 12.5938 11.6992 12.6133C11.6699 12.667 10.8936 13.0381 10.8691 13.0088C10.8301 12.9697 10.0049 11.2949 10.0195 11.2852C10.0293 11.2803 10.1465 11.2461 10.2783 11.2168C10.415 11.1826 10.6006 11.0996 10.6934 11.0361C10.7861 10.9727 10.8691 10.9189 10.874 10.9189C10.8838 10.9141 11.0742 11.29 11.3037 11.7441ZM16.9238 12.9258C17.4463 13.7852 17.7686 14.1953 18.042 14.3711C18.0957 14.4004 17.5586 14.1416 16.8457 13.79C16.1328 13.4385 15.542 13.1406 15.5322 13.1309C15.5029 13.1016 16.2793 11.9443 16.3135 11.9688C16.333 11.9785 16.6064 12.4131 16.9238 12.9258Z" fill="#6776FE"/>
<path d="M19.4824 3.5459C18.4668 3.7168 17.6318 4.69824 17.627 5.72363C17.627 6.85156 18.4375 7.80859 19.5459 7.98437C20.6445 8.15527 21.7627 7.42773 22.041 6.34863C22.3731 5.08398 21.5967 3.83398 20.3174 3.56055C19.9561 3.4873 19.8682 3.48242 19.4824 3.5459ZM20.4883 4.46875C21.3721 4.89844 21.5723 6.09961 20.874 6.77832C20.5762 7.0664 20.2979 7.17871 19.8731 7.17383C19.4385 7.16894 19.2236 7.08594 18.9111 6.80273C18.5645 6.48047 18.4814 6.28027 18.4814 5.76269C18.4814 5.40625 18.501 5.28906 18.5889 5.12793C18.6816 4.95215 18.9209 4.69824 19.1553 4.51758C19.4336 4.30762 20.1025 4.2832 20.4883 4.46875Z" fill="#6776FE"/>
<path d="M7.91995 21.6709C7.77347 21.8271 7.77835 22.0957 7.92484 22.2324C8.02737 22.3301 8.09085 22.3398 8.61331 22.3398C9.1553 22.3398 9.18948 22.335 9.30179 22.2178C9.37991 22.1445 9.42386 22.042 9.42386 21.9492C9.42386 21.8564 9.37991 21.7539 9.30179 21.6807C9.18948 21.5635 9.1553 21.5586 8.60355 21.5586C8.06155 21.5586 8.01761 21.5635 7.91995 21.6709Z" fill="#6776FE"/>
</svg>
