<svg width="26" height="16" viewBox="0 0 26 16" fill="none" xmlns="http://www.w3.org/2000/svg">
<path d="M1.04102 0.474218C0.548443 0.641796 0.218365 0.987108 0.0761775 1.46445C-0.025385 1.79961 -0.0355413 4.96836 0.0609431 5.18164C0.137115 5.34922 0.345318 5.46094 0.578912 5.46094C1.16797 5.46094 1.82305 5.75039 2.29024 6.21758C3.30079 7.22812 3.30079 8.77187 2.29024 9.78242C1.82305 10.2496 1.16797 10.5391 0.578912 10.5391C0.34024 10.5391 0.126959 10.6559 0.055865 10.8336C0.0101619 10.9402 5.60423e-06 11.4582 0.0101619 12.7277L0.0253962 14.4746L0.167584 14.7641C0.330084 15.0891 0.573834 15.3277 0.90899 15.4852L1.14258 15.5918H13H24.8574L25.091 15.4852C25.4262 15.3277 25.6699 15.0891 25.8324 14.7641L25.9746 14.4746L25.9899 12.7277C26 11.4582 25.9899 10.9402 25.9441 10.8336C25.8731 10.6559 25.6598 10.5391 25.4211 10.5391C24.8371 10.5391 24.1871 10.2496 23.7149 9.78242C22.6941 8.77695 22.6992 7.22305 23.7149 6.21758C24.1922 5.74531 24.832 5.46094 25.4211 5.46094C25.6598 5.46094 25.8731 5.34414 25.9441 5.16641C25.9899 5.05976 26 4.5418 25.9899 3.27226L25.9746 1.52539L25.8324 1.23594C25.6699 0.910936 25.4262 0.672265 25.091 0.514843L24.8574 0.408202L13.0762 0.398046C1.99571 0.38789 1.27969 0.392968 1.04102 0.474218ZM6.09376 2.21094C6.09376 2.82031 6.11407 3.06406 6.16485 3.1707C6.34258 3.50586 6.86055 3.50586 7.03829 3.1707C7.08907 3.06406 7.10938 2.82031 7.10938 2.21094V1.39844H15.8438C22.5012 1.39844 24.6035 1.41367 24.7051 1.45937C24.9691 1.57617 24.9844 1.68281 24.9844 3.14023V4.48086L24.6949 4.5418C24.5324 4.57734 24.182 4.70937 23.918 4.83633C23.5117 5.03437 23.3695 5.13594 22.9988 5.50664C22.6383 5.86719 22.5215 6.02461 22.3234 6.42578C21.8106 7.47187 21.8106 8.52812 22.3234 9.57422C22.5215 9.97539 22.6383 10.1328 22.9988 10.4934C23.3695 10.8641 23.5117 10.9656 23.918 11.1637C24.182 11.2906 24.5324 11.4227 24.6949 11.4582L24.9844 11.5191V12.8598C24.9844 14.3172 24.9691 14.4238 24.7051 14.5406C24.6035 14.5863 22.5012 14.6016 15.8438 14.6016H7.10938V13.7891C7.10938 12.8953 7.07383 12.743 6.83008 12.6312C6.66251 12.5551 6.54063 12.5551 6.37305 12.6312C6.1293 12.743 6.09376 12.8953 6.09376 13.7891V14.6016H3.75782C2.05665 14.6016 1.39141 14.5863 1.29493 14.5406C1.03087 14.4238 1.01563 14.3172 1.01563 12.8598V11.5191L1.33555 11.4531C1.50821 11.4125 1.8586 11.2805 2.10743 11.1586C2.47813 10.9707 2.65079 10.8437 3.00118 10.4934C3.3668 10.1277 3.47852 9.97539 3.67149 9.57422C4.18946 8.51289 4.18946 7.48711 3.67149 6.42578C3.47852 6.02461 3.3668 5.87226 3.00118 5.50664C2.64571 5.15117 2.47813 5.0293 2.09219 4.83633C1.83829 4.70937 1.4879 4.57734 1.32032 4.5418L1.01563 4.48086V3.13008C1.02071 1.68789 1.03087 1.60156 1.27462 1.46953C1.3711 1.41875 1.89415 1.40351 3.74766 1.39844H6.09376V2.21094Z" fill="#6776FE"/>
<path d="M6.35273 4.51641C6.13945 4.6332 6.09883 4.78047 6.09375 5.4457C6.09375 6.13124 6.13945 6.29374 6.35273 6.40546C6.6168 6.54257 6.93672 6.44609 7.04844 6.19726C7.08398 6.12109 7.10938 5.82148 7.10938 5.46093C7.10938 5.10039 7.08398 4.80078 7.04844 4.72461C6.93672 4.48086 6.60156 4.3793 6.35273 4.51641Z" fill="#6776FE"/>
<path d="M10.4152 4.51639C10.075 4.70428 10.0852 5.24256 10.4356 5.39999C10.532 5.44569 11.6797 5.46092 15.0363 5.46092C19.891 5.46092 19.7133 5.47108 19.8453 5.18163C19.9621 4.92264 19.8809 4.63827 19.6473 4.51639C19.4442 4.41483 10.6031 4.41483 10.4152 4.51639Z" fill="#6776FE"/>
<path d="M6.35275 7.56328C5.91095 7.80703 6.09884 8.50781 6.60158 8.50781C6.86056 8.50781 7.10939 8.25898 7.10939 8.00508C7.10939 7.62422 6.6879 7.37539 6.35275 7.56328Z" fill="#6776FE"/>
<path d="M10.4152 7.56327C10.075 7.75116 10.0852 8.28944 10.4356 8.44686C10.532 8.49256 11.6797 8.5078 15.0363 8.5078C19.891 8.5078 19.7133 8.51796 19.8453 8.2285C19.9621 7.96952 19.8809 7.68514 19.6473 7.56327C19.4442 7.46171 10.6031 7.46171 10.4152 7.56327Z" fill="#6776FE"/>
<path d="M6.35273 9.59453C6.13945 9.71133 6.09883 9.85859 6.09375 10.5238C6.09375 11.2094 6.13945 11.3719 6.35273 11.4836C6.6168 11.6207 6.93672 11.5242 7.04844 11.2754C7.08398 11.1992 7.10938 10.8996 7.10938 10.5391C7.10938 10.1785 7.08398 9.8789 7.04844 9.80273C6.93672 9.55898 6.60156 9.45742 6.35273 9.59453Z" fill="#6776FE"/>
<path d="M10.4152 10.6101C10.075 10.798 10.0852 11.3363 10.4356 11.4937C10.532 11.5394 11.6797 11.5547 15.0363 11.5547C19.891 11.5547 19.7133 11.5648 19.8453 11.2754C19.9621 11.0164 19.8809 10.732 19.6473 10.6101C19.4442 10.5086 10.6031 10.5086 10.4152 10.6101Z" fill="#6776FE"/>
</svg>
