<svg width="30" height="34" viewBox="0 0 30 34" fill="none" xmlns="http://www.w3.org/2000/svg">
<path d="M14.0305 0.0929678C13.5059 0.212499 12.9082 0.458202 12.4301 0.737108C12.0582 0.96289 11.2613 1.68672 11.0688 1.97891C10.9691 2.125 10.823 2.14492 7.68867 2.52344C5.88242 2.73594 4.35508 2.93516 4.28867 2.95508C4.22227 2.98164 4.1293 3.08789 4.07617 3.19414C3.98984 3.36016 4.00313 3.57266 4.20898 5.32578C4.33516 6.39492 4.44141 7.32461 4.44141 7.38437C4.44141 7.48398 4.38164 7.50391 4.14922 7.50391C3.96992 7.50391 3.80391 7.55039 3.71758 7.6168C3.63789 7.6832 3.16641 8.40703 2.66836 9.23047L1.76523 10.7246L1.18086 21.9805C0.862109 28.1695 0.596484 33.3227 0.589844 33.4223C0.589844 33.5484 0.65625 33.6812 0.782422 33.8074L0.975 34H15H29.025L29.2176 33.8074C29.3438 33.6812 29.4102 33.5484 29.4102 33.4223C29.4035 33.3227 29.1379 28.1695 28.8191 21.9805L28.2348 10.7246L27.3316 9.23047C26.8336 8.40703 26.3621 7.6832 26.2824 7.6168C26.1695 7.53047 26.0168 7.50391 25.5453 7.50391C25.0141 7.50391 24.9543 7.49062 24.9875 7.38437C25.107 6.98594 25.3594 5.79726 25.3594 5.61797C25.3594 5.45195 25.1734 5.12656 25.0738 5.11328C25.0672 5.11328 23.8785 4.83437 22.4375 4.4957L19.8145 3.87812L19.675 3.43984C19.1703 1.88594 17.9617 0.703905 16.3613 0.199218C15.7637 0.0132803 14.6082 -0.0398447 14.0305 0.0929678ZM15.9895 1.30156C16.627 1.48086 17.1316 1.78633 17.6297 2.28437C18.0348 2.68945 18.4531 3.31367 18.4531 3.50625C18.4531 3.53945 18.1609 3.49961 17.809 3.41328C16.5871 3.12109 16.5074 3.16758 16.2352 4.34961C15.8102 6.18906 15.8566 6.06289 15.5711 6.1293C15.4316 6.1625 15.2988 6.16914 15.2723 6.13594C15.2457 6.10273 15.1195 5.20625 15 4.15039C14.8805 3.08789 14.741 2.14492 14.6945 2.05195C14.5551 1.77305 14.3094 1.72656 13.5258 1.83281C13.1539 1.8793 12.8152 1.91914 12.7754 1.91914C12.6359 1.92578 13.3266 1.54062 13.7117 1.40117C14.482 1.11562 15.2191 1.08906 15.9895 1.30156ZM13.8977 4.62851C13.9973 5.53828 14.0969 6.32187 14.1102 6.38164C14.1301 6.46797 13.6586 6.60078 11.4008 7.13867C8.97695 7.72305 8.63828 7.82266 8.47891 7.97539C8.37266 8.075 8.29297 8.21445 8.29297 8.28086C8.29297 8.35391 8.39922 8.83203 8.52539 9.35664C8.65156 9.87461 8.75781 10.3129 8.75781 10.3328C8.75781 10.3461 8.13359 10.3594 7.36992 10.3594H5.98203L5.94883 10.1402C5.8293 9.48945 5.225 4.04414 5.2582 4.0043C5.30469 3.96445 13.0875 3.0082 13.5125 2.99492L13.7117 2.98828L13.8977 4.62851ZM20.7641 5.28594C22.5836 5.71094 24.0777 6.06953 24.0844 6.07617C24.0977 6.08945 23.8852 7.05234 23.6129 8.21445L23.1215 10.3262L21.4547 10.3461L19.7879 10.3594L19.7215 10.1137C19.6816 9.97422 19.4426 8.97812 19.1836 7.90234C18.9246 6.82656 18.6656 5.87695 18.6125 5.79062C18.4465 5.53164 18.2406 5.49844 17.6563 5.63789C17.0453 5.77734 17.0719 5.81055 17.2313 5.12656C17.3641 4.54883 17.3773 4.51562 17.4305 4.51562C17.4504 4.51562 18.9512 4.86094 20.7641 5.28594ZM18.1277 8.45351C18.3336 9.32344 18.5262 10.107 18.5461 10.1934L18.5859 10.3594H14.2762H9.95977L9.89336 10.107C9.85352 9.97422 9.76719 9.61562 9.70078 9.3168L9.57461 8.77226L11.507 8.30078C12.5695 8.04844 14.3492 7.61016 15.4648 7.34453C16.5805 7.07226 17.55 6.85312 17.623 6.85976C17.7359 6.87305 17.8023 7.07226 18.1277 8.45351ZM4.68711 9.33008C4.72695 9.69531 4.7668 10.0738 4.7668 10.1734L4.77344 10.3594H4.07617C3.69102 10.3594 3.37891 10.3461 3.37891 10.3328C3.37891 10.3129 3.60469 9.92109 3.88359 9.46289C4.51445 8.41367 4.57422 8.40703 4.68711 9.33008ZM26.1164 9.46953C26.3953 9.92773 26.6211 10.3129 26.6211 10.3328C26.6211 10.3461 26.0965 10.3594 25.4523 10.3594C24.3766 10.3594 24.2902 10.3527 24.3234 10.2398C24.3434 10.1801 24.4363 9.78828 24.5293 9.37656L24.7086 8.63281H25.1602H25.6184L26.1164 9.46953ZM27.1523 11.7672C27.1523 11.8867 27.3914 16.6348 27.6836 22.3125C27.9758 27.9902 28.2148 32.6918 28.2148 32.7516C28.2148 32.8645 27.5441 32.8711 15 32.8711C2.45586 32.8711 1.78516 32.8645 1.78516 32.7516C1.78516 32.6918 2.02422 27.9902 2.31641 22.3125C2.60859 16.6348 2.84766 11.8867 2.84766 11.7672V11.5547H15H27.1523V11.7672Z" fill="#130F26"/>
<path d="M10.0198 12.8164C9.11664 13.2414 8.71157 14.2508 9.11664 15.1074C9.26938 15.4461 9.70102 15.891 9.94008 15.9641C10.0663 16.0039 10.0729 16.0836 10.1061 17.4848C10.1393 19.0852 10.1924 19.4039 10.5577 20.1809C11.2284 21.6219 12.4768 22.618 14.0174 22.9367C16.5409 23.4547 18.9846 21.9605 19.7217 19.4438C19.8413 19.032 19.8678 18.7332 19.8944 17.4848C19.9276 16.0836 19.9342 16.0039 20.0604 15.9641C20.2795 15.8977 20.7112 15.4727 20.8573 15.1805C21.4549 14.0117 20.492 12.584 19.1971 12.7035C18.3338 12.7766 17.6963 13.4008 17.61 14.2441C17.5436 14.8883 17.9155 15.5988 18.4799 15.9043L18.719 16.0371V17.3652C18.719 18.866 18.6659 19.1981 18.2807 19.9219C17.8491 20.7453 17.0323 21.4227 16.1159 21.7215C14.4557 22.2594 12.5366 21.4758 11.7198 19.9219C11.3346 19.1981 11.2815 18.866 11.2815 17.3652V16.0371L11.5206 15.9043C11.8526 15.725 12.1846 15.3133 12.3174 14.9215C12.5764 14.1379 12.2045 13.2613 11.4475 12.8695C11.0491 12.6637 10.3983 12.6438 10.0198 12.8164ZM10.9428 13.9121C11.1487 14.0184 11.2948 14.3238 11.235 14.5363C11.2018 14.6758 11.2018 14.6758 11.0358 14.543C10.8166 14.3703 10.551 14.377 10.3319 14.543C10.1659 14.6758 10.1592 14.6758 10.1194 14.5496C10.053 14.3305 10.1592 14.0715 10.3784 13.9387C10.6241 13.7859 10.7038 13.7859 10.9428 13.9121ZM19.5756 13.9121C19.7948 14.0184 19.9475 14.3371 19.8811 14.5363L19.8413 14.6758L19.6686 14.543C19.4694 14.3836 19.1373 14.3703 18.9381 14.5098C18.8186 14.5961 18.792 14.5961 18.7588 14.5098C18.6991 14.3504 18.8584 14.0117 19.0444 13.9121C19.2635 13.7926 19.3498 13.7926 19.5756 13.9121Z" fill="#6776FE"/>
</svg>
