<svg width="11" height="11" viewBox="0 0 11 11" fill="none" xmlns="http://www.w3.org/2000/svg">
<path d="M5.00801 0.79492C4.65996 0.846482 4.37207 1.06133 4.21523 1.39219C4.14433 1.54258 4.13574 1.5791 4.12929 1.77461C4.11855 2.01523 4.15078 2.16348 4.24961 2.35254C4.29043 2.43203 4.69433 2.85098 5.82012 3.98105L7.33692 5.5L5.79648 7.04258C4.37636 8.46484 4.2539 8.59375 4.19375 8.72265C3.99394 9.15449 4.06914 9.6164 4.3914 9.93867C4.71367 10.2609 5.17558 10.3361 5.60742 10.1363C5.73848 10.0762 5.89531 9.92148 7.96641 7.85469C9.6422 6.18105 10.19 5.62246 10.2029 5.56875C10.2158 5.52793 10.2158 5.47207 10.2029 5.4291C10.19 5.37754 9.64649 4.82109 7.98789 3.16465C6.06934 1.25039 5.77285 0.962499 5.66113 0.906639C5.45058 0.801366 5.2293 0.764842 5.00801 0.79492Z" fill="#6776FE"/>
<path d="M1.24824 0.85077C0.719727 0.992567 0.386719 1.53827 0.500586 2.07538C0.567188 2.38476 0.519922 2.33104 2.16562 3.98105L3.68457 5.49999L2.15488 7.03183C0.936719 8.25214 0.616602 8.58515 0.571485 8.67324C0.300782 9.21894 0.504883 9.85058 1.03555 10.1062C1.375 10.2695 1.79609 10.2416 2.09258 10.0332C2.13984 9.99882 3.1625 8.98906 4.36133 7.79023L6.54199 5.60741V5.49999V5.39257L4.35058 3.20116C2.03457 0.885145 2.08613 0.932411 1.80684 0.85077C1.66289 0.807801 1.40508 0.807801 1.24824 0.85077Z" fill="#6776FE"/>
</svg>
